if (_typeface_js && _typeface_js.loadFace) _typeface_js.loadFace({"glyphs":{"":{"x_min":59,"x_max":321,"ha":322,"o":"m 321 1020 q 288 952 321 990 l 321 928 l 284 908 l 259 926 q 216 890 233 901 q 197 882 204 884 q 181 880 190 880 q 135 903 158 880 q 106 928 115 927 q 84 911 95 928 q 69 896 75 896 q 59 907 59 896 q 62 929 59 919 q 76 951 66 939 q 113 973 92 973 q 154 941 125 973 q 179 925 167 925 q 197 930 188 925 q 223 952 206 935 q 207 965 213 959 q 193 981 201 971 q 185 1020 185 998 q 203 1071 185 1052 q 253 1091 221 1091 q 300 1071 280 1091 q 321 1020 321 1051 m 276 1023 q 269 1040 276 1033 q 252 1048 264 1048 q 238 1041 243 1048 q 232 1023 233 1035 q 236 1005 232 1012 q 254 987 241 997 q 276 1023 274 1006 "},"":{"x_min":58.671875,"x_max":386.234375,"ha":387,"o":"m 386 1087 q 384 1078 386 1080 l 370 1064 q 351 1045 361 1057 q 344 1035 348 1041 q 334 1020 340 1030 q 319 1008 328 1008 q 306 1011 315 1008 l 277 1015 l 79 1015 q 58 1025 58 1015 q 60 1034 58 1032 q 64 1038 61 1036 q 75 1047 67 1041 l 93 1067 l 110 1092 q 125 1105 117 1105 q 138 1101 129 1105 q 151 1099 143 1100 q 167 1098 159 1098 l 365 1098 q 386 1087 386 1098 m 386 949 q 384 939 386 941 l 369 926 q 361 919 365 922 q 351 907 357 915 q 343 896 348 904 q 334 883 338 889 q 319 871 328 871 q 305 874 315 871 q 277 877 296 877 l 79 877 q 58 886 58 877 q 60 896 58 894 l 75 909 l 93 928 l 110 954 q 125 967 117 967 l 138 963 q 167 960 148 960 l 365 960 q 386 949 384 960 "},"":{"x_min":-66,"x_max":613.515625,"ha":574,"o":"m 152 832 q 186 846 164 846 q 226 829 206 846 q 242 789 242 811 q 226 754 242 768 q 190 741 212 741 q 152 756 170 741 q 136 795 136 774 q 139 814 136 807 q 152 832 142 822 m 362 832 q 396 846 374 846 q 434 829 416 846 q 452 789 452 812 q 437 755 452 770 q 402 741 422 741 q 362 756 380 741 q 346 795 346 774 q 349 814 346 807 q 362 832 352 822 m -66 83 l 410 83 l 410 152 l 264 152 q 122 208 185 152 q 60 347 60 265 q 74 429 60 392 q 119 499 88 465 q 264 565 179 565 l 493 565 l 493 83 l 613 83 l 613 0 l -66 0 l -66 83 m 410 477 l 281 477 q 189 438 231 477 q 152 348 152 402 q 190 270 152 302 q 281 239 229 239 l 410 239 l 410 477 "},"":{"x_min":59,"x_max":191,"ha":192,"o":"m 191 1012 q 171 966 191 985 q 124 947 151 947 q 77 966 96 947 q 59 1012 59 986 q 77 1060 59 1041 q 124 1080 95 1080 q 171 1059 151 1080 q 191 1012 191 1039 m 146 1012 q 124 1033 146 1033 q 104 1012 104 1033 q 124 992 104 992 q 139 997 134 992 q 146 1012 144 1002 "},"":{"x_min":85,"x_max":417.296875,"ha":382,"o":"m 417 0 l 118 0 l 118 866 l 131 861 q 144 855 138 859 l 166 837 q 189 807 178 825 l 196 788 l 199 769 l 199 83 l 417 83 l 417 0 m 86 975 l 165 975 l 154 983 l 146 989 q 118 1040 118 1013 q 122 1063 118 1051 q 151 1100 128 1085 q 196 1112 168 1112 l 245 1112 l 266 1112 l 266 1075 l 206 1075 l 187 1075 q 171 1071 177 1075 q 152 1055 162 1070 l 152 1041 q 181 994 152 1017 q 219 975 204 977 l 281 975 q 263 945 281 954 l 256 943 l 247 943 l 236 943 l 85 943 l 86 975 "},"":{"x_min":0,"x_max":1501,"ha":1626,"o":"m 932 0 l 932 440 q 910 435 921 438 q 894 429 899 431 l 865 419 q 751 363 788 392 q 657 265 689 320 q 626 131 626 209 l 626 -36 q 532 -253 626 -161 q 310 -345 438 -345 q 92 -253 185 -345 q 0 -36 0 -162 l 0 115 q 1 127 0 123 q 5 139 2 131 l 11 152 l 20 166 q 81 210 42 198 l 81 -37 q 150 -199 81 -128 q 227 -248 185 -231 q 316 -265 269 -265 q 477 -197 409 -265 q 527 -123 509 -165 q 545 -36 545 -82 l 545 142 q 590 314 545 238 q 715 449 627 379 q 834 512 757 484 l 892 531 l 958 549 l 999 560 l 1015 561 l 1015 85 l 1420 85 l 1420 1032 q 1427 1070 1420 1054 l 1438 1086 q 1453 1100 1443 1092 l 1466 1112 l 1475 1119 q 1501 1130 1484 1127 l 1501 0 l 932 0 "},"":{"x_min":-47,"x_max":269,"ha":253,"o":"m -47 0 l -47 83 l 186 83 l 186 465 q 194 500 186 484 q 203 516 198 511 l 219 531 l 228 540 l 241 551 l 254 556 l 269 561 l 269 0 l -47 0 m 72 678 l 155 678 l 134 691 q 106 741 106 711 q 110 765 106 758 q 118 783 112 775 q 137 802 125 790 q 185 816 159 816 l 233 816 l 255 816 l 255 779 l 194 779 q 156 773 167 779 q 141 755 146 767 l 139 744 q 169 697 139 720 q 208 678 194 678 l 269 678 q 265 661 269 669 q 254 648 263 652 q 236 644 245 644 l 224 644 l 72 644 l 72 678 "},"":{"x_min":85,"x_max":418.65625,"ha":377,"o":"m 418 0 l 118 0 l 118 1130 q 131 1125 123 1130 l 142 1121 l 166 1100 l 178 1087 l 188 1071 q 195 1052 192 1064 q 199 1032 199 1040 l 199 83 l 418 83 l 418 0 m 86 -203 l 165 -203 l 146 -189 q 118 -138 118 -167 q 122 -117 118 -126 q 151 -81 126 -96 q 196 -67 172 -67 l 245 -67 l 266 -67 l 266 -104 l 206 -104 q 189 -104 195 -104 l 172 -107 q 160 -114 164 -109 l 152 -127 l 152 -139 q 181 -185 152 -164 q 219 -203 204 -203 l 281 -203 q 263 -235 281 -222 q 247 -239 259 -237 l 236 -239 l 85 -239 l 86 -203 "},"":{"x_min":106,"x_max":482.171875,"ha":540,"o":"m 482 -331 l 106 -331 l 106 817 l 482 817 l 482 771 l 208 771 l 208 -284 l 482 -284 l 482 -331 "},"":{"x_min":58.671875,"x_max":386.234375,"ha":387,"o":"m 386 -192 q 384 -201 386 -199 q 380 -205 383 -203 q 369 -214 377 -208 l 351 -233 l 334 -258 q 319 -272 327 -272 q 308 -269 315 -272 q 293 -266 301 -267 q 277 -265 285 -265 l 79 -265 q 58 -254 58 -265 q 60 -245 58 -248 l 75 -231 l 93 -213 q 101 -202 96 -209 q 110 -187 104 -198 q 125 -176 117 -176 q 138 -179 129 -176 l 167 -182 l 365 -182 q 386 -192 386 -182 m 386 -330 q 384 -339 386 -336 l 370 -353 l 351 -371 l 334 -396 q 319 -410 329 -407 l 306 -406 q 277 -403 296 -403 l 79 -403 q 58 -392 58 -403 q 60 -383 58 -386 l 75 -369 q 83 -361 79 -365 q 93 -350 87 -358 q 101 -339 95 -346 q 110 -325 106 -331 q 125 -313 117 -313 q 139 -316 129 -313 q 167 -320 148 -320 l 365 -320 q 386 -330 386 -320 "},"":{"x_min":107,"x_max":290.25,"ha":386,"o":"m 290 -3 q 269 -52 290 -32 q 219 -73 248 -73 q 138 -26 170 -73 q 107 90 107 19 q 136 214 107 157 q 225 316 166 272 l 241 293 q 171 201 191 240 q 152 116 152 162 q 152 98 152 104 q 158 76 153 91 q 170 54 163 60 l 192 63 q 220 69 206 69 q 270 47 250 69 q 290 -3 290 25 "},"":{"x_min":-29.15625,"x_max":273,"ha":339,"o":"m -29 0 l -29 83 l 190 83 l 190 1032 q 198 1070 190 1052 l 207 1084 q 223 1100 211 1090 l 237 1112 l 246 1119 q 273 1130 256 1126 l 273 0 l -29 0 "},"":{"x_min":76,"x_max":426.25,"ha":490,"o":"m 76 865 l 426 865 l 426 782 l 157 782 l 157 0 l 76 0 l 76 865 "},"":{"x_min":33.234375,"x_max":334,"ha":386,"o":"m 334 68 q 207 -245 334 -103 q 139 -311 172 -284 q 41 -380 110 -334 l 33 -371 l 65 -335 l 103 -291 q 207 -113 171 -205 q 244 65 244 -22 q 193 279 244 176 q 33 494 143 382 l 44 503 q 146 429 114 456 q 215 361 179 401 q 304 220 276 290 q 326 147 319 184 q 334 68 334 110 "},"":{"x_min":-30,"x_max":526.109375,"ha":642,"o":"m -30 83 l 354 83 l 364 83 q 378 87 374 83 l 381 103 l 371 128 l 327 247 q 284 351 303 313 q 226 440 255 409 q 193 459 215 455 l 159 465 l 124 465 l 108 465 l 108 563 l 123 563 q 202 556 168 563 q 262 527 236 550 q 299 490 281 511 q 316 470 310 478 q 329 451 321 461 q 349 416 339 436 q 371 371 359 397 l 408 275 l 444 171 q 504 90 475 95 l 526 85 l 526 0 l -30 0 l -30 83 m 181 -152 l 198 -141 q 216 -138 204 -139 q 253 -153 238 -138 q 271 -191 268 -168 q 254 -225 271 -209 q 219 -242 238 -239 q 183 -225 199 -242 q 167 -187 167 -209 q 181 -152 167 -169 "},"":{"x_min":2,"x_max":974,"ha":952,"o":"m 240 510 q 275 525 257 525 q 311 508 298 525 q 328 472 328 492 q 311 437 328 454 q 278 421 299 425 q 240 437 257 421 q 226 475 226 453 q 240 510 226 492 m 891 83 l 891 465 q 899 500 891 484 q 908 516 903 511 l 924 531 l 933 540 l 946 551 l 959 556 l 974 561 l 974 0 l 627 0 l 627 -36 q 533 -253 627 -161 q 310 -345 439 -345 q 94 -253 187 -345 q 2 -36 2 -162 l 2 127 q 5 150 2 141 l 20 178 q 83 222 42 208 l 83 -37 q 151 -197 83 -130 q 229 -248 187 -231 q 317 -265 271 -265 q 478 -197 410 -265 q 529 -123 512 -163 q 546 -36 546 -83 l 546 310 l 546 346 q 550 375 546 362 q 574 420 554 398 l 584 431 l 597 442 l 627 456 l 627 83 l 891 83 m 625 780 q 660 795 642 795 q 696 778 683 795 q 713 742 713 762 q 696 707 713 724 q 663 691 684 695 q 625 707 642 691 q 611 745 611 723 q 625 780 611 762 m 772 780 q 807 795 789 795 q 843 778 830 795 q 860 742 860 762 q 843 707 860 724 q 810 691 831 695 q 772 707 789 691 q 758 745 758 723 q 772 780 758 762 "},"":{"x_min":-30,"x_max":871,"ha":987,"o":"m 181 -152 l 198 -141 q 216 -138 204 -139 q 253 -153 238 -138 q 271 -191 268 -168 q 254 -225 271 -209 q 219 -242 238 -239 q 183 -225 199 -242 q 167 -187 167 -209 q 181 -152 167 -169 m -30 0 l -30 83 l 354 83 l 364 83 q 379 87 376 83 q 383 96 383 91 l 381 101 l 371 127 l 354 171 l 327 245 q 284 349 302 312 q 256 397 270 376 q 226 437 241 418 q 187 457 214 451 l 157 460 l 124 463 l 108 463 l 108 561 l 123 561 q 206 554 168 561 q 263 525 236 550 q 329 449 300 492 q 339 433 331 447 q 349 414 344 423 l 372 369 l 409 273 l 445 169 q 505 89 477 92 l 555 83 l 790 83 l 790 464 q 797 499 790 485 l 807 515 l 821 531 l 831 540 l 842 549 q 856 556 847 553 l 871 561 l 871 0 l 554 0 l -30 0 m 542 815 l 559 826 q 577 830 565 828 q 614 814 599 830 q 632 776 629 800 q 615 742 632 758 q 580 726 599 728 q 544 742 560 726 q 528 780 528 758 q 542 815 528 798 "},"":{"x_min":57,"x_max":1036,"ha":1082,"o":"m 142 83 l 439 83 l 439 477 q 373 470 402 477 q 315 447 344 464 q 266 413 292 434 q 216 362 244 394 q 158 256 176 313 q 152 231 156 248 q 145 189 149 214 q 142 125 142 165 l 142 83 m 520 83 l 696 83 l 696 946 q 697 967 696 960 q 704 983 699 975 q 725 1014 712 1002 l 738 1025 l 749 1034 l 758 1039 l 777 1046 l 777 83 l 955 83 l 955 1067 q 990 1137 955 1109 l 1003 1150 q 1027 1166 1015 1158 q 1036 1163 1031 1164 l 1036 0 l 57 0 l 57 81 q 69 251 57 196 q 137 400 83 331 q 200 470 168 441 q 273 521 233 499 q 439 562 346 562 l 439 841 q 472 911 439 881 l 495 929 l 520 939 l 520 83 "},"":{"x_min":59,"x_max":444,"ha":445,"o":"m 417 1093 q 415 1083 417 1085 l 400 1070 q 391 1062 394 1065 q 382 1051 388 1059 q 374 1040 379 1047 q 365 1026 368 1032 q 350 1014 358 1014 l 337 1017 q 308 1021 326 1021 l 110 1021 q 89 1030 90 1021 q 90 1040 89 1039 l 105 1053 q 141 1099 124 1069 q 155 1111 147 1111 q 170 1107 160 1111 q 198 1104 179 1104 l 396 1104 q 417 1093 415 1104 m 417 955 q 415 945 417 947 l 401 933 q 364 887 380 914 q 350 876 358 876 q 337 878 344 876 q 324 882 330 881 q 308 883 318 883 l 110 883 q 89 892 89 883 q 90 903 89 900 l 105 915 q 141 962 126 934 q 155 974 147 974 q 169 970 160 974 l 198 966 l 396 966 q 417 955 417 966 m 444 771 q 439 763 442 766 q 437 752 437 761 l 437 705 q 409 624 437 649 q 320 600 381 600 l 312 600 q 273 604 287 600 q 249 618 259 608 q 219 605 239 611 q 199 601 209 602 q 173 600 188 600 q 86 624 111 600 q 59 723 59 651 l 59 823 q 67 842 59 839 q 73 836 71 838 l 80 828 q 92 816 84 824 q 104 804 96 812 l 131 783 q 144 771 141 777 q 140 764 142 766 q 136 753 138 763 l 136 724 q 142 685 136 694 q 173 677 152 677 q 210 719 210 677 l 210 823 q 218 842 210 839 q 224 836 222 838 l 232 828 l 262 800 l 284 782 q 294 771 292 777 q 289 764 292 766 q 287 753 287 763 l 287 705 q 294 682 287 688 q 324 677 301 677 q 342 678 336 677 q 352 685 348 680 q 360 724 360 693 l 360 823 q 368 842 360 839 q 372 839 370 841 q 376 835 374 838 l 382 828 q 394 816 386 824 q 406 804 398 812 l 433 783 q 444 771 442 777 "},"":{"x_min":-30,"x_max":757,"ha":745,"o":"m -30 83 l 160 83 l 160 235 q 194 307 160 275 q 243 334 218 327 l 243 83 l 417 83 l 417 343 q 425 379 417 361 l 435 396 q 448 410 440 405 l 458 422 l 470 431 l 482 437 l 498 440 l 498 83 l 676 83 l 676 463 q 709 533 676 502 l 720 544 l 725 546 q 757 561 737 553 l 757 0 l -30 0 l -30 83 "},"":{"x_min":-29.84375,"x_max":861,"ha":986,"o":"m -29 0 l -29 83 l 354 83 l 364 83 q 378 86 375 83 q 383 97 382 90 l 382 99 l 381 103 l 371 128 l 327 247 q 284 351 303 313 q 226 440 255 409 q 193 459 215 455 l 159 465 l 124 465 l 108 465 l 108 563 l 124 563 q 202 556 168 563 q 263 527 236 550 q 299 490 281 511 q 316 469 310 478 q 329 451 321 461 q 349 416 339 436 q 371 371 359 397 l 408 275 l 444 171 q 504 90 475 95 l 559 83 l 778 83 l 778 1032 q 781 1056 778 1045 l 786 1070 q 812 1100 793 1086 l 826 1112 l 835 1119 q 861 1130 845 1126 l 861 0 l 558 0 l -29 0 "},"":{"x_min":136,"x_max":254,"ha":386,"o":"m 254 95 q 237 53 254 71 q 195 36 220 36 q 152 53 170 36 q 136 95 136 72 q 152 138 136 120 q 191 157 168 157 q 236 139 218 157 q 254 95 254 121 "},"":{"x_min":55,"x_max":1209,"ha":1253,"o":"m 656 786 q 692 803 670 803 q 712 799 704 803 q 728 786 719 796 q 740 770 735 781 q 745 750 745 760 q 728 714 745 732 q 693 699 715 699 q 656 714 671 699 q 639 751 642 728 q 656 786 639 769 m 55 83 l 230 83 l 230 1028 q 239 1066 230 1048 l 262 1096 q 311 1126 279 1117 l 311 445 l 954 445 q 1093 398 1033 445 q 1144 348 1122 377 q 1183 283 1167 318 q 1205 214 1199 248 l 1209 180 l 1209 135 l 1209 83 l 1209 0 l 55 0 l 55 83 m 313 83 l 1126 83 l 1126 138 l 1126 160 l 1126 170 l 1127 183 l 1127 194 q 1127 202 1127 198 q 1126 209 1126 207 l 1126 225 l 1113 264 q 1051 338 1087 314 q 1012 356 1034 349 q 966 364 989 364 l 313 364 l 313 83 "},"":{"x_min":-3,"x_max":232,"ha":179,"o":"m -3 0 l -3 64 l 232 64 l 232 0 l -3 0 "},"":{"x_min":-30,"x_max":871,"ha":987,"o":"m -30 0 l -30 83 l 354 83 l 364 83 q 379 87 376 83 q 383 96 383 91 l 381 101 l 371 127 l 354 171 l 327 245 q 284 349 302 312 q 255 397 270 376 q 226 437 241 418 q 186 457 214 451 l 156 460 l 124 463 l 108 463 l 108 561 l 123 561 q 206 554 168 561 q 263 525 236 550 q 329 449 300 492 q 339 433 331 447 q 349 414 344 423 l 372 369 l 409 273 l 445 169 q 505 89 477 92 l 555 83 l 790 83 l 790 464 q 797 499 790 485 l 807 515 l 821 531 l 831 540 l 842 549 q 856 556 847 553 l 871 561 l 871 0 l 554 0 l -30 0 m 542 815 l 559 826 q 577 830 565 828 q 614 814 599 830 q 632 776 629 800 q 615 742 632 758 q 580 726 599 728 q 544 742 560 726 q 528 780 528 758 q 542 815 528 798 m 118 815 l 135 826 q 153 830 141 828 q 190 814 175 830 q 208 776 205 800 q 191 742 208 758 q 156 726 175 728 q 120 742 136 726 q 104 780 104 758 q 118 815 104 798 "},"":{"x_min":-29.15625,"x_max":527.609375,"ha":627,"o":"m 159 730 q 175 740 166 736 q 194 745 183 745 q 214 741 206 745 q 232 728 221 739 q 249 690 249 713 q 234 656 249 674 q 198 642 217 642 q 162 658 178 642 q 146 696 146 674 q 159 730 146 716 m -29 83 l 355 83 l 368 83 q 380 87 377 83 q 385 97 383 91 l 382 103 l 373 128 l 307 300 q 272 379 292 345 q 226 439 252 412 q 187 459 214 454 q 127 465 161 465 l 110 465 l 110 563 l 124 563 q 148 563 137 563 q 172 563 160 563 q 207 557 189 563 q 238 547 226 554 q 264 529 250 541 q 301 491 283 512 q 330 452 314 477 q 351 416 343 434 l 372 372 l 409 276 l 446 172 q 504 91 475 95 l 527 85 l 527 0 l -29 0 l -29 83 "},"":{"x_min":-31.203125,"x_max":1333,"ha":1447,"o":"m -31 0 l -31 83 l 1252 83 l 1252 164 l 1252 178 q 1247 226 1252 206 l 1245 240 q 1234 268 1243 253 q 1173 340 1212 311 q 1132 359 1154 353 q 1087 366 1110 366 l 145 366 l 131 366 q 118 368 122 366 q 108 374 113 368 l 104 386 q 112 406 104 394 q 128 420 117 413 l 741 864 l 415 530 l 398 514 l 385 502 q 368 471 368 485 q 371 459 368 462 l 383 451 l 406 451 l 423 451 l 1080 451 q 1219 403 1158 451 q 1244 381 1231 394 q 1267 353 1257 367 q 1310 283 1290 323 l 1321 253 l 1329 217 q 1332 186 1332 200 q 1333 158 1333 171 l 1333 128 l 1333 98 l 1333 88 l 1333 0 l -31 0 "},"":{"x_min":81,"x_max":345,"ha":339,"o":"m 345 -339 l 81 -339 q 114 -286 87 -308 l 131 -272 l 148 -263 l 167 -258 l 186 -256 l 260 -256 l 260 348 q 266 378 260 366 q 272 392 267 384 q 282 406 276 399 q 287 413 284 410 q 294 419 291 416 l 309 431 q 345 446 327 441 l 345 -339 "},"":{"x_min":40,"x_max":417,"ha":583,"o":"m 408 83 l 408 0 l 178 0 q 106 9 132 0 q 53 51 73 21 l 45 69 l 42 83 l 40 101 q 56 160 40 128 q 99 214 70 189 l 334 420 l 144 553 q 91 605 115 572 l 74 632 q 70 641 73 635 q 63 663 67 648 l 63 682 q 134 797 63 744 q 288 853 207 853 l 399 853 l 399 770 l 296 770 q 191 748 238 770 q 135 681 135 722 q 137 664 135 668 q 146 642 138 654 q 154 633 149 638 q 166 622 158 628 l 213 591 l 347 490 l 417 452 l 416 402 l 185 200 l 155 175 l 137 159 q 112 113 115 137 q 120 95 112 103 l 127 89 l 137 85 l 146 85 l 157 85 l 170 85 l 186 85 l 408 83 "},"":{"x_min":63,"x_max":1020,"ha":1153,"o":"m 285 83 l 582 83 l 582 473 q 458 444 511 473 q 359 359 405 416 q 299 252 314 303 q 285 121 285 200 l 285 83 m 144 0 l 144 -345 l 63 -345 l 63 83 l 201 83 l 201 121 q 217 269 201 206 q 280 395 233 332 q 427 520 341 479 q 517 549 468 538 q 622 560 566 560 l 665 560 l 665 83 l 939 83 l 939 1029 q 946 1067 939 1050 l 956 1083 q 964 1091 959 1087 q 972 1097 969 1095 l 985 1109 l 994 1116 l 1013 1130 l 1020 1127 l 1020 0 l 144 0 "},"":{"x_min":87,"x_max":619.03125,"ha":586,"o":"m 87 961 l 171 989 l 171 95 l 87 95 l 87 961 m 619 0 l 503 0 l 503 -164 q 442 -289 503 -237 q 302 -341 381 -341 q 153 -291 220 -341 q 87 -164 87 -241 l 87 -91 l 171 -91 l 171 -164 q 179 -201 171 -185 q 208 -232 187 -218 q 289 -256 244 -256 q 375 -232 341 -256 q 415 -164 415 -206 l 415 1130 l 498 1130 l 498 83 l 619 83 l 619 0 m 351 1047 q 315 1015 335 1027 q 298 1009 310 1011 l 275 1005 l 267 1005 l 245 1013 l 208 1033 q 170 1047 186 1047 q 89 1015 127 1047 l 89 1098 q 170 1130 128 1130 q 219 1109 187 1130 q 245 1094 232 1100 l 267 1088 l 294 1088 q 313 1095 303 1089 q 325 1102 320 1099 q 336 1113 330 1106 l 351 1130 l 351 1047 "},"":{"x_min":-66,"x_max":613.515625,"ha":574,"o":"m -66 83 l 410 83 l 410 152 l 264 152 q 122 208 185 152 q 60 347 60 265 q 74 429 60 392 q 119 499 88 465 q 264 565 179 565 l 493 565 l 493 83 l 613 83 l 613 0 l -66 0 l -66 83 m 281 833 l 289 839 q 298 845 292 843 l 316 848 q 355 831 337 848 q 371 793 367 816 q 355 758 371 774 q 319 745 340 745 q 282 759 298 745 q 267 797 267 773 q 270 817 267 808 q 281 833 273 825 m 410 477 l 281 477 q 189 438 231 477 q 152 348 152 402 q 190 270 152 302 q 281 239 229 239 l 410 239 l 410 477 "},"":{"x_min":58.671875,"x_max":386.234375,"ha":387,"o":"m 386 1087 q 384 1077 386 1079 l 369 1064 l 351 1045 q 344 1036 348 1041 q 334 1020 340 1030 q 319 1008 328 1008 q 306 1011 315 1008 l 277 1015 l 79 1015 q 58 1023 59 1015 q 60 1034 58 1032 l 75 1046 l 110 1091 q 125 1104 117 1104 q 138 1101 129 1104 q 151 1099 143 1100 q 167 1098 159 1098 l 365 1098 q 386 1087 386 1098 "},"":{"x_min":45,"x_max":451,"ha":548,"o":"m 370 361 l 231 361 q 198 361 208 361 q 173 366 187 362 q 148 373 158 369 q 124 386 137 377 q 54 469 78 413 q 50 480 53 473 q 47 494 48 488 l 45 519 q 55 573 45 545 q 88 634 65 602 q 112 667 95 646 l 134 694 q 197 758 162 727 q 230 784 212 770 q 271 812 249 797 q 417 867 354 867 l 451 867 l 451 2 l 370 2 l 370 361 m 370 751 l 346 751 q 272 729 307 751 q 198 661 238 707 l 175 631 l 160 608 q 141 546 141 572 q 145 517 141 531 q 188 464 159 483 q 204 457 196 460 q 221 451 206 456 q 258 447 239 447 l 370 447 l 370 751 "},"":{"x_min":49,"x_max":1203,"ha":1185,"o":"m 49 83 l 224 83 l 224 1028 q 233 1066 224 1048 l 256 1096 q 305 1126 273 1117 l 305 445 l 948 445 q 1087 398 1027 445 q 1138 348 1116 377 q 1177 283 1161 318 q 1199 214 1193 248 l 1203 180 l 1203 135 l 1203 83 l 1203 0 l 49 0 l 49 83 m 307 83 l 1120 83 l 1120 138 l 1120 160 l 1120 170 l 1121 183 l 1121 194 q 1121 202 1121 198 q 1120 209 1120 207 l 1120 225 l 1107 264 q 1045 338 1081 314 q 1006 356 1028 349 q 960 364 983 364 l 307 364 l 307 83 "},"":{"x_min":0,"x_max":1478,"ha":1462,"o":"m 1395 83 l 1395 465 l 1397 483 l 1403 499 q 1412 516 1407 510 l 1427 531 l 1437 540 l 1450 551 l 1463 556 l 1478 561 l 1478 0 l 1135 0 l 932 0 l 932 440 q 910 435 921 438 q 894 429 899 431 l 865 419 q 751 363 788 392 q 657 265 689 320 q 626 131 626 209 l 626 -36 q 532 -253 626 -161 q 310 -345 438 -345 q 92 -253 185 -345 q 0 -36 0 -162 l 0 115 q 1 127 0 123 q 5 139 2 131 l 11 152 l 20 166 q 81 210 42 198 l 81 -37 q 150 -199 81 -128 q 227 -248 185 -231 q 316 -265 269 -265 q 477 -197 409 -265 q 527 -123 509 -165 q 545 -36 545 -82 l 545 142 q 590 314 545 238 q 715 449 627 379 q 834 512 757 484 l 892 531 l 953 548 l 998 558 l 1015 561 l 1015 83 l 1395 83 m 176 -363 q 192 -355 183 -358 l 210 -353 q 249 -365 234 -353 q 267 -396 267 -381 l 267 -404 q 263 -411 264 -409 q 250 -423 258 -418 q 234 -431 245 -427 l 216 -436 q 196 -432 206 -436 q 176 -422 185 -429 q 159 -391 159 -408 q 176 -363 159 -376 m 386 -363 q 402 -355 393 -358 l 420 -353 q 458 -365 442 -353 q 467 -380 461 -367 q 475 -396 470 -388 q 459 -423 475 -411 q 424 -436 443 -436 q 405 -431 415 -436 l 386 -422 l 373 -407 q 369 -391 369 -400 q 373 -376 369 -383 q 386 -363 377 -370 m 1292 1053 q 1310 1063 1301 1059 q 1327 1069 1319 1067 q 1365 1054 1344 1069 q 1370 1034 1368 1050 l 1372 1001 l 1372 985 l 1363 982 q 1347 970 1354 974 q 1327 966 1339 966 q 1308 970 1317 966 q 1292 981 1300 974 q 1277 1017 1277 998 q 1292 1053 1277 1038 "},"":{"x_min":2,"x_max":627,"ha":746,"o":"m 627 -36 q 533 -253 627 -161 q 310 -345 439 -345 q 94 -253 187 -345 q 2 -36 2 -162 l 2 127 q 5 150 2 141 l 20 178 q 83 222 42 208 l 83 -37 q 151 -197 83 -130 q 229 -248 187 -231 q 317 -265 271 -265 q 478 -197 410 -265 q 529 -123 512 -163 q 546 -37 546 -83 l 546 982 l 546 1018 q 550 1047 546 1033 q 574 1090 554 1066 q 595 1111 582 1102 q 627 1126 609 1119 l 627 -36 "},"":{"x_min":70,"x_max":334,"ha":312,"o":"m 240 698 l 256 709 l 266 712 q 275 712 272 712 q 313 697 295 712 q 330 661 327 683 q 314 627 330 643 q 278 608 299 611 q 242 625 258 608 q 226 663 226 639 q 229 682 226 674 q 240 698 233 691 m 334 -339 l 70 -339 q 82 -308 74 -323 q 103 -285 91 -295 q 137 -261 119 -271 l 154 -256 l 175 -256 l 249 -256 l 249 348 l 249 364 q 253 379 249 368 l 260 392 q 270 406 265 402 l 283 419 l 297 429 l 316 439 l 334 446 l 334 -339 "},"":{"x_min":2,"x_max":1117,"ha":1238,"o":"m 1117 0 l 626 0 l 626 -36 q 532 -254 626 -162 q 310 -346 438 -346 q 95 -254 188 -346 q 2 -36 2 -162 l 2 114 q 6 138 2 126 l 12 150 l 21 165 q 85 209 46 198 l 85 -38 q 154 -199 85 -129 q 318 -265 221 -265 q 477 -199 412 -265 q 528 -124 511 -164 q 545 -38 545 -84 l 545 465 q 545 480 545 473 q 551 498 546 488 q 561 515 556 508 q 575 532 566 522 l 585 541 l 599 550 l 612 556 l 626 561 l 626 445 l 863 445 q 1002 398 941 445 q 1052 349 1029 379 q 1095 280 1075 319 q 1106 250 1100 269 q 1114 219 1112 232 l 1117 192 l 1117 151 l 1117 141 l 1117 132 l 1117 122 l 1117 92 l 1117 83 l 1117 0 m 626 83 l 1032 83 l 1032 139 l 1032 165 l 1032 192 l 1032 202 q 1028 228 1032 219 q 1016 264 1026 244 q 957 337 994 311 q 871 364 920 364 l 627 364 l 626 83 "},"":{"x_min":90.203125,"x_max":558,"ha":642,"o":"m 558 0 l 90 0 q 96 31 90 17 q 118 59 103 46 l 132 68 l 147 77 l 166 81 l 181 81 l 475 81 l 475 256 q 468 347 475 316 q 464 359 466 354 q 459 370 462 364 q 453 382 456 376 q 443 397 450 388 q 298 477 388 477 l 175 477 l 150 477 q 132 483 144 478 q 103 513 114 494 q 90 558 90 534 l 286 558 q 420 532 360 558 q 517 452 475 510 q 551 366 541 411 q 558 268 558 331 l 558 0 "},"":{"x_min":2,"x_max":793,"ha":791,"o":"m 793 560 l 793 0 l 2 0 l 2 354 q 8 385 2 369 l 15 398 l 28 415 q 53 436 38 427 q 71 444 61 440 q 85 449 74 446 l 85 83 l 709 83 l 709 465 q 718 503 709 486 q 740 531 721 512 l 749 540 l 764 549 q 793 560 774 556 m 254 619 q 287 633 268 633 q 326 616 310 633 q 341 578 341 599 q 338 559 341 567 q 324 541 334 551 q 291 528 311 528 q 253 544 270 528 q 242 560 246 551 l 237 582 l 237 592 l 239 601 l 245 611 l 254 619 m 462 619 q 496 633 476 633 q 514 629 506 633 q 533 616 522 625 q 551 576 551 596 q 534 541 551 559 q 503 528 521 528 q 463 545 480 528 q 447 585 447 562 q 450 603 447 596 q 462 619 453 610 "},"":{"x_min":110,"x_max":524,"ha":627,"o":"m 196 -91 l 196 -161 q 231 -230 196 -204 q 315 -256 267 -256 q 402 -233 364 -256 q 432 -203 422 -220 q 443 -162 443 -186 l 443 1131 l 524 1131 l 524 -161 q 466 -288 524 -238 q 326 -339 408 -339 q 177 -291 238 -339 q 110 -161 110 -240 l 110 -90 l 196 -91 m 110 884 l 191 884 l 191 95 l 110 94 l 110 884 m 376 1047 q 340 1015 360 1028 q 322 1009 335 1012 l 300 1005 l 293 1005 l 271 1013 l 232 1035 q 194 1048 210 1048 q 113 1016 151 1048 l 113 1099 q 194 1131 152 1131 q 245 1110 214 1131 q 293 1088 270 1091 l 319 1088 q 335 1093 327 1089 q 347 1101 342 1098 q 355 1109 351 1104 l 376 1131 l 376 1047 "},"":{"x_min":2,"x_max":1192,"ha":1311,"o":"m 1109 85 l 1109 1032 q 1116 1067 1109 1051 q 1143 1100 1123 1083 l 1166 1119 q 1192 1130 1174 1125 l 1192 0 l 849 0 l 250 0 q 133 -46 184 0 q 83 -156 83 -92 q 133 -289 83 -230 q 190 -330 159 -316 q 259 -345 221 -345 l 523 -345 l 523 -357 q 492 -417 523 -392 l 484 -421 l 476 -424 l 466 -426 l 455 -426 l 437 -426 l 418 -426 l 254 -426 q 76 -345 151 -426 q 2 -156 2 -265 q 77 10 2 -61 q 254 83 152 83 l 559 83 l 570 83 q 585 87 580 83 l 587 90 l 589 96 l 585 103 l 575 128 l 558 173 l 532 246 q 489 351 508 312 q 431 439 461 405 q 391 459 419 454 q 330 465 364 465 l 313 465 l 313 563 l 328 563 q 351 563 341 563 q 375 563 362 563 q 410 557 392 563 q 428 554 422 555 q 442 548 434 552 q 467 528 454 543 q 504 491 485 512 q 535 452 520 474 l 560 408 l 577 372 l 615 275 q 650 171 649 172 q 708 90 679 95 l 731 85 l 852 85 l 1109 85 m 354 834 q 390 850 369 850 q 428 833 410 850 q 445 796 440 822 q 428 761 445 778 q 392 746 416 750 q 373 750 384 746 q 356 761 365 754 q 340 799 340 778 q 354 834 340 820 "},"":{"x_min":40,"x_max":969,"ha":1111,"o":"m 262 83 l 559 83 l 559 478 q 492 471 521 478 q 434 449 461 465 q 384 414 409 436 q 337 366 361 396 q 316 337 327 353 q 299 311 308 325 q 276 257 285 286 q 262 127 262 201 l 262 83 m 626 1007 q 662 1024 644 1021 q 699 1009 680 1024 q 714 972 714 993 q 710 953 714 960 q 697 937 707 946 q 662 921 682 921 q 643 925 651 921 q 626 935 635 929 q 612 972 612 952 q 626 1007 612 992 m 886 83 l 886 457 l 888 474 l 894 492 q 918 524 900 506 q 941 542 928 535 q 969 553 950 549 l 969 0 l 123 0 l 123 -339 l 40 -339 l 40 83 l 178 83 l 178 127 q 182 206 178 171 q 194 276 186 240 q 256 402 210 336 q 404 525 319 484 q 599 565 490 565 l 642 565 l 642 83 l 886 83 m 850 1023 q 886 1040 865 1036 q 909 1033 896 1040 l 923 1024 q 938 987 938 1008 q 934 967 938 976 q 921 952 931 959 q 886 936 907 936 q 867 939 875 936 q 850 951 860 942 q 836 987 836 966 q 850 1023 836 1008 "},"":{"x_min":47,"x_max":512,"ha":597,"o":"m 186 721 l 266 721 q 257 726 261 723 q 247 734 253 729 q 219 783 219 755 q 222 806 219 797 q 249 842 229 827 q 298 857 269 857 l 347 857 l 367 857 l 367 820 l 307 820 q 283 818 290 820 q 269 813 275 817 q 255 799 259 809 l 253 785 q 283 737 253 761 l 305 725 q 320 721 313 721 l 383 721 q 365 687 383 701 l 355 685 l 347 685 l 336 685 l 185 685 l 186 721 m 429 -260 l 429 0 l 47 0 l 47 78 q 57 248 47 198 q 126 397 74 328 q 274 520 188 480 q 471 560 360 560 l 512 560 l 512 -341 l 49 -341 q 59 -312 51 -326 q 83 -287 67 -299 q 116 -266 97 -273 q 153 -260 132 -260 l 429 -260 m 131 83 l 429 83 l 429 473 q 305 444 357 473 q 206 359 252 416 q 169 305 185 331 q 157 282 162 293 q 148 253 152 270 q 135 192 141 227 q 132 158 133 175 q 131 121 131 140 l 131 83 "},"":{"x_min":2,"x_max":627,"ha":608,"o":"m 627 -36 q 533 -253 627 -161 q 310 -345 439 -345 q 94 -253 187 -345 q 2 -36 2 -162 l 2 127 q 5 150 2 141 l 20 178 q 83 222 42 208 l 83 -37 q 151 -197 83 -130 q 229 -248 187 -231 q 317 -265 271 -265 q 478 -197 410 -265 q 529 -123 512 -163 q 546 -36 546 -83 l 546 310 l 546 346 q 550 375 546 362 q 574 420 554 398 l 584 431 l 597 442 l 627 456 l 627 -36 m 240 510 q 275 525 257 525 q 311 508 298 525 q 328 472 328 492 q 311 437 328 454 q 278 421 299 425 q 240 437 257 421 q 226 475 226 453 q 240 510 226 492 "},"":{"x_min":-30,"x_max":965,"ha":1051,"o":"m 226 85 l 519 85 l 519 470 q 395 443 449 470 q 296 356 344 414 q 237 250 253 304 q 226 191 231 228 q 222 162 223 174 q 220 137 220 149 q 220 128 220 132 q 222 118 222 121 l 226 85 m 882 85 l 882 1032 q 890 1070 882 1052 l 899 1084 q 915 1100 903 1090 l 929 1112 l 938 1119 q 965 1130 948 1126 l 965 0 l 602 0 l -30 0 l -30 85 l 138 85 l 138 124 q 142 203 138 168 q 154 273 146 239 q 216 399 170 332 q 364 524 280 484 q 454 551 405 541 q 559 561 503 561 l 602 561 l 602 85 l 882 85 "},"":{"x_min":59,"x_max":444,"ha":445,"o":"m 345 1026 q 311 958 345 993 l 345 934 l 309 915 l 284 931 l 259 908 l 239 894 l 198 870 q 174 860 180 860 q 164 868 164 860 l 164 887 q 179 905 164 900 q 200 916 197 914 q 215 927 203 918 q 249 958 234 942 q 216 989 228 972 q 210 1005 213 995 q 207 1026 207 1015 q 226 1077 207 1057 q 276 1097 245 1097 q 325 1077 305 1097 q 345 1026 345 1057 m 444 772 q 439 766 442 767 q 437 754 437 764 l 437 707 q 409 626 437 651 q 320 602 382 602 l 312 602 q 272 606 287 602 q 259 611 263 609 q 249 620 255 614 q 219 607 237 612 q 173 602 202 602 q 85 627 111 602 q 59 725 59 652 l 59 825 q 67 843 59 842 q 73 838 71 840 l 80 830 l 104 806 l 131 785 q 144 772 141 778 l 140 766 q 136 755 138 765 l 136 725 q 142 686 136 696 q 173 678 151 678 q 210 721 210 678 l 210 825 q 218 843 210 842 q 224 838 222 840 l 232 830 l 262 802 l 284 783 q 294 772 292 778 q 290 766 292 767 q 287 755 287 765 l 287 707 q 294 683 287 689 q 324 678 302 678 q 352 687 345 678 q 360 725 360 695 l 360 825 q 368 843 360 842 q 372 841 370 842 q 376 836 374 839 l 382 830 l 406 806 l 433 785 q 444 772 442 779 m 299 1029 q 276 1053 299 1053 q 256 1029 256 1053 q 260 1010 256 1017 q 278 992 265 1003 q 288 1001 283 996 q 295 1011 292 1006 q 299 1029 297 1015 "},"":{"x_min":-12,"x_max":1142,"ha":1124,"o":"m 589 786 q 625 803 603 803 q 645 799 637 803 q 661 786 652 796 q 673 770 668 781 q 678 750 678 760 q 661 714 678 732 q 626 699 648 699 q 589 714 604 699 q 572 751 575 728 q 589 786 572 769 m -12 83 l 163 83 l 163 1028 q 172 1066 163 1048 l 195 1096 q 244 1126 212 1117 l 244 445 l 887 445 q 1026 398 966 445 q 1077 348 1055 377 q 1116 283 1100 318 q 1138 214 1132 248 l 1142 180 l 1142 135 l 1142 83 l 1142 0 l -12 0 l -12 83 m 246 83 l 1059 83 l 1059 138 l 1059 160 l 1059 170 l 1060 183 l 1060 194 q 1060 202 1060 198 q 1059 209 1059 207 l 1059 225 l 1046 264 q 984 338 1020 314 q 945 356 967 349 q 899 364 922 364 l 246 364 l 246 83 "},"":{"x_min":2,"x_max":1117,"ha":1168,"o":"m 750 794 q 767 807 758 802 l 778 810 l 786 810 q 822 793 806 810 q 839 757 836 779 q 822 720 839 739 q 807 708 816 712 l 788 704 q 750 721 767 704 q 740 739 744 730 q 736 759 736 749 q 750 794 736 779 m 1117 0 l 626 0 l 626 -36 q 532 -254 626 -162 q 310 -346 438 -346 q 95 -254 188 -346 q 2 -36 2 -162 l 2 114 q 6 138 2 126 l 12 150 l 21 165 q 85 209 46 198 l 85 -38 q 154 -199 85 -129 q 318 -265 221 -265 q 477 -199 412 -265 q 528 -124 511 -164 q 545 -38 545 -85 l 545 465 q 545 480 545 472 q 551 497 546 487 q 561 514 556 507 q 575 531 566 522 l 585 540 l 599 550 l 612 556 l 626 560 l 626 445 l 863 445 q 1002 398 941 445 q 1052 349 1029 379 q 1095 280 1075 319 q 1106 250 1100 269 q 1114 219 1112 232 l 1117 192 l 1117 151 l 1117 141 l 1117 132 l 1117 122 l 1117 92 l 1117 83 l 1117 0 m 626 83 l 1032 83 l 1032 138 l 1032 164 l 1032 191 l 1032 201 q 1028 227 1032 218 q 1016 264 1026 243 q 957 337 994 311 q 871 364 920 364 l 627 364 l 626 83 "},"":{"x_min":97,"x_max":512,"ha":612,"o":"m 184 -91 l 184 -161 q 191 -199 184 -181 q 218 -230 199 -216 q 302 -256 254 -256 q 389 -233 350 -256 q 429 -162 429 -205 l 429 1131 l 512 1131 l 512 -161 q 454 -288 512 -237 q 314 -339 396 -339 q 164 -291 226 -339 q 97 -161 97 -240 l 97 -90 l 184 -91 m 97 1131 l 180 1131 l 180 95 l 97 94 l 97 1131 "},"":{"x_min":2,"x_max":853.78125,"ha":814,"o":"m 362 731 q 377 742 368 738 q 398 746 387 746 q 417 742 410 746 q 435 729 425 740 q 451 693 451 715 q 436 658 451 673 q 401 643 421 643 q 364 659 381 643 q 348 697 348 676 q 350 713 348 708 l 354 722 l 362 731 m 853 0 l 250 0 q 133 -46 184 0 q 83 -156 83 -92 q 133 -289 83 -230 q 190 -330 159 -316 q 259 -345 221 -345 l 523 -345 l 523 -357 q 492 -417 523 -392 l 484 -421 l 476 -424 l 466 -426 l 455 -426 l 437 -426 l 418 -426 l 254 -426 q 76 -345 151 -426 q 2 -156 2 -265 q 77 10 2 -61 q 254 83 152 83 l 559 83 l 570 83 q 585 87 580 83 l 587 90 l 589 96 l 585 103 l 575 128 l 558 173 l 532 246 q 489 351 508 312 q 431 439 461 405 q 391 459 419 454 q 330 465 364 465 l 313 465 l 313 563 l 328 563 q 351 563 341 563 q 374 563 362 563 q 410 557 392 563 q 428 554 422 555 q 442 548 433 552 q 467 528 454 543 q 504 491 485 512 q 535 452 520 474 l 560 408 l 577 372 l 615 275 q 650 171 648 172 q 708 90 679 95 l 731 85 l 852 85 l 853 0 "},"":{"x_min":-30,"x_max":1183,"ha":1274,"o":"m 226 83 l 519 83 l 519 470 q 395 443 449 470 q 296 356 344 414 q 236 250 253 304 q 226 193 231 228 q 222 118 222 158 l 226 83 m 1005 83 l 1021 81 q 1035 85 1030 81 q 1040 96 1039 89 l 1037 101 l 1028 127 l 983 245 q 941 349 959 314 q 883 437 916 400 q 843 457 870 451 l 813 460 l 781 463 l 765 463 l 765 561 l 779 561 q 863 554 825 561 q 919 525 891 550 q 986 449 957 491 q 995 433 987 446 q 1005 414 1001 423 l 1028 369 l 1064 273 l 1101 168 q 1161 89 1133 91 l 1183 83 l 1183 0 l 626 0 l -30 0 l -30 83 l 138 83 l 138 123 q 142 203 138 167 q 154 272 146 238 q 216 399 169 332 q 364 523 280 483 q 454 550 405 540 q 559 561 503 561 l 602 561 l 602 83 l 1005 83 "},"":{"x_min":0,"x_max":1478,"ha":1462,"o":"m 1097 1053 q 1134 1069 1113 1065 q 1170 1054 1150 1069 q 1177 1029 1174 1049 l 1177 985 l 1167 982 q 1152 969 1159 974 q 1133 966 1144 966 q 1098 981 1113 966 q 1083 1017 1083 996 q 1097 1053 1083 1038 m 1395 83 l 1395 465 l 1397 483 l 1403 499 q 1412 516 1407 510 l 1427 531 l 1437 540 l 1450 551 l 1463 556 l 1478 561 l 1478 0 l 1135 0 l 932 0 l 932 440 q 910 435 921 438 q 894 429 899 431 l 865 419 q 751 363 788 392 q 657 265 689 320 q 626 131 626 209 l 626 -36 q 532 -253 626 -161 q 310 -345 438 -345 q 92 -253 185 -345 q 0 -36 0 -162 l 0 115 q 1 127 0 123 q 5 139 2 131 l 11 152 l 20 166 q 81 210 42 198 l 81 -37 q 150 -199 81 -128 q 227 -248 185 -231 q 316 -265 269 -265 q 477 -197 409 -265 q 527 -123 509 -165 q 545 -36 545 -82 l 545 142 q 590 314 545 238 q 715 449 627 379 q 834 512 757 484 l 892 531 l 953 548 l 998 558 l 1015 561 l 1015 83 l 1395 83 m 1291 1053 q 1309 1063 1300 1059 q 1327 1069 1318 1067 q 1365 1054 1343 1069 q 1370 1034 1368 1050 l 1372 1001 l 1372 985 l 1362 982 q 1346 970 1354 974 q 1327 966 1338 966 q 1307 970 1316 966 q 1291 981 1299 974 q 1276 1017 1276 998 q 1291 1053 1276 1038 m 176 -363 q 192 -355 183 -358 l 210 -353 q 249 -365 234 -353 q 267 -396 267 -381 l 267 -404 q 263 -411 264 -409 q 250 -423 258 -418 q 234 -431 245 -427 l 216 -436 q 196 -432 206 -436 q 176 -422 185 -429 q 159 -391 159 -408 q 176 -363 159 -376 m 386 -363 q 402 -355 393 -358 l 420 -353 q 458 -365 442 -353 q 467 -380 461 -367 q 475 -396 470 -388 q 459 -423 475 -411 q 424 -436 443 -436 q 405 -431 415 -436 l 386 -422 l 373 -407 q 369 -391 369 -400 q 373 -376 369 -383 q 386 -363 377 -370 "},"":{"x_min":222.4375,"x_max":514.046875,"ha":772,"o":"m 514 121 q 457 -99 514 1 q 424 -151 443 -124 q 381 -204 405 -177 q 264 -318 334 -259 l 222 -274 q 348 -137 309 -196 q 402 25 402 -55 l 400 56 q 274 92 316 56 q 233 192 233 129 q 242 240 233 218 q 269 280 252 262 q 363 317 306 317 q 472 263 429 317 q 514 121 514 209 "},"":{"x_min":-7,"x_max":309,"ha":393,"o":"m 123 -155 q 158 -139 139 -141 q 195 -153 176 -139 q 210 -191 210 -168 q 206 -209 210 -201 q 193 -225 203 -216 q 158 -242 180 -242 q 139 -238 146 -242 q 123 -227 132 -236 q 108 -191 108 -213 q 111 -172 108 -179 q 123 -155 114 -164 m -7 0 l -7 83 l 226 83 l 226 464 q 234 499 226 483 q 243 516 238 510 l 259 531 l 268 539 l 281 550 l 294 556 l 309 561 l 309 0 l -7 0 "},"":{"x_min":-30,"x_max":871,"ha":987,"o":"m 181 -152 l 198 -141 q 216 -138 204 -139 q 253 -153 238 -138 q 271 -191 268 -168 q 254 -225 271 -209 q 219 -242 238 -239 q 183 -225 199 -242 q 167 -187 167 -209 q 181 -152 167 -169 m 513 839 l 530 850 q 548 854 536 852 q 585 838 570 854 q 603 800 600 824 q 586 766 603 782 q 551 750 570 752 q 515 766 531 750 q 499 804 499 782 q 513 839 499 822 m -30 0 l -30 83 l 354 83 l 365 83 q 379 88 374 83 q 384 98 384 93 l 381 103 l 371 127 l 354 171 l 327 245 q 284 349 303 312 q 256 397 270 376 q 226 437 242 418 q 187 457 214 451 l 157 460 l 124 463 l 108 463 l 108 561 l 123 561 q 206 554 168 561 q 263 525 236 550 q 329 449 300 492 q 339 433 331 447 q 349 414 344 423 l 372 369 l 409 273 l 445 169 q 505 89 477 92 l 555 83 l 790 83 l 790 464 q 797 499 790 485 l 807 515 l 821 531 l 831 540 l 842 549 q 856 556 847 553 l 871 561 l 871 0 l 554 0 l -30 0 m 656 839 l 673 850 q 691 854 679 852 q 728 838 713 854 q 746 800 743 824 q 729 766 746 782 q 694 750 713 752 q 658 766 674 750 q 642 804 642 782 q 656 839 642 822 "},"":{"x_min":-30,"x_max":871,"ha":987,"o":"m 684 -155 q 721 -139 701 -141 q 757 -153 737 -139 q 767 -170 763 -160 q 772 -191 772 -179 q 768 -209 772 -202 q 755 -225 766 -216 q 721 -242 741 -242 q 699 -238 705 -242 q 684 -227 693 -235 q 670 -191 670 -213 q 673 -171 670 -179 q 684 -155 676 -163 m 186 797 q 223 814 203 811 q 259 799 239 814 q 269 782 265 792 q 274 761 274 773 q 270 743 274 750 q 257 727 268 736 q 223 711 243 711 q 201 714 207 711 q 186 725 195 717 q 172 761 172 739 q 175 781 172 773 q 186 797 178 789 m -30 0 l -30 83 l 354 83 l 364 83 q 379 88 374 83 q 383 98 383 93 l 381 103 l 371 127 l 354 171 l 327 245 q 284 349 302 312 q 256 397 270 376 q 226 437 241 418 q 187 457 214 451 l 157 460 l 124 463 l 108 463 l 108 561 l 123 561 q 206 554 168 561 q 263 525 236 550 q 329 449 300 492 q 339 433 331 447 q 349 414 344 423 l 372 369 l 409 273 l 445 169 q 505 89 477 92 l 555 83 l 790 83 l 790 464 q 797 499 790 485 l 807 515 l 821 531 l 831 540 l 842 549 q 856 556 847 553 l 871 561 l 871 0 l 554 0 l -30 0 "},"":{"x_min":-30,"x_max":871,"ha":987,"o":"m -30 0 l -30 83 l 354 83 l 364 83 q 379 87 376 83 q 383 96 383 91 l 381 101 l 371 127 l 354 171 l 327 245 q 284 349 302 312 q 256 397 270 376 q 226 437 241 418 q 187 457 214 451 l 157 460 l 124 463 l 108 463 l 108 561 l 123 561 q 206 554 168 561 q 263 525 236 550 q 329 449 300 492 q 339 433 331 447 q 349 414 344 423 l 372 369 l 409 273 l 445 169 q 505 89 477 92 l 555 83 l 790 83 l 790 464 q 797 499 790 485 l 807 515 l 821 531 l 831 540 l 842 549 q 856 556 847 553 l 871 561 l 871 0 l 554 0 l -30 0 m 574 -134 l 591 -123 q 609 -120 597 -121 q 646 -135 631 -120 q 664 -173 661 -150 q 647 -207 664 -191 q 612 -224 631 -221 q 576 -207 592 -224 q 560 -169 560 -191 q 574 -134 560 -151 m 710 -134 l 727 -123 q 745 -120 733 -121 q 782 -135 767 -120 q 800 -173 797 -150 q 783 -207 800 -191 q 748 -224 767 -221 q 712 -207 728 -224 q 696 -169 696 -191 q 710 -134 696 -151 "},"":{"x_min":0,"x_max":602,"ha":687,"o":"m 602 561 l 602 0 l 83 0 l 83 -345 l 0 -345 l 0 79 l 138 79 l 138 122 q 142 201 138 167 q 154 271 146 235 q 216 396 170 332 q 365 521 280 481 q 559 561 450 561 l 602 561 m 222 83 l 519 83 l 519 473 q 452 466 481 473 q 424 458 435 463 q 394 443 412 453 q 344 409 369 430 q 297 359 319 388 q 259 306 274 331 q 237 254 245 281 q 226 193 230 227 q 222 121 222 159 l 222 83 "},"":{"x_min":71,"x_max":567,"ha":642,"o":"m 373 414 q 356 373 373 391 q 316 356 340 356 q 275 372 292 356 q 258 414 258 391 q 274 454 258 437 q 316 471 291 471 q 355 454 338 471 q 373 414 373 438 m 567 198 l 71 198 l 71 254 l 567 254 l 567 198 m 373 36 q 356 -4 373 12 q 316 -22 339 -22 q 275 -5 292 -22 q 258 36 258 11 q 275 77 258 60 q 316 94 293 94 q 355 77 338 94 q 373 36 373 61 "},"":{"x_min":58.671875,"x_max":386.234375,"ha":387,"o":"m 386 -301 q 384 -309 386 -307 q 380 -314 383 -312 q 369 -323 377 -317 l 351 -342 l 334 -366 q 319 -380 327 -380 q 308 -378 315 -380 q 293 -374 301 -375 q 277 -374 285 -374 l 79 -374 q 58 -363 58 -374 q 60 -354 58 -356 l 75 -339 l 93 -321 q 101 -310 96 -317 q 110 -295 104 -306 q 125 -284 117 -284 q 138 -287 129 -284 l 167 -291 l 365 -291 q 386 -301 386 -291 "},"":{"x_min":-29.84375,"x_max":526.265625,"ha":612,"o":"m -29 83 l 354 83 l 364 83 q 378 86 375 83 q 383 97 382 90 l 382 99 l 381 103 l 371 128 l 327 247 q 284 351 303 313 q 226 440 255 409 q 193 459 215 455 l 159 465 l 124 465 l 108 465 l 108 563 l 124 563 q 202 556 168 563 q 263 527 236 550 q 299 490 281 511 q 316 470 310 478 q 329 451 322 461 q 349 416 339 436 q 371 371 359 397 l 408 275 l 444 171 q 504 90 476 95 l 526 85 l 526 0 l -29 0 l -29 83 "},"":{"x_min":-175,"x_max":30,"ha":31,"o":"m 30 -109 l -1 -109 l -1 964 l -119 964 l -62 906 l -82 885 l -175 978 l -82 1072 l -62 1050 l -116 995 l 30 995 l 30 -109 "},"":{"x_min":-29,"x_max":1070,"ha":999,"o":"m -29 0 l -29 83 l 107 83 l 107 121 l 109 167 q 110 187 109 178 q 114 208 111 196 q 118 229 115 220 q 125 250 121 238 l 144 296 q 279 471 195 411 q 490 537 370 537 l 490 554 q 497 592 490 577 l 509 607 l 524 622 l 545 635 l 556 638 l 571 642 l 571 536 q 678 520 627 536 q 777 470 729 504 q 853 397 819 440 q 912 295 886 353 l 931 244 q 941 199 937 222 q 950 87 950 146 l 950 83 l 1070 83 l 1070 0 l -29 0 m 190 83 l 487 83 l 487 448 q 408 439 443 448 q 339 411 372 431 q 281 364 306 391 q 232 297 255 336 q 212 257 220 277 q 203 231 208 246 q 198 215 202 228 q 190 123 190 175 l 190 83 m 571 83 l 865 83 l 865 123 l 865 146 q 865 162 865 154 q 865 176 865 172 q 858 218 865 195 q 822 297 850 251 q 775 361 803 332 q 719 408 751 388 q 649 438 687 428 q 571 448 611 448 l 571 83 "},"":{"x_min":66,"x_max":428.828125,"ha":391,"o":"m 428 0 l 127 0 l 127 865 l 140 860 q 154 854 147 858 q 178 836 164 848 l 190 821 l 200 806 q 210 768 206 793 l 210 83 l 428 83 l 428 0 m 328 948 q 291 915 313 929 l 266 908 q 243 906 258 906 q 194 927 223 908 q 171 940 184 934 q 146 948 158 945 q 66 918 103 948 l 66 1001 q 103 1022 82 1014 q 146 1031 123 1031 q 198 1012 164 1031 q 243 989 224 993 l 256 989 q 289 998 275 989 q 328 1031 310 1008 l 328 948 "},"":{"x_min":14.59375,"x_max":17.3125,"ha":258,"o":"m 17 -102 q 15 -102 16 -102 l 14 -101 l 14 -99 l 17 -99 l 17 -102 "},"":{"x_min":-66,"x_max":250,"ha":298,"o":"m 111 730 q 127 741 117 736 q 146 745 133 743 q 167 741 160 745 q 183 728 175 739 q 201 690 201 715 q 197 675 201 685 q 186 656 194 665 q 151 642 169 642 q 113 657 130 642 q 97 696 97 673 q 111 730 97 712 m -66 0 l -66 83 l 167 83 l 167 465 q 175 500 167 484 l 184 516 l 199 531 l 209 540 l 222 551 l 235 556 l 250 561 l 250 0 l -66 0 "},"":{"x_min":2,"x_max":711.359375,"ha":687,"o":"m 250 0 q 133 -46 184 0 q 83 -156 83 -92 q 133 -289 83 -230 q 190 -330 159 -316 q 259 -345 221 -345 l 523 -345 l 523 -357 q 492 -417 523 -392 l 484 -421 l 476 -424 l 466 -426 l 455 -426 l 437 -426 l 418 -426 l 254 -426 q 76 -345 151 -426 q 2 -156 2 -265 q 77 10 2 -61 q 254 83 152 83 l 281 83 l 275 90 l 270 98 l 235 125 q 221 139 224 136 q 206 155 215 144 q 169 264 169 206 l 169 282 l 171 302 l 175 320 l 181 337 q 259 424 201 395 q 315 443 284 436 q 347 447 329 445 q 381 450 364 450 l 482 450 l 512 450 q 537 445 525 450 q 571 425 555 443 l 577 415 l 581 405 q 585 394 583 403 l 587 384 l 408 384 q 295 364 328 384 q 254 317 266 351 q 248 276 248 291 q 337 137 248 203 q 403 95 376 110 q 451 83 431 83 l 711 83 l 711 0 l 250 0 "},"":{"x_min":0,"x_max":31,"ha":31,"o":"m 31 -109 l 0 -109 l 0 995 l 31 995 l 31 -109 "},"":{"x_min":48,"x_max":515,"ha":601,"o":"m 515 560 l 515 0 l 56 0 l 48 77 q 48 95 48 86 q 48 109 48 105 q 49 152 48 127 q 51 180 51 178 q 53 214 51 198 q 60 246 56 231 q 128 396 75 325 q 276 520 193 480 q 471 560 360 560 l 515 560 m 170 807 q 204 821 181 818 q 242 803 225 821 q 260 765 260 789 q 245 731 260 746 q 209 717 230 717 q 171 735 191 717 q 154 773 154 749 q 170 807 154 792 m 381 807 q 396 816 387 812 l 415 821 q 436 817 427 821 q 454 803 444 814 q 472 765 472 785 q 469 748 472 756 q 456 730 466 740 q 420 717 441 720 q 381 735 398 717 q 365 773 368 748 q 369 791 365 779 q 381 807 374 802 m 134 83 l 431 83 l 431 473 q 364 466 393 473 q 336 458 347 463 q 306 443 324 453 q 256 409 281 430 q 209 359 231 388 q 172 307 186 331 q 149 253 157 282 q 143 222 146 239 q 138 192 140 205 q 134 121 134 160 l 134 83 "},"":{"x_min":-30,"x_max":1528,"ha":1594,"o":"m 181 -152 l 198 -141 q 216 -137 204 -139 q 253 -152 238 -137 q 271 -191 268 -168 q 254 -225 271 -209 q 219 -241 238 -239 q 183 -225 199 -241 q 167 -187 167 -209 q 181 -152 167 -169 m 789 83 l 1088 83 l 1088 470 q 963 443 1018 470 q 863 356 914 417 q 803 250 821 305 l 793 190 q 789 118 789 160 l 789 83 m 1169 0 l 537 0 l -30 0 l -30 83 l 354 83 l 364 83 q 378 86 374 83 q 383 97 382 90 l 382 99 l 381 103 l 371 128 l 327 247 q 284 351 303 313 q 226 440 255 409 q 193 459 215 455 l 159 465 l 124 465 l 108 465 l 108 563 l 123 563 q 202 556 168 563 q 262 527 236 550 q 299 490 281 511 q 316 469 310 478 q 329 451 321 461 q 349 416 339 436 q 371 371 359 397 l 408 275 l 444 171 q 504 90 475 95 l 537 83 l 705 83 l 705 124 q 720 273 705 214 q 783 400 736 332 q 931 525 846 485 q 1022 552 972 542 q 1127 563 1071 563 l 1169 563 l 1169 85 l 1445 85 l 1445 1032 q 1453 1070 1445 1052 l 1462 1084 q 1478 1100 1466 1090 l 1492 1112 l 1501 1119 q 1528 1130 1511 1126 l 1528 0 l 1169 0 "},"":{"x_min":-29.84375,"x_max":626.625,"ha":602,"o":"m -29 83 l 199 83 l 187 98 q 149 127 167 112 q 136 139 143 132 q 121 155 129 146 q 83 264 83 208 l 85 300 q 88 317 86 309 q 96 337 91 325 q 174 424 116 396 q 230 443 199 436 q 296 450 261 450 l 397 450 l 427 450 q 452 445 440 450 q 485 425 472 443 l 497 408 q 504 384 504 396 l 323 384 q 229 373 259 384 q 170 317 185 359 q 165 300 168 312 q 162 276 162 288 q 252 137 162 203 q 365 83 327 83 l 626 83 l 626 0 l -29 0 l -29 83 "},"":{"x_min":-47,"x_max":740,"ha":726,"o":"m -47 83 l 143 83 l 143 235 q 176 307 143 276 q 226 334 201 328 l 226 83 l 400 83 l 400 343 l 401 360 l 407 379 l 417 396 q 430 410 422 405 l 440 421 l 451 431 q 481 440 463 438 l 481 83 l 659 83 l 659 463 q 692 533 659 503 l 701 540 q 708 545 705 544 l 722 552 l 740 560 l 740 0 l -47 0 l -47 83 m 246 728 q 280 742 259 742 q 301 738 293 742 q 318 725 309 735 q 335 687 335 708 q 330 669 335 675 l 325 660 q 318 653 323 657 q 284 638 307 642 q 246 654 265 638 q 230 694 230 673 q 246 728 230 714 m 343 865 q 378 882 357 879 q 416 865 398 882 q 432 829 432 852 q 428 810 432 818 q 417 793 425 802 q 382 779 402 779 q 343 793 359 779 l 332 811 q 328 830 328 821 q 343 865 328 850 m 457 728 q 491 742 473 742 q 528 725 514 742 q 545 689 545 710 q 541 670 545 676 q 528 653 539 662 q 513 642 522 646 l 495 638 q 456 654 475 638 q 444 673 448 662 q 440 694 440 683 q 444 711 440 701 q 457 728 448 721 "},"":{"x_min":2,"x_max":852.421875,"ha":814,"o":"m 852 0 l 250 0 q 133 -46 184 0 q 83 -156 83 -92 q 133 -289 83 -230 q 190 -330 159 -316 q 259 -345 221 -345 l 523 -345 l 523 -357 q 493 -417 523 -392 l 485 -421 l 476 -424 l 466 -426 l 456 -426 l 437 -426 l 418 -426 l 254 -426 q 76 -345 151 -426 q 2 -156 2 -265 q 77 10 2 -61 q 254 83 152 83 l 559 83 l 570 83 q 585 87 580 83 l 587 90 l 589 96 l 585 103 l 575 128 l 558 173 l 532 246 q 489 351 508 312 q 431 439 461 405 q 391 459 419 454 q 330 465 364 465 l 313 465 l 313 563 l 328 563 q 351 563 341 563 q 374 563 362 563 q 410 557 392 563 q 428 554 422 555 q 442 548 433 552 q 467 528 454 543 q 504 491 485 512 q 535 452 520 474 l 560 408 l 577 372 l 615 275 q 650 171 648 172 q 708 88 680 93 l 731 83 l 852 83 l 852 0 m 365 -137 q 401 -122 380 -122 q 439 -138 421 -122 q 456 -175 451 -149 q 439 -210 456 -193 q 403 -226 427 -221 q 384 -221 395 -226 q 367 -210 376 -217 q 351 -172 351 -193 q 365 -137 351 -151 "},"":{"x_min":88,"x_max":172,"ha":273,"o":"m 172 1130 l 172 0 l 88 0 l 88 1130 l 172 1130 "},"":{"x_min":54,"x_max":392,"ha":436,"o":"m 392 619 q 367 544 392 575 q 308 512 342 512 q 265 530 283 512 q 248 573 248 549 q 256 601 248 587 q 279 628 264 616 l 306 644 q 324 678 324 656 q 301 723 324 705 q 245 742 279 742 q 174 715 202 742 q 146 644 146 688 l 146 625 q 148 606 146 615 q 154 592 151 598 q 164 573 157 586 l 207 487 q 244 388 229 446 q 255 335 251 361 q 260 287 260 310 l 260 266 q 260 254 260 260 q 257 245 257 248 l 252 211 l 231 211 l 232 240 l 236 262 q 231 303 236 286 q 207 345 225 329 l 141 404 q 54 582 54 481 q 107 714 54 659 q 235 770 160 770 q 346 726 301 770 q 392 619 392 683 m 294 95 q 277 53 294 70 q 235 36 260 36 q 191 53 211 36 q 173 95 173 70 q 190 138 173 120 q 232 157 207 157 q 275 138 257 157 q 294 95 294 120 "},"":{"x_min":81,"x_max":577,"ha":633,"o":"m 81 865 l 164 865 l 164 544 q 185 526 164 528 q 218 532 203 526 q 232 538 229 536 l 254 549 q 286 586 276 564 q 297 641 297 609 l 297 807 l 369 865 l 369 606 q 393 547 369 575 q 418 530 405 536 q 448 526 432 526 q 470 531 459 526 q 489 550 480 537 q 503 575 498 562 q 508 600 508 588 l 508 821 l 577 865 l 577 599 q 543 496 577 537 q 449 449 505 449 l 434 449 q 320 511 362 449 q 249 464 287 479 l 228 458 l 204 454 l 185 452 l 164 452 l 164 -3 l 81 -3 l 81 865 "},"":{"x_min":59,"x_max":444,"ha":445,"o":"m 417 1094 q 415 1084 417 1086 l 400 1070 l 382 1052 q 374 1041 379 1049 q 365 1027 368 1033 q 350 1015 359 1015 q 339 1017 345 1015 q 324 1020 332 1019 q 308 1022 316 1022 l 110 1022 q 89 1031 89 1022 q 90 1042 89 1039 l 105 1054 q 141 1101 126 1073 q 155 1113 147 1113 q 169 1109 160 1113 l 198 1105 l 396 1105 q 417 1094 417 1105 m 417 957 q 415 947 417 948 l 401 934 q 364 889 381 918 q 350 877 358 877 q 336 881 344 877 q 308 885 327 885 l 110 885 q 89 894 90 885 q 90 904 89 903 l 105 917 q 141 962 124 933 q 155 975 147 975 q 170 971 160 975 q 198 968 179 968 l 396 968 q 417 957 415 968 m 444 772 q 439 766 442 768 q 437 755 437 764 l 437 707 q 409 626 437 651 q 320 602 382 602 l 312 602 q 272 606 287 602 q 259 611 264 609 q 249 620 255 614 q 219 607 237 612 q 173 602 202 602 q 85 627 111 602 q 59 725 59 652 l 59 825 q 67 844 59 843 q 73 839 71 841 l 80 830 l 104 806 l 131 785 q 144 772 141 778 l 140 766 q 136 755 138 765 l 136 725 q 142 686 136 696 q 173 678 151 678 q 210 721 210 678 l 210 825 q 218 844 210 843 q 224 839 222 841 l 232 830 l 262 802 l 284 783 q 294 772 292 778 q 290 766 292 768 q 287 755 287 765 l 287 707 q 294 683 287 689 q 324 678 302 678 q 352 687 345 678 q 360 725 360 695 l 360 825 q 368 844 360 843 q 372 841 370 843 q 376 837 374 839 l 382 830 l 406 806 l 433 785 q 444 772 442 779 "},"":{"x_min":45,"x_max":517,"ha":566,"o":"m 517 161 l 287 -102 l 254 -102 l 421 161 l 249 435 l 279 435 l 517 161 m 311 161 l 83 -102 l 50 -102 l 215 161 l 45 435 l 75 435 l 311 161 "},"":{"x_min":71.203125,"x_max":566.953125,"ha":642,"o":"m 566 257 l 71 257 l 71 315 l 566 315 l 566 257 m 566 136 l 71 136 l 71 194 l 566 194 l 566 136 "},"":{"x_min":2,"x_max":1117,"ha":1105,"o":"m 750 794 q 767 807 758 802 l 778 810 l 786 810 q 822 793 806 810 q 839 757 836 779 q 822 720 839 739 q 807 708 816 712 l 788 704 q 750 721 767 704 q 740 739 744 730 q 736 759 736 749 q 750 794 736 779 m 1117 0 l 626 0 l 626 -36 q 532 -254 626 -162 q 310 -346 438 -346 q 95 -254 188 -346 q 2 -36 2 -162 l 2 114 q 6 138 2 126 l 12 150 l 21 165 q 85 209 46 198 l 85 -38 q 154 -199 85 -129 q 318 -265 221 -265 q 477 -199 412 -265 q 528 -124 511 -164 q 545 -38 545 -85 l 545 465 q 545 480 545 472 q 551 497 546 487 q 561 514 556 507 q 575 531 566 522 l 585 540 l 599 550 l 612 556 l 626 560 l 626 445 l 863 445 q 1002 398 941 445 q 1052 349 1029 379 q 1095 280 1075 319 q 1106 250 1100 269 q 1114 219 1112 232 l 1117 192 l 1117 151 l 1117 141 l 1117 132 l 1117 122 l 1117 92 l 1117 83 l 1117 0 m 626 83 l 1032 83 l 1032 138 l 1032 164 l 1032 191 l 1032 201 q 1028 227 1032 218 q 1016 264 1026 243 q 957 337 994 311 q 871 364 920 364 l 627 364 l 626 83 "},"":{"x_min":64.421875,"x_max":438,"ha":540,"o":"m 438 -331 l 64 -331 l 64 -284 l 338 -284 l 338 771 l 64 771 l 64 817 l 438 817 l 438 -331 "},"":{"x_min":49,"x_max":1203,"ha":1253,"o":"m 49 83 l 224 83 l 224 1028 q 233 1066 224 1048 l 256 1096 q 305 1126 273 1117 l 305 445 l 948 445 q 1087 398 1027 445 q 1138 348 1116 377 q 1177 283 1161 318 q 1199 214 1193 248 l 1203 180 l 1203 135 l 1203 83 l 1203 0 l 49 0 l 49 83 m 307 83 l 1120 83 l 1120 138 l 1120 160 l 1120 170 l 1121 183 l 1121 194 q 1121 202 1121 198 q 1120 209 1120 207 l 1120 225 l 1107 264 q 1045 338 1081 314 q 1006 356 1028 349 q 960 364 983 364 l 307 364 l 307 83 "},"":{"x_min":0,"x_max":1487,"ha":1626,"o":"m 1404 83 l 1404 1032 q 1412 1070 1404 1052 l 1421 1084 q 1437 1100 1425 1090 l 1451 1112 l 1460 1119 q 1487 1130 1470 1126 l 1487 0 l 1135 0 l 932 0 l 932 440 l 899 431 q 864 420 874 425 q 751 363 788 393 q 660 263 693 317 q 626 131 626 203 l 626 -36 q 532 -253 626 -161 q 310 -345 438 -345 q 92 -253 185 -345 q 0 -36 0 -162 l 0 115 q 1 127 0 123 q 5 139 2 131 l 11 152 l 20 166 q 81 210 42 198 l 81 -37 q 150 -199 81 -128 q 227 -248 185 -231 q 316 -265 269 -265 q 477 -197 409 -265 q 527 -123 509 -165 q 545 -36 545 -82 l 545 142 q 590 314 545 238 q 715 449 627 379 q 834 512 757 484 l 892 531 l 958 549 l 999 560 l 1015 561 l 1015 83 l 1404 83 m 176 -363 q 192 -355 183 -358 l 210 -353 q 249 -365 234 -353 q 267 -396 267 -381 l 267 -404 q 263 -411 264 -409 q 250 -423 258 -418 q 234 -431 245 -427 l 216 -436 q 196 -432 206 -436 q 176 -422 185 -429 q 159 -391 159 -408 q 176 -363 159 -376 m 386 -363 q 402 -355 393 -358 l 420 -353 q 458 -365 442 -353 q 467 -380 461 -367 q 475 -396 470 -388 q 459 -423 475 -411 q 424 -436 443 -436 q 405 -431 415 -436 l 386 -422 l 373 -407 q 369 -391 369 -400 q 373 -376 369 -383 q 386 -363 377 -370 "},"":{"x_min":59,"x_max":444,"ha":445,"o":"m 444 1029 q 439 1023 442 1025 q 437 1012 437 1021 l 437 964 q 409 883 437 908 q 320 859 382 859 l 312 859 q 272 863 287 859 q 259 868 264 866 q 249 877 255 871 q 219 864 237 869 q 173 859 202 859 q 85 884 111 859 q 59 982 59 909 l 59 1082 q 67 1101 59 1100 q 73 1096 71 1098 l 80 1087 l 104 1063 l 131 1042 q 144 1029 141 1035 l 140 1023 q 136 1012 138 1022 l 136 982 q 142 943 136 953 q 173 935 151 935 q 210 978 210 935 l 210 1082 q 218 1101 210 1100 q 224 1096 222 1098 l 232 1087 l 262 1059 l 284 1040 q 294 1029 292 1035 q 290 1023 292 1025 q 287 1012 287 1022 l 287 964 q 294 940 287 946 q 324 935 302 935 q 352 944 345 935 q 360 982 360 952 l 360 1082 q 368 1101 360 1100 q 372 1098 370 1100 q 376 1094 374 1096 l 382 1087 l 406 1063 l 433 1042 q 444 1029 442 1036 "},"":{"x_min":0,"x_max":205.484375,"ha":31,"o":"m 205 978 l 112 885 l 92 906 l 149 964 l 31 964 l 31 -109 l 0 -109 l 0 995 l 147 995 l 92 1050 l 112 1072 l 205 978 "},"":{"x_min":2,"x_max":626,"ha":746,"o":"m 626 -35 q 532 -252 626 -159 q 429 -320 485 -297 q 310 -343 373 -343 q 94 -252 186 -343 q 2 -36 2 -162 l 2 74 q 5 101 2 92 l 20 128 q 83 172 42 160 l 83 -35 q 151 -193 83 -125 q 228 -243 186 -226 q 317 -260 270 -260 q 477 -193 410 -260 q 528 -120 511 -159 q 545 -36 545 -81 l 545 146 l 399 146 q 255 204 315 146 q 195 343 195 263 q 253 495 195 431 q 319 545 284 529 q 399 561 354 561 l 626 561 l 626 -35 m 275 816 q 309 830 292 830 q 348 812 330 830 q 366 774 362 798 q 349 737 366 753 q 314 724 338 727 q 276 741 294 724 q 260 781 260 756 q 275 816 260 800 m 485 816 q 520 830 502 830 q 558 812 542 830 q 576 774 576 796 q 559 738 576 755 q 524 724 546 724 q 486 741 504 724 q 470 781 470 760 q 485 816 470 800 m 545 471 l 415 471 q 321 433 361 471 q 282 344 282 396 q 321 266 282 298 q 415 234 361 234 l 545 234 l 545 471 "},"":{"x_min":48.546875,"x_max":538.828125,"ha":600,"o":"m 130 865 l 293 279 l 455 864 l 538 865 l 293 1 l 48 865 l 130 865 "},"":{"x_min":2,"x_max":627,"ha":606,"o":"m 627 -36 q 533 -253 627 -161 q 310 -345 439 -345 q 94 -253 187 -345 q 2 -36 2 -162 l 2 127 q 5 150 2 141 l 20 178 q 83 222 42 208 l 83 -37 q 151 -197 83 -130 q 229 -248 187 -231 q 317 -265 271 -265 q 478 -197 410 -265 q 529 -123 512 -163 q 546 -37 546 -83 l 546 982 l 546 1018 q 550 1047 546 1033 q 574 1090 554 1066 q 595 1111 582 1102 q 627 1126 609 1119 l 627 -36 "},"":{"x_min":0,"x_max":1135.25,"ha":1089,"o":"m 1135 83 l 1135 0 l 932 0 l 932 440 q 912 430 925 439 q 893 419 898 421 q 883 417 888 417 q 873 419 880 417 q 865 419 867 420 q 751 363 788 392 q 697 320 719 341 q 658 270 674 298 q 634 206 642 242 q 626 131 626 170 l 626 -36 q 532 -253 626 -161 q 310 -345 438 -345 q 92 -253 185 -345 q 0 -36 0 -162 l 0 115 q 1 127 0 123 q 5 139 2 131 l 11 152 l 20 166 q 81 210 42 198 l 81 -37 q 150 -199 81 -128 q 227 -248 185 -231 q 316 -265 269 -265 q 477 -197 409 -265 q 527 -123 509 -165 q 545 -37 545 -82 l 545 141 q 590 314 545 238 q 715 449 627 379 q 834 512 757 484 l 892 531 l 953 548 l 998 558 l 1015 561 l 1015 83 l 1135 83 "},"":{"x_min":-66,"x_max":1088,"ha":1062,"o":"m -66 83 l 109 83 l 109 464 q 118 503 109 485 l 127 515 l 141 531 l 152 542 l 163 551 l 176 556 l 190 561 l 190 446 l 833 446 q 972 399 912 446 q 1022 350 1000 379 q 1062 282 1045 321 q 1084 215 1078 253 l 1088 175 l 1088 138 l 1088 85 l 1088 0 l -66 0 l -66 83 m 192 83 l 1005 83 l 1005 138 l 1005 160 l 1005 170 l 1006 183 l 1006 193 q 1006 201 1006 197 q 1005 209 1005 207 l 1005 225 l 992 264 q 930 337 966 313 q 891 355 913 348 q 845 363 868 363 l 192 363 l 192 83 "},"":{"x_min":-84,"x_max":572.46875,"ha":548,"o":"m -84 83 l 145 83 l 132 98 q 95 127 113 112 q 82 139 89 132 q 67 155 75 146 q 29 263 29 207 l 31 299 q 34 316 32 308 q 42 337 37 324 q 120 423 62 395 q 176 442 145 435 q 242 449 207 449 l 343 449 l 373 449 q 398 444 386 449 q 431 424 418 442 l 443 407 q 450 383 450 395 l 269 383 q 175 372 205 383 q 116 316 131 358 q 111 299 114 311 q 108 275 108 287 q 198 137 108 202 q 311 83 273 83 l 572 83 l 572 0 l -84 0 l -84 83 m 226 701 q 241 711 233 707 q 261 716 250 716 q 298 701 281 716 q 314 663 314 683 q 298 627 314 644 q 264 613 281 613 q 226 629 243 613 q 210 666 210 645 q 226 701 210 686 "},"":{"x_min":73.59375,"x_max":539,"ha":642,"o":"m 456 -260 l 456 0 l 73 0 l 73 78 q 84 248 73 198 q 153 398 101 329 q 299 520 214 480 q 496 561 385 561 l 539 561 l 539 -341 l 75 -341 q 110 -287 82 -310 l 125 -275 l 141 -266 q 180 -260 160 -260 l 456 -260 m 157 83 l 456 83 l 456 473 q 390 466 419 473 q 331 443 360 460 q 233 359 280 417 q 197 306 212 331 q 174 252 182 281 q 161 192 165 223 q 157 121 157 162 l 157 83 "},"":{"x_min":-30,"x_max":380,"ha":365,"o":"m -30 0 l -30 83 l 288 83 l 288 465 q 297 503 288 485 l 305 516 l 317 528 l 343 551 q 354 556 345 552 q 369 561 363 560 l 369 0 l -30 0 m 80 730 q 95 740 86 736 q 114 745 105 745 q 151 728 133 745 q 170 689 170 711 q 153 654 170 670 q 118 640 140 640 q 80 655 97 640 q 68 673 72 663 q 64 694 64 682 q 80 730 64 711 m 290 730 q 305 740 296 736 q 324 745 315 745 q 363 728 343 745 q 380 689 380 712 q 376 669 380 677 q 363 654 373 661 q 328 640 350 640 q 290 655 307 640 q 278 673 282 663 q 274 694 274 682 q 290 730 274 711 "},"":{"x_min":-30,"x_max":1467,"ha":1624,"o":"m 222 83 l 519 83 l 519 470 q 395 443 449 470 q 296 356 344 414 q 236 250 253 305 q 226 194 231 228 q 222 118 222 159 l 222 83 m 870 83 l 870 235 q 904 307 870 276 q 953 334 927 327 l 953 83 l 1128 83 l 1128 343 q 1129 362 1128 355 q 1134 378 1130 369 q 1142 393 1139 387 q 1146 400 1145 398 l 1158 410 l 1168 421 l 1179 431 l 1194 438 l 1209 440 l 1209 83 l 1386 83 l 1386 463 q 1419 533 1386 503 l 1431 544 l 1435 546 q 1467 561 1448 553 l 1467 0 l 601 0 l -30 0 l -30 83 l 138 83 l 138 124 q 142 203 138 168 q 154 272 146 238 q 216 399 169 332 q 364 523 280 483 q 454 550 405 540 q 559 561 503 561 l 602 561 l 602 83 l 870 83 "},"":{"x_min":13,"x_max":804,"ha":793,"o":"m 396 -155 q 433 -139 414 -141 q 469 -153 450 -139 q 485 -191 481 -166 q 469 -225 485 -208 q 433 -242 453 -242 q 413 -238 421 -242 q 396 -227 404 -236 q 381 -191 381 -214 q 382 -173 381 -176 q 388 -163 383 -169 l 396 -155 m 804 561 l 804 0 l 13 0 l 13 354 q 14 371 13 366 q 18 385 15 376 l 26 398 l 38 415 q 96 449 59 439 l 96 83 l 721 83 l 721 465 q 729 504 721 484 l 749 532 q 772 549 758 541 q 804 561 786 556 "},"":{"x_min":57,"x_max":1036,"ha":1082,"o":"m 142 83 l 439 83 l 439 477 q 373 470 402 477 q 315 447 344 464 q 266 413 292 434 q 216 362 244 394 q 158 256 176 313 q 152 231 156 248 q 145 189 149 214 q 142 125 142 165 l 142 83 m 520 83 l 696 83 l 696 946 q 697 967 696 960 q 704 983 699 975 q 725 1014 712 1002 l 738 1025 l 749 1034 l 758 1039 l 777 1046 l 777 83 l 955 83 l 955 1067 q 990 1137 955 1109 l 1003 1150 q 1027 1166 1015 1158 q 1036 1163 1031 1164 l 1036 0 l 57 0 l 57 81 q 69 251 57 196 q 137 400 83 331 q 200 470 168 441 q 273 521 233 499 q 439 562 346 562 l 439 841 q 472 911 439 881 l 495 929 l 520 939 l 520 83 "},"":{"x_min":83,"x_max":553,"ha":656,"o":"m 103 802 q 138 818 117 814 q 175 800 159 818 q 192 762 192 783 q 176 728 192 741 q 160 717 170 721 q 142 714 155 715 q 120 717 129 714 q 104 729 111 720 q 90 768 90 747 q 92 786 90 779 q 103 802 94 793 m 553 2 l 83 2 q 90 33 83 19 q 110 60 95 45 q 142 77 127 71 q 174 83 157 83 l 468 83 l 468 260 l 468 285 l 468 293 q 465 332 468 322 q 455 366 462 349 q 436 400 449 381 q 291 478 381 478 l 169 478 l 147 478 l 127 486 q 85 561 85 506 l 279 561 q 412 537 355 561 q 510 455 469 513 q 546 368 534 414 q 550 330 548 355 q 553 271 553 304 l 553 2 "},"":{"x_min":45.296875,"x_max":345.03125,"ha":386,"o":"m 345 857 l 88 -203 l 45 -202 l 300 857 l 345 857 "},"":{"x_min":-36,"x_max":1297,"ha":1402,"o":"m 1297 0 l -36 0 l -36 83 l 1217 83 l 1217 165 l 1217 179 l 1217 187 q 1217 195 1217 191 q 1217 203 1217 200 q 1213 226 1217 214 q 1209 247 1212 237 q 1199 268 1206 256 q 1138 340 1178 311 q 1097 359 1120 353 q 1051 366 1075 366 l 109 366 l 95 366 q 82 368 86 366 q 72 374 77 368 l 68 386 q 77 406 68 395 q 92 420 81 413 l 705 864 l 379 530 l 362 515 l 349 502 q 331 471 331 485 q 335 459 331 463 l 348 451 l 357 451 l 370 451 l 387 451 l 1045 451 q 1183 403 1123 451 q 1274 283 1233 365 q 1285 253 1280 271 l 1292 223 l 1297 194 l 1297 158 l 1297 128 l 1297 98 l 1297 88 l 1297 0 "},"":{"x_min":-30,"x_max":1192,"ha":1291,"o":"m 181 -152 l 198 -141 q 216 -138 204 -139 q 253 -153 238 -138 q 271 -191 268 -168 q 254 -225 271 -209 q 219 -242 238 -239 q 183 -225 199 -242 q 167 -187 167 -209 q 181 -152 167 -169 m 816 83 l 1109 83 l 1109 470 q 985 443 1039 470 q 886 356 934 414 q 826 250 843 305 q 816 194 821 228 q 812 118 812 159 l 816 83 m -30 0 l -30 83 l 354 83 l 364 83 q 378 86 374 83 q 383 97 382 90 l 382 99 l 381 103 l 371 128 l 327 247 q 284 351 303 313 q 226 440 255 409 q 193 459 215 455 l 159 465 l 124 465 l 108 465 l 108 563 l 123 563 q 202 556 168 563 q 262 527 236 550 q 299 490 281 511 q 316 469 310 478 q 329 451 321 461 q 349 416 339 436 q 371 371 359 397 l 408 275 l 444 171 q 504 90 475 95 l 559 83 l 728 83 l 728 124 q 732 204 728 168 q 744 273 736 239 q 806 400 759 333 q 954 525 870 485 q 1044 552 995 542 q 1149 563 1093 563 l 1192 563 l 1192 0 l 559 0 l -30 0 "},"":{"x_min":111.578125,"x_max":700.234375,"ha":660,"o":"m 700 83 l 700 0 l 111 0 l 111 83 q 114 184 111 141 q 123 253 117 227 q 147 329 129 291 q 191 402 165 368 q 339 525 254 484 q 536 566 423 566 l 577 566 l 577 83 l 700 83 m 199 83 l 496 83 l 496 473 q 371 443 424 473 q 322 409 343 427 q 274 359 295 385 q 214 252 232 309 q 204 195 209 229 q 199 121 199 160 l 199 83 "},"":{"x_min":-65,"x_max":332,"ha":418,"o":"m -65 0 l -65 83 l 251 83 l 251 465 q 260 503 251 485 l 269 516 l 280 528 q 307 551 294 542 q 332 561 315 556 l 332 0 l -65 0 m 27 746 q 60 762 42 762 q 98 742 81 762 q 117 702 117 726 q 101 668 117 684 q 85 658 94 662 q 66 654 77 654 q 29 670 46 654 q 11 709 13 686 q 27 746 11 730 m 124 881 q 158 897 139 897 q 184 890 171 897 l 198 880 q 214 842 214 864 q 209 824 214 831 q 199 808 207 815 q 164 793 184 793 q 125 809 143 793 q 110 847 110 824 q 124 881 110 865 m 238 746 q 273 762 255 762 q 311 742 294 762 q 328 704 328 726 q 311 668 328 685 q 277 654 298 654 q 238 670 257 654 q 226 687 230 679 l 222 709 q 238 746 222 729 "},"":{"x_min":-30,"x_max":602,"ha":731,"o":"m -30 0 l -30 83 l 138 83 l 138 124 q 142 203 138 168 q 154 272 146 238 q 216 399 169 332 q 364 523 280 483 q 454 550 405 540 q 559 561 503 561 l 602 561 l 602 0 l -30 0 m 222 83 l 519 83 l 519 470 q 395 443 449 470 q 296 356 344 414 q 236 250 253 305 q 226 194 231 228 q 222 118 222 159 l 222 83 "},"":{"x_min":59,"x_max":444,"ha":445,"o":"m 444 1022 q 439 1016 442 1017 q 437 1005 437 1014 l 437 957 q 409 875 437 900 q 320 851 381 851 q 275 855 287 851 q 259 861 264 859 q 249 870 255 863 q 219 856 239 862 q 199 852 209 853 q 173 851 188 851 q 85 876 111 851 q 59 975 59 901 l 59 1075 q 67 1094 59 1093 q 73 1088 71 1090 l 80 1080 q 92 1068 84 1076 q 104 1056 96 1064 l 131 1035 q 144 1022 141 1028 q 140 1016 142 1018 q 136 1005 138 1015 l 136 975 q 142 936 136 945 q 173 928 152 928 q 210 971 210 928 l 210 1075 q 218 1094 210 1093 q 224 1088 222 1090 l 232 1080 l 262 1052 l 284 1033 q 294 1022 292 1028 q 290 1016 292 1018 q 287 1005 287 1015 l 287 957 q 294 933 287 939 q 324 928 302 928 q 352 937 345 928 q 360 975 360 944 l 360 1075 q 368 1094 360 1093 q 372 1091 370 1093 q 376 1087 374 1090 l 382 1080 q 394 1068 386 1076 q 406 1056 398 1064 l 433 1035 q 444 1022 443 1028 m 417 794 q 415 784 417 786 l 400 771 q 392 763 396 767 q 382 752 388 760 q 374 741 379 748 q 365 727 368 733 q 350 715 359 715 q 336 718 345 715 q 308 722 326 722 l 110 722 q 89 731 89 722 q 90 741 89 739 l 106 754 l 124 773 l 141 799 q 155 812 148 812 l 169 808 q 198 805 179 805 l 396 805 q 417 794 415 805 "},"":{"x_min":99,"x_max":632.71875,"ha":606,"o":"m 102 1130 l 185 1130 l 185 95 l 102 95 l 102 1130 m 632 0 l 515 0 l 515 -164 q 455 -290 515 -239 q 314 -341 396 -341 q 166 -293 231 -341 q 99 -164 99 -242 l 99 -91 l 183 -91 l 183 -164 q 221 -232 183 -205 q 304 -256 256 -256 q 349 -250 327 -256 q 389 -232 370 -244 q 430 -164 430 -206 l 430 1130 l 513 1130 l 513 83 l 632 83 l 632 0 "},"":{"x_min":-30,"x_max":945,"ha":1010,"o":"m 222 83 l 519 83 l 519 470 q 395 443 449 470 q 296 356 344 414 q 236 250 253 305 q 226 194 231 228 q 222 118 222 159 l 222 83 m -30 0 l -30 83 l 138 83 l 138 124 q 142 203 138 168 q 154 273 146 239 q 216 399 169 332 q 364 524 280 484 q 454 551 405 541 q 559 561 503 561 l 602 561 l 602 83 l 862 83 l 862 463 q 870 499 862 483 q 894 530 876 514 q 918 549 905 541 q 945 560 926 556 l 945 0 l -30 0 m 723 785 q 759 802 739 798 q 796 787 777 802 q 811 750 811 772 q 795 715 811 730 q 759 699 781 699 q 741 702 751 699 q 723 713 732 706 q 709 750 709 728 q 723 785 709 770 "},"":{"x_min":64,"x_max":639.765625,"ha":601,"o":"m 639 0 l 520 0 l 520 -164 q 460 -289 520 -237 q 320 -341 401 -341 q 172 -293 235 -341 q 105 -164 105 -242 l 105 -91 l 189 -91 l 189 -164 q 227 -232 189 -205 q 310 -256 262 -256 q 355 -250 334 -256 q 396 -232 376 -244 q 437 -164 437 -204 l 437 1130 l 520 1130 l 520 83 l 639 83 l 639 0 m 105 1130 l 188 1130 l 188 230 l 105 230 l 105 1130 m 66 20 l 144 20 l 126 35 q 97 84 97 56 q 100 107 97 95 q 111 127 104 118 q 129 143 118 136 q 140 149 135 147 q 153 153 146 151 q 176 158 165 158 l 224 158 l 248 158 l 248 119 l 186 119 l 167 119 q 151 115 158 119 q 140 109 145 115 l 131 98 l 131 86 q 160 38 131 61 l 177 28 q 199 20 188 22 l 261 20 q 256 2 261 9 q 246 -9 254 -5 q 229 -14 237 -14 l 216 -14 l 64 -14 l 66 20 "},"":{"x_min":59,"x_max":444,"ha":445,"o":"m 444 1030 q 439 1024 442 1026 q 437 1013 437 1022 l 437 965 q 409 884 437 909 q 320 860 382 860 l 312 860 q 272 864 287 860 q 259 869 264 867 q 249 878 255 872 q 219 864 240 872 q 173 860 202 860 q 85 885 111 860 q 59 983 59 910 l 59 1083 q 67 1102 59 1101 q 73 1097 71 1099 l 80 1088 l 104 1064 l 131 1043 q 140 1036 137 1040 q 144 1030 143 1033 l 140 1025 q 136 1013 138 1023 l 136 983 q 142 944 136 954 q 173 936 149 938 q 210 979 210 936 l 210 1083 q 218 1102 210 1101 q 224 1097 222 1099 l 232 1088 l 262 1060 l 284 1042 q 294 1030 293 1037 q 289 1025 292 1026 q 287 1013 287 1023 l 287 965 q 293 942 287 947 q 324 936 299 938 q 352 945 345 936 q 360 983 360 953 l 360 1083 q 368 1102 360 1101 q 372 1099 370 1101 q 376 1095 374 1097 l 382 1088 l 406 1064 l 433 1043 q 444 1030 443 1037 m 417 802 q 415 792 417 794 l 400 779 l 382 761 q 375 751 379 757 q 365 736 371 746 q 350 724 359 724 q 337 727 345 724 l 308 730 l 110 730 q 89 738 90 730 q 90 749 89 747 l 106 762 q 114 770 111 767 q 124 781 118 773 l 141 807 q 155 820 147 820 q 169 816 160 820 q 182 814 174 815 q 198 813 190 813 l 396 813 q 417 802 417 813 "},"":{"x_min":-30,"x_max":1183,"ha":1274,"o":"m 226 83 l 519 83 l 519 470 q 395 443 449 470 q 296 356 344 414 q 236 250 253 304 q 226 193 231 228 q 222 118 222 158 l 226 83 m 838 -154 l 855 -144 q 873 -140 863 -140 q 911 -156 893 -140 q 928 -192 925 -170 q 911 -227 928 -210 q 877 -244 895 -241 q 840 -227 856 -244 q 827 -210 832 -218 q 824 -189 824 -201 q 838 -154 824 -169 m 1005 83 l 1021 81 q 1035 85 1030 81 q 1040 96 1039 89 l 1037 101 l 1028 127 l 983 245 q 941 349 959 314 q 883 437 916 400 q 843 457 870 451 l 813 460 l 781 463 l 765 463 l 765 561 l 779 561 q 863 554 825 561 q 919 525 891 550 q 986 449 957 491 q 995 433 987 446 q 1005 414 1001 423 l 1028 369 l 1064 273 l 1101 168 q 1161 89 1133 91 l 1183 83 l 1183 0 l 626 0 l -30 0 l -30 83 l 138 83 l 138 123 q 142 203 138 167 q 154 272 146 238 q 216 399 169 332 q 364 523 280 483 q 454 550 405 540 q 559 561 503 561 l 602 561 l 602 83 l 1005 83 "},"":{"x_min":7,"x_max":1144,"ha":1221,"o":"m 1144 561 l 1144 0 l 629 0 l 629 -33 q 537 -250 629 -157 q 434 -318 490 -295 q 315 -341 378 -341 q 98 -249 189 -341 q 7 -34 7 -158 l 7 117 q 7 128 7 124 q 11 143 8 132 q 25 171 15 153 q 51 197 34 184 q 88 214 66 206 l 88 -35 q 157 -192 88 -124 q 322 -260 227 -260 q 481 -192 415 -260 q 548 -36 548 -124 l 548 236 q 581 308 548 276 l 592 318 l 605 327 q 629 337 614 332 l 629 83 l 802 83 l 802 344 q 810 381 802 361 l 820 396 l 833 410 q 856 431 845 424 q 885 443 867 438 l 885 83 l 1063 83 l 1063 463 l 1065 482 l 1071 500 q 1075 509 1074 507 q 1081 518 1076 511 l 1096 535 l 1112 547 l 1118 551 q 1144 561 1129 557 m 653 734 q 687 749 667 749 q 725 731 706 749 q 742 694 742 713 q 725 656 742 676 q 690 642 708 642 q 651 658 668 642 q 639 675 645 665 l 635 697 q 639 715 635 707 q 653 734 643 724 m 750 871 l 768 883 l 785 886 q 822 870 807 886 q 837 832 837 854 q 822 797 837 815 q 787 782 805 782 q 768 785 777 782 l 750 797 l 739 814 q 735 834 735 824 q 737 852 735 844 q 750 871 739 860 m 863 734 q 899 749 879 749 q 935 732 921 749 q 952 694 952 716 q 937 659 952 674 q 900 642 922 644 q 862 658 881 642 q 850 677 854 667 q 846 697 846 688 q 850 715 846 705 l 854 723 l 863 734 "},"":{"x_min":-30,"x_max":861,"ha":986,"o":"m 181 -152 l 198 -141 q 216 -137 204 -139 q 253 -152 238 -137 q 271 -191 268 -168 q 254 -225 271 -209 q 219 -241 238 -239 q 183 -225 199 -241 q 167 -187 167 -209 q 181 -152 167 -169 m -30 0 l -30 83 l 354 83 l 364 83 q 378 86 374 83 q 383 97 382 90 l 382 99 l 381 103 l 371 128 l 327 247 q 284 351 303 313 q 226 440 255 409 q 193 459 215 455 l 159 465 l 124 465 l 108 465 l 108 563 l 123 563 q 202 556 167 563 q 262 527 236 550 q 299 490 281 511 q 316 469 310 478 q 329 451 321 461 q 349 416 339 436 q 371 371 359 397 l 408 275 l 444 171 q 504 90 475 95 l 559 83 l 778 83 l 778 1032 q 781 1056 778 1045 l 786 1070 q 812 1100 793 1086 l 826 1112 l 835 1119 q 861 1130 845 1126 l 861 0 l 558 0 l -30 0 "},"":{"x_min":136,"x_max":257,"ha":386,"o":"m 257 -15 q 238 -57 257 -40 q 195 -74 220 -74 q 153 -57 171 -74 q 136 -15 136 -40 q 153 28 136 10 q 195 47 170 47 q 238 28 220 47 q 257 -15 257 10 "},"":{"x_min":61,"x_max":478.765625,"ha":560,"o":"m 63 180 l 113 748 q 159 831 113 798 q 264 865 204 865 q 363 832 321 865 q 412 748 406 800 l 477 180 l 478 164 l 477 135 q 470 110 475 124 q 441 58 462 86 q 434 49 438 54 q 419 35 430 44 q 389 17 409 27 q 344 2 360 2 l 162 2 q 125 17 150 2 l 96 37 q 78 56 84 46 l 71 70 q 64 92 67 78 l 61 111 l 61 130 l 61 154 q 63 180 61 172 m 323 83 q 354 93 332 83 q 390 121 377 104 l 400 136 l 409 153 l 414 172 l 415 191 l 416 202 l 366 703 q 332 761 366 737 q 264 782 302 782 q 198 761 228 782 q 173 704 173 738 l 142 202 l 142 179 q 140 158 142 164 q 142 138 140 144 l 142 129 l 148 119 q 186 93 156 105 q 218 83 208 83 l 323 83 "},"":{"x_min":59,"x_max":444,"ha":445,"o":"m 417 1093 q 415 1083 417 1084 l 401 1070 q 364 1025 381 1054 q 350 1013 358 1013 q 336 1017 344 1013 q 308 1021 327 1021 l 110 1021 q 89 1030 90 1021 q 90 1040 89 1039 l 105 1053 q 141 1098 124 1069 q 155 1111 147 1111 q 170 1107 160 1111 q 198 1104 179 1104 l 396 1104 q 417 1093 415 1104 m 444 908 q 439 902 442 903 q 437 890 437 900 l 437 843 q 409 761 437 786 q 320 737 382 737 l 312 737 q 272 741 287 737 q 259 746 264 744 q 249 755 255 749 q 219 742 237 747 q 173 737 202 737 q 85 762 111 737 q 59 860 59 787 l 59 961 q 67 980 59 979 q 73 975 71 977 l 80 966 l 104 942 l 131 921 q 144 908 141 913 l 140 902 q 136 890 138 900 l 136 860 q 142 821 136 831 q 173 813 151 813 q 210 856 210 813 l 210 961 q 218 980 210 979 q 224 975 222 977 l 232 966 l 262 938 l 284 919 q 294 908 292 914 q 290 902 292 903 q 287 890 287 900 l 287 842 q 294 818 287 824 q 324 813 302 813 q 352 822 345 813 q 360 860 360 830 l 360 961 q 368 980 360 979 q 372 977 370 979 q 376 973 374 975 l 382 966 l 406 942 l 433 921 q 444 908 442 915 "},"":{"x_min":2,"x_max":587.9375,"ha":721,"o":"m 360 701 l 367 708 l 376 713 l 395 716 q 432 699 415 716 q 449 661 449 682 q 444 644 449 651 q 433 627 442 634 l 425 621 l 415 617 l 398 613 q 360 629 380 613 q 344 667 346 644 q 348 683 344 673 q 360 701 352 692 m 250 0 q 133 -46 183 0 q 83 -156 83 -92 q 133 -289 83 -230 q 190 -330 159 -316 q 259 -345 221 -345 l 523 -345 l 523 -357 q 492 -417 523 -392 l 484 -421 l 476 -424 l 466 -426 l 455 -426 l 437 -426 l 418 -426 l 254 -426 q 76 -345 151 -426 q 2 -156 2 -265 q 77 10 2 -61 q 254 83 152 83 l 281 83 l 275 90 l 270 98 l 235 125 q 221 139 224 135 q 206 155 215 144 q 169 263 169 205 l 169 281 l 171 301 l 175 319 l 181 337 q 259 423 201 394 q 315 442 284 435 q 347 446 329 444 q 381 449 364 449 l 482 449 l 512 449 q 537 444 525 449 q 571 424 555 442 l 577 414 l 581 404 q 585 393 583 402 l 587 383 l 408 383 q 295 363 328 383 q 254 316 266 350 q 248 275 248 291 q 337 137 248 202 q 403 95 375 110 q 451 83 431 83 l 587 83 l 587 0 l 250 0 "},"":{"x_min":59,"x_max":191,"ha":192,"o":"m 191 1025 q 171 978 191 998 q 124 959 151 959 q 78 979 97 959 q 59 1025 59 999 q 77 1073 59 1054 q 124 1092 96 1092 q 171 1071 151 1092 q 191 1025 191 1053 m 146 1025 q 124 1046 146 1046 q 104 1025 104 1046 q 124 1004 104 1006 q 138 1009 132 1004 q 146 1025 144 1014 "},"":{"x_min":-58,"x_max":1094,"ha":1085,"o":"m 608 790 q 623 801 615 797 q 644 807 631 804 q 680 790 664 807 q 696 752 696 773 q 692 734 696 744 q 681 717 689 725 q 646 701 668 703 q 608 717 627 701 q 597 733 603 722 q 594 754 594 743 q 608 790 594 773 m -58 83 l 116 83 l 116 465 q 125 503 116 485 l 134 516 l 148 531 l 159 543 l 170 552 l 183 557 l 197 561 l 197 446 l 839 446 q 978 399 918 446 q 1028 350 1006 379 q 1068 282 1051 321 q 1090 215 1084 253 l 1094 175 l 1094 138 l 1094 85 l 1094 0 l -58 0 l -58 83 m 199 83 l 1011 83 l 1011 138 l 1011 160 l 1011 170 l 1012 183 l 1012 193 q 1012 201 1012 197 q 1011 209 1011 207 l 1011 225 l 998 264 q 936 337 972 313 q 897 355 919 348 q 851 363 875 363 l 199 363 l 199 83 "},"":{"x_min":-30,"x_max":871,"ha":987,"o":"m -30 0 l -30 83 l 354 83 l 364 83 q 379 87 376 83 q 383 96 383 91 l 381 101 l 371 127 l 354 171 l 327 245 q 284 349 302 312 q 256 397 270 376 q 226 437 241 418 q 187 457 214 451 l 157 460 l 124 463 l 108 463 l 108 561 l 123 561 q 206 554 168 561 q 263 525 236 550 q 329 449 300 492 q 339 433 331 447 q 349 414 344 423 l 372 369 l 409 273 l 445 169 q 505 89 477 92 l 555 83 l 790 83 l 790 464 q 797 499 790 485 l 807 515 l 821 531 l 831 540 l 842 549 q 856 556 847 553 l 871 561 l 871 0 l 554 0 l -30 0 m 560 -134 q 575 -128 562 -132 q 593 -123 589 -124 q 609 -120 597 -121 q 646 -135 631 -120 q 664 -173 661 -150 q 647 -207 664 -191 q 612 -224 631 -221 q 576 -207 592 -224 q 560 -169 560 -191 q 558 -161 560 -165 q 555 -146 555 -149 q 560 -134 555 -140 m 710 -134 l 727 -123 q 745 -120 733 -121 q 782 -135 767 -120 q 800 -173 797 -150 q 783 -207 800 -191 q 748 -224 767 -221 q 712 -207 728 -224 q 696 -169 696 -191 q 710 -134 696 -151 m 136 751 q 152 757 139 753 q 169 762 165 761 q 186 766 174 764 q 223 750 208 766 q 241 712 238 736 q 224 678 241 694 q 189 662 208 664 q 153 678 169 662 q 137 716 137 694 q 135 724 137 720 q 132 739 132 736 q 136 751 132 745 "},"":{"x_min":107,"x_max":290.09375,"ha":386,"o":"m 290 192 q 269 143 290 163 q 219 123 248 123 q 138 169 170 123 q 107 285 107 215 q 136 409 107 352 q 224 511 166 467 l 241 488 q 171 395 191 435 q 152 310 152 356 q 152 292 152 298 q 158 270 153 286 q 170 248 163 254 l 192 258 q 220 265 206 265 q 270 243 250 265 q 290 192 290 221 m 269 -13 q 252 -55 269 -37 q 210 -73 235 -73 q 167 -56 185 -73 q 151 -13 151 -37 q 167 29 151 11 q 206 48 183 48 q 251 30 233 48 q 269 -13 269 12 "},"":{"x_min":70,"x_max":323,"ha":433,"o":"m 70 42 l 172 42 l 155 52 l 133 71 q 111 128 111 96 q 111 141 111 134 q 114 155 112 147 q 151 203 124 186 q 176 216 161 211 q 212 221 192 221 l 273 221 l 301 221 l 301 172 l 221 172 l 200 172 q 176 167 190 172 q 154 142 160 163 l 152 127 q 192 66 152 97 q 241 42 225 42 l 323 42 l 323 35 q 318 19 323 24 q 307 3 316 11 l 295 0 l 287 0 l 264 0 l 70 0 l 70 42 "},"":{"x_min":-29.84375,"x_max":264.484375,"ha":205,"o":"m -29 0 l -29 83 l 264 83 l 264 0 l -29 0 "},"":{"x_min":-30,"x_max":945,"ha":1010,"o":"m 222 83 l 519 83 l 519 470 q 395 443 449 470 q 296 356 344 414 q 236 250 253 305 q 226 194 231 228 q 222 118 222 159 l 222 83 m 655 781 q 691 798 671 794 q 728 783 709 798 q 743 746 743 768 q 727 711 743 726 q 691 695 713 695 q 673 698 683 695 q 655 709 664 702 q 641 746 641 724 q 655 781 641 766 m -30 0 l -30 83 l 138 83 l 138 124 q 142 203 138 168 q 154 273 146 239 q 216 399 169 332 q 364 524 280 484 q 454 551 405 541 q 559 561 503 561 l 602 561 l 602 83 l 862 83 l 862 463 q 870 499 862 483 q 894 530 876 514 q 918 549 905 541 q 945 560 926 556 l 945 0 l -30 0 m 811 785 q 847 802 827 798 q 884 787 865 802 q 899 750 899 772 q 883 715 899 730 q 847 699 869 699 q 829 702 839 699 q 811 713 820 706 q 797 750 797 728 q 811 785 797 770 "},"":{"x_min":59,"x_max":988.09375,"ha":1017,"o":"m 781 741 l 736 760 l 690 787 q 678 780 678 787 q 675 775 676 778 q 672 771 674 772 l 722 722 q 756 619 756 682 l 746 599 l 685 679 q 648 712 659 712 l 639 708 l 639 693 q 679 640 648 676 q 702 590 702 616 q 694 561 702 576 q 672 536 687 546 q 648 599 664 574 q 616 624 630 624 q 604 619 611 619 l 616 585 l 629 555 l 629 501 l 609 501 q 595 522 605 508 q 581 540 584 536 l 549 581 l 551 213 l 619 212 l 602 194 l 520 115 l 449 190 l 431 209 l 500 208 l 500 573 l 458 528 q 437 497 446 515 l 418 497 l 418 551 l 429 581 l 442 615 q 429 620 434 616 q 406 605 413 613 q 373 532 383 581 q 349 556 356 543 q 343 585 343 572 q 367 636 343 611 q 394 668 383 654 q 408 689 404 681 l 408 703 l 398 708 q 360 675 386 708 q 333 641 349 663 q 300 595 317 620 l 290 615 q 324 719 290 679 l 373 767 q 368 776 368 772 q 356 783 368 783 l 326 764 q 296 750 318 760 q 265 737 280 744 q 292 795 265 764 q 351 826 319 826 q 381 819 370 826 q 408 801 393 813 l 418 811 q 396 843 400 839 q 359 856 381 856 l 305 836 l 305 846 q 337 886 318 875 q 382 901 360 901 q 419 889 406 901 l 442 860 q 465 898 465 876 q 477 939 469 922 q 507 903 505 927 q 526 859 511 878 q 539 905 539 879 q 569 943 541 933 q 581 901 581 922 q 604 864 584 878 l 628 893 q 663 905 642 905 q 691 899 676 905 q 708 891 699 896 q 742 850 730 878 l 742 840 l 687 860 q 650 846 665 860 q 629 815 641 838 l 639 805 q 666 824 653 818 q 695 830 678 830 q 756 796 729 830 q 781 741 781 766 m 988 225 q 934 218 958 221 q 892 210 910 214 q 744 147 813 190 q 565 -13 647 86 q 599 -48 574 -25 q 644 -87 629 -78 l 640 -62 q 636 -48 638 -55 q 634 -37 634 -41 q 655 -18 636 -18 q 680 -33 674 -18 q 682 -47 682 -37 q 671 -73 680 -67 q 662 -92 662 -80 q 674 -111 662 -97 q 693 -125 686 -125 q 712 -114 704 -125 q 756 -91 729 -91 q 790 -109 781 -91 q 795 -143 795 -118 q 775 -178 795 -158 q 731 -199 754 -199 q 668 -177 697 -199 l 628 -136 q 613 -170 620 -153 q 589 -185 605 -185 q 579 -182 584 -184 q 569 -177 575 -181 q 559 -160 559 -169 q 582 -138 561 -141 q 604 -126 604 -135 q 574 -96 603 -121 q 530 -58 535 -63 l 516 -50 q 506 -60 512 -54 q 483 -79 500 -65 q 442 -118 442 -113 q 465 -131 443 -128 q 487 -152 487 -134 q 478 -167 487 -158 q 457 -177 468 -177 q 429 -153 438 -177 l 418 -128 q 364 -178 373 -172 q 315 -191 342 -191 q 269 -168 292 -191 q 251 -135 251 -150 q 258 -99 251 -115 q 291 -83 267 -83 q 332 -100 319 -83 q 355 -118 344 -118 q 372 -103 363 -116 q 385 -84 385 -90 q 374 -64 385 -71 q 364 -39 364 -56 l 366 -24 q 391 -10 373 -10 q 413 -28 413 -10 l 405 -63 l 405 -79 q 422 -64 411 -73 q 447 -40 433 -54 q 471 -16 463 -25 q 482 -5 479 -8 q 303 156 396 99 q 155 219 233 200 q 118 225 141 222 q 59 233 96 228 q 107 254 85 247 q 168 264 137 264 q 271 244 217 264 q 355 206 326 225 q 448 122 404 174 q 532 38 522 38 q 558 67 549 56 q 601 118 565 75 q 693 198 640 164 q 772 237 724 221 q 878 256 827 256 q 926 250 902 256 q 988 225 950 244 "},"":{"x_min":28,"x_max":356.90625,"ha":386,"o":"m 356 683 q 293 615 312 643 q 267 533 267 575 l 267 519 q 330 499 308 519 q 351 450 351 480 q 332 405 351 423 q 286 388 313 388 q 232 415 254 388 q 216 446 221 428 q 211 485 211 463 q 239 597 211 547 q 335 706 268 647 l 356 683 m 173 683 q 110 615 129 643 q 84 533 84 575 l 84 519 q 146 499 125 519 q 168 450 168 480 q 149 405 168 423 q 103 388 130 388 q 48 415 71 388 q 33 446 38 428 q 28 485 28 463 q 56 597 28 547 q 152 706 84 647 l 173 683 "},"":{"x_min":28,"x_max":357,"ha":386,"o":"m 357 608 q 329 498 357 547 q 232 387 301 448 l 211 410 q 274 478 255 450 q 301 560 301 518 l 301 575 q 237 593 258 575 q 217 643 217 612 q 235 687 217 669 q 281 706 253 706 q 335 678 314 706 q 351 648 346 665 q 357 608 357 631 m 174 608 q 146 498 174 547 q 49 387 118 448 l 28 410 q 91 478 72 450 q 118 560 118 518 l 118 575 q 54 593 75 575 q 33 643 33 612 q 51 687 33 669 q 98 706 70 706 q 152 678 131 706 q 168 648 163 665 q 174 608 174 631 "},"":{"x_min":-65,"x_max":332,"ha":326,"o":"m -65 0 l -65 83 l 251 83 l 251 465 q 260 503 251 485 l 269 516 l 280 528 q 307 551 294 542 q 332 561 315 556 l 332 0 l -65 0 m 27 746 q 60 762 42 762 q 98 742 81 762 q 117 702 117 726 q 101 668 117 684 q 85 658 94 662 q 66 654 77 654 q 29 670 46 654 q 11 709 13 686 q 27 746 11 730 m 124 881 q 158 897 139 897 q 184 890 171 897 l 198 880 q 214 842 214 864 q 209 824 214 831 q 199 808 207 815 q 164 793 184 793 q 125 809 143 793 q 110 847 110 824 q 124 881 110 865 m 238 746 q 273 762 255 762 q 311 742 294 762 q 328 704 328 726 q 311 668 328 685 q 277 654 298 654 q 238 670 257 654 q 226 687 230 679 l 222 709 q 238 746 222 729 "},"":{"x_min":-29.15625,"x_max":527.609375,"ha":521,"o":"m 159 730 q 175 740 166 736 q 194 745 183 745 q 214 741 206 745 q 232 728 221 739 q 249 690 249 713 q 234 656 249 674 q 198 642 217 642 q 162 658 178 642 q 146 696 146 674 q 159 730 146 716 m -29 83 l 355 83 l 368 83 q 380 87 377 83 q 385 97 383 91 l 382 103 l 373 128 l 307 300 q 272 379 292 345 q 226 439 252 412 q 187 459 214 454 q 127 465 161 465 l 110 465 l 110 563 l 124 563 q 148 563 137 563 q 172 563 160 563 q 207 557 189 563 q 238 547 226 554 q 264 529 250 541 q 301 491 283 512 q 330 452 314 477 q 351 416 343 434 l 372 372 l 409 276 l 446 172 q 504 91 475 95 l 527 85 l 527 0 l -29 0 l -29 83 "},"":{"x_min":-30,"x_max":871,"ha":987,"o":"m 684 -155 q 721 -139 701 -141 q 757 -153 737 -139 q 767 -170 763 -160 q 772 -191 772 -179 q 768 -209 772 -202 q 755 -225 766 -216 q 721 -242 741 -242 q 699 -238 705 -242 q 684 -227 693 -235 q 670 -191 670 -213 q 673 -171 670 -179 q 684 -155 676 -163 m -30 0 l -30 83 l 354 83 l 364 83 q 379 88 374 83 q 383 98 383 93 l 381 103 l 371 127 l 354 171 l 327 245 q 284 349 302 312 q 256 397 270 376 q 226 437 241 418 q 187 457 214 451 l 157 460 l 124 463 l 108 463 l 108 561 l 123 561 q 206 554 168 561 q 263 525 236 550 q 329 449 300 492 q 339 433 331 447 q 349 414 344 423 l 372 369 l 409 273 l 445 169 q 505 89 477 92 l 555 83 l 790 83 l 790 464 q 797 499 790 485 l 807 515 l 821 531 l 831 540 l 842 549 q 856 556 847 553 l 871 561 l 871 0 l 554 0 l -30 0 "},"":{"x_min":59,"x_max":321,"ha":322,"o":"m 321 1019 q 288 951 321 987 l 321 927 l 284 908 l 259 926 q 216 888 237 902 q 197 879 204 881 q 181 877 190 877 q 135 901 158 877 q 106 926 116 925 q 84 910 95 926 q 69 894 74 894 q 59 905 59 894 q 76 949 59 928 q 113 972 92 972 q 154 938 126 972 q 179 923 167 923 q 198 928 189 923 q 223 951 207 933 q 207 963 212 958 q 193 980 201 969 q 185 1019 185 996 q 203 1070 185 1051 q 253 1090 221 1090 q 300 1070 280 1090 q 321 1019 321 1050 m 276 1023 q 269 1039 276 1032 q 252 1047 263 1047 q 237 1040 244 1047 q 232 1023 233 1035 q 236 1004 232 1013 q 254 987 242 997 q 276 1023 274 1006 "},"":{"x_min":59,"x_max":444,"ha":445,"o":"m 417 1091 q 415 1081 417 1083 l 401 1069 q 364 1023 380 1050 q 350 1012 358 1012 q 337 1014 344 1012 q 324 1018 330 1017 q 308 1019 318 1019 l 110 1019 q 89 1028 89 1019 q 90 1038 89 1036 l 105 1051 q 141 1097 126 1070 q 155 1109 147 1109 q 169 1105 160 1109 l 198 1102 l 396 1102 q 417 1091 417 1102 m 444 907 q 439 899 442 902 q 437 888 437 897 l 437 841 q 409 760 437 785 q 320 736 381 736 l 312 736 q 273 740 287 736 q 249 754 259 744 q 219 741 239 747 q 199 737 209 738 q 173 736 188 736 q 86 760 111 736 q 59 859 59 787 l 59 959 q 67 978 59 975 q 73 972 71 974 l 80 964 q 92 952 84 960 q 104 940 96 948 l 131 919 q 144 907 141 913 q 140 900 142 902 q 136 889 138 899 l 136 860 q 142 821 136 830 q 173 813 152 813 q 210 855 210 813 l 210 959 q 218 978 210 975 q 224 972 222 974 l 232 964 l 262 936 l 284 918 q 294 907 292 913 q 289 900 292 902 q 287 889 287 899 l 287 841 q 294 818 287 824 q 324 813 301 813 q 342 814 336 813 q 352 821 348 816 q 360 860 360 829 l 360 959 q 368 978 360 975 q 372 975 370 977 q 376 971 374 974 l 382 964 q 394 952 386 960 q 406 940 398 948 l 433 919 q 444 907 442 913 "},"":{"x_min":-30,"x_max":602,"ha":589,"o":"m -30 0 l -30 83 l 138 83 l 138 124 q 142 203 138 168 q 154 272 146 238 q 216 399 169 332 q 364 523 280 483 q 454 550 405 540 q 559 561 503 561 l 602 561 l 602 0 l -30 0 m 222 83 l 519 83 l 519 470 q 395 443 449 470 q 296 356 344 414 q 236 250 253 305 q 226 194 231 228 q 222 118 222 159 l 222 83 "},"":{"x_min":7,"x_max":1144,"ha":1126,"o":"m 1144 561 l 1144 0 l 629 0 l 629 -33 q 537 -250 629 -157 q 434 -318 490 -295 q 315 -341 378 -341 q 98 -249 189 -341 q 7 -34 7 -158 l 7 117 q 7 128 7 124 q 11 143 8 132 q 25 171 15 153 q 51 197 34 184 q 88 214 66 206 l 88 -35 q 157 -192 88 -124 q 322 -260 227 -260 q 481 -192 415 -260 q 548 -36 548 -124 l 548 236 q 581 308 548 276 l 592 318 l 605 327 q 629 337 614 332 l 629 83 l 802 83 l 802 344 q 810 381 802 361 l 820 396 l 833 410 q 856 431 845 424 q 885 443 867 438 l 885 83 l 1063 83 l 1063 462 l 1065 482 l 1071 499 q 1075 509 1074 507 q 1081 518 1076 511 l 1096 535 l 1112 546 l 1118 550 q 1144 561 1129 556 "},"":{"x_min":47,"x_max":245.703125,"ha":294,"o":"m 172 866 l 172 0 l 88 0 l 88 866 l 172 866 m 49 990 l 128 990 l 116 998 l 110 1005 q 80 1057 80 1027 q 83 1078 80 1066 q 159 1128 100 1128 l 207 1128 l 230 1128 l 230 1091 l 167 1091 l 152 1091 q 133 1087 144 1091 q 117 1070 123 1083 q 115 1058 115 1068 q 144 1010 115 1034 q 181 990 169 990 l 245 990 q 227 959 245 972 l 213 959 l 198 959 l 47 959 l 49 990 "},"":{"x_min":2,"x_max":731.703125,"ha":864,"o":"m 727 0 l 250 0 q 133 -46 184 0 q 83 -156 83 -92 q 133 -289 83 -230 q 190 -330 159 -316 q 259 -345 221 -345 l 523 -345 l 523 -357 q 493 -417 523 -392 l 485 -421 l 476 -424 l 466 -426 l 456 -426 l 437 -426 l 418 -426 l 254 -426 q 76 -345 151 -426 q 2 -156 2 -265 q 77 10 2 -61 q 254 83 152 83 l 559 83 l 570 83 q 585 87 580 83 l 587 90 l 589 96 l 585 103 l 575 128 l 558 173 l 532 246 q 489 351 508 312 q 431 439 461 405 q 391 459 419 454 q 330 465 364 465 l 313 465 l 313 563 l 328 563 q 351 563 341 563 q 374 563 362 563 q 410 557 392 563 q 428 554 422 555 q 442 548 433 552 q 467 529 454 543 q 504 491 485 512 q 535 452 520 474 l 560 408 l 577 372 l 615 276 q 650 172 648 173 q 708 91 679 95 l 731 85 l 727 0 m 365 732 l 382 743 l 393 745 l 401 748 q 420 744 411 748 q 439 731 428 740 q 450 714 445 724 q 456 693 453 708 q 439 657 456 675 q 403 643 427 646 q 367 659 384 643 q 351 697 351 674 q 365 732 351 717 "},"":{"x_min":-30,"x_max":861,"ha":986,"o":"m -30 0 l -30 83 l 354 83 l 364 83 q 378 86 374 83 q 383 97 382 90 l 382 99 l 381 103 l 371 128 l 327 247 q 284 351 303 313 q 226 440 255 409 q 193 459 215 455 l 159 465 l 124 465 l 108 465 l 108 563 l 123 563 q 202 556 167 563 q 262 527 236 550 q 299 490 281 511 q 316 469 310 478 q 329 451 321 461 q 349 416 339 436 q 371 371 359 397 l 408 275 l 444 171 q 504 90 475 95 l 559 83 l 778 83 l 778 1032 q 781 1056 778 1045 l 786 1070 q 812 1100 793 1086 l 826 1112 l 835 1119 q 861 1130 845 1126 l 861 0 l 558 0 l -30 0 m 114 838 l 131 849 q 149 853 137 851 q 186 837 171 853 q 204 799 201 823 q 187 765 204 781 q 152 749 171 751 q 116 765 132 749 q 100 803 100 781 q 114 838 100 821 "},"":{"x_min":39,"x_max":1083,"ha":1152,"o":"m 40 404 l 119 404 l 101 418 q 72 467 72 438 q 76 490 72 478 q 103 526 83 511 q 126 537 115 533 q 151 541 138 541 l 199 541 l 220 541 l 220 504 l 157 504 l 139 504 q 125 499 132 504 q 106 481 112 496 l 106 469 q 135 423 106 442 l 156 409 l 173 404 l 235 404 q 218 373 235 387 l 201 369 l 191 369 l 39 369 l 40 404 m 1083 2 l 999 0 l 999 443 l 931 420 q 893 405 906 411 q 865 392 879 400 q 819 366 839 381 q 766 320 789 343 q 724 267 743 297 q 693 134 693 209 l 693 -35 q 599 -250 693 -157 q 378 -343 505 -343 q 158 -250 252 -343 q 68 -36 68 -161 l 68 117 l 68 129 q 72 140 69 136 l 78 153 l 86 169 q 113 196 99 185 l 129 203 l 149 212 l 149 -36 q 218 -195 149 -129 q 295 -246 254 -229 q 383 -263 336 -263 q 542 -195 473 -263 q 593 -122 576 -161 q 610 -35 610 -83 l 610 144 q 657 316 610 239 q 782 451 693 377 q 901 515 823 485 q 955 533 923 523 q 1023 551 988 542 l 1083 563 l 1083 2 "},"":{"x_min":0,"x_max":0,"ha":339},"":{"x_min":-30,"x_max":1272,"ha":1375,"o":"m 222 83 l 517 83 l 519 470 q 395 443 449 470 q 296 356 344 414 q 236 250 253 305 q 226 194 231 228 q 222 118 222 159 l 222 83 m 892 83 l 1189 83 l 1189 470 q 1067 442 1120 470 q 966 356 1014 414 q 906 250 923 305 q 896 194 901 228 q 892 118 892 159 l 892 83 m 809 83 l 809 124 q 825 273 809 213 q 886 399 841 333 q 1034 523 948 482 q 1124 550 1074 540 q 1229 561 1174 561 l 1272 561 l 1272 0 l 602 0 l -30 0 l -30 83 l 138 83 l 138 124 q 142 203 138 168 q 154 272 146 238 q 216 399 169 332 q 364 523 280 483 q 454 550 405 540 q 559 561 503 561 l 602 561 l 602 83 l 809 83 "},"":{"x_min":59,"x_max":444,"ha":445,"o":"m 444 1034 q 439 1027 442 1029 q 437 1016 437 1025 l 437 968 q 409 887 437 912 q 320 863 382 863 l 312 863 q 272 866 287 863 q 259 872 264 869 q 249 880 255 874 q 219 867 237 872 q 173 863 202 863 q 86 887 111 863 q 59 987 59 914 l 59 1087 q 67 1105 59 1105 q 73 1100 71 1102 l 80 1091 l 104 1068 l 131 1047 q 140 1040 137 1044 q 144 1034 143 1036 l 140 1027 q 136 1016 138 1026 l 136 987 q 143 948 136 957 q 173 939 150 939 q 210 982 210 939 l 210 1087 q 218 1105 210 1105 q 224 1100 222 1102 l 232 1091 l 262 1063 l 283 1046 q 294 1034 294 1040 q 290 1027 292 1029 q 287 1016 287 1026 l 287 968 q 294 944 287 950 q 324 939 302 939 q 352 948 345 939 q 360 987 360 956 l 360 1087 q 368 1105 360 1105 q 372 1102 370 1104 q 376 1098 374 1101 l 382 1091 l 406 1068 l 433 1046 q 444 1034 443 1042 m 417 804 q 415 795 417 798 l 400 781 q 391 773 394 776 q 382 762 388 770 q 374 751 379 759 q 365 738 368 744 q 350 726 358 726 l 337 729 q 308 732 326 732 l 110 732 q 89 742 89 732 q 90 751 89 748 l 106 765 q 114 773 111 770 q 124 784 118 776 l 141 809 q 155 822 147 822 q 170 818 160 822 q 198 815 179 815 l 396 815 q 417 804 417 815 m 417 667 q 415 658 417 660 l 400 643 l 382 625 q 375 615 379 621 q 364 599 371 610 q 350 587 358 587 q 337 591 345 587 l 308 595 l 110 595 q 89 605 89 595 q 90 614 89 612 q 95 618 92 616 q 106 627 98 621 l 124 647 l 141 672 q 155 685 147 685 q 169 681 160 685 q 182 679 174 680 q 198 678 190 678 l 396 678 q 417 667 417 678 "},"":{"x_min":81,"x_max":689,"ha":667,"o":"m 606 83 l 606 464 q 614 499 606 483 q 623 516 618 510 l 639 531 l 648 539 l 661 550 l 674 556 l 689 561 l 689 0 l 345 0 l 345 -339 l 81 -339 q 114 -286 87 -308 l 131 -272 l 148 -263 l 167 -258 l 186 -256 l 260 -256 l 260 348 q 266 378 260 366 q 272 392 267 384 q 282 406 276 400 q 287 413 284 410 q 294 419 291 417 l 309 431 q 345 446 327 442 l 345 83 l 606 83 m 402 -152 q 438 -137 417 -137 q 476 -153 458 -137 q 493 -190 488 -164 q 476 -225 493 -208 q 440 -241 464 -236 q 421 -236 432 -241 q 404 -225 413 -232 q 388 -187 388 -208 q 402 -152 388 -166 m 554 -140 q 590 -125 569 -125 q 628 -141 610 -125 q 645 -178 640 -153 q 628 -213 645 -196 q 592 -229 616 -224 q 573 -224 584 -229 q 556 -213 565 -220 q 540 -175 540 -196 q 554 -140 540 -154 "},"":{"x_min":89.15625,"x_max":544,"ha":642,"o":"m 544 39 l 504 0 l 317 187 l 129 0 l 89 39 l 275 227 l 89 416 l 131 455 l 317 267 l 504 455 l 544 416 l 355 228 l 544 39 "},"":{"x_min":-30,"x_max":526.109375,"ha":521,"o":"m -30 83 l 354 83 l 364 83 q 378 86 374 83 q 383 97 382 90 l 382 99 l 381 103 l 371 128 l 327 247 q 284 351 303 313 q 226 440 255 409 q 193 459 215 455 l 159 465 l 124 465 l 108 465 l 108 563 l 123 563 q 202 556 168 563 q 262 527 236 550 q 299 490 281 511 q 316 470 310 478 q 329 451 321 461 q 349 416 339 436 q 371 371 359 397 l 408 275 l 444 171 q 504 90 475 95 l 526 85 l 526 0 l -30 0 l -30 83 m 181 -152 l 198 -141 q 216 -138 204 -139 q 253 -153 238 -138 q 271 -191 268 -168 q 254 -225 271 -209 q 219 -242 238 -239 q 183 -225 199 -242 q 167 -187 167 -209 q 181 -152 167 -169 "},"":{"x_min":-65,"x_max":1087,"ha":1253,"o":"m 608 790 q 623 801 615 797 q 644 807 631 804 q 680 790 664 807 q 696 752 696 773 q 692 734 696 744 q 681 717 689 725 q 646 701 668 703 q 608 717 627 701 q 597 733 603 722 q 594 754 594 743 q 608 790 594 773 m -65 83 l 109 83 l 109 465 q 118 503 109 485 l 127 516 l 141 531 l 152 543 l 163 552 l 176 557 l 190 561 l 190 446 l 832 446 q 971 399 911 446 q 1021 350 999 379 q 1061 282 1044 321 q 1083 215 1077 253 l 1087 175 l 1087 138 l 1087 85 l 1087 0 l -65 0 l -65 83 m 192 83 l 1004 83 l 1004 138 l 1004 160 l 1004 170 l 1005 183 l 1005 193 q 1005 201 1005 197 q 1004 209 1004 207 l 1004 225 l 991 264 q 929 337 965 313 q 890 355 912 348 q 844 363 868 363 l 192 363 l 192 83 "},"":{"x_min":-30,"x_max":1183,"ha":1274,"o":"m 226 83 l 519 83 l 519 470 q 395 443 449 470 q 296 356 344 414 q 236 250 253 304 q 226 193 231 228 q 222 118 222 158 l 226 83 m 1005 83 l 1021 81 q 1035 85 1030 81 q 1040 96 1039 89 l 1037 101 l 1028 127 l 983 245 q 941 349 959 314 q 883 437 916 400 q 843 457 870 451 l 813 460 l 781 463 l 765 463 l 765 561 l 779 561 q 863 554 825 561 q 919 525 891 550 q 986 449 957 491 q 995 433 987 446 q 1005 414 1001 423 l 1028 369 l 1064 273 l 1101 168 q 1161 89 1133 91 l 1183 83 l 1183 0 l 626 0 l -30 0 l -30 83 l 138 83 l 138 123 q 142 203 138 167 q 154 272 146 238 q 216 399 169 332 q 364 523 280 483 q 454 550 405 540 q 559 561 503 561 l 602 561 l 602 83 l 1005 83 m 770 818 l 787 828 q 805 833 795 833 q 843 816 825 833 q 860 780 857 802 q 843 745 860 762 q 809 729 827 731 q 772 745 788 729 q 759 762 764 754 q 756 783 756 771 q 770 818 756 803 "},"":{"x_min":59,"x_max":444,"ha":445,"o":"m 345 1018 q 311 949 345 984 l 345 925 l 309 906 l 284 922 l 259 900 l 239 885 l 198 861 q 174 851 180 851 q 164 860 164 851 l 164 878 q 179 896 164 892 q 200 907 194 903 q 215 918 203 909 q 249 949 234 933 q 216 981 228 963 q 210 997 213 987 q 207 1018 207 1007 q 226 1068 207 1048 q 276 1088 245 1088 q 325 1068 306 1088 q 345 1018 345 1049 m 444 764 q 439 757 442 760 q 437 746 437 755 l 437 699 q 409 617 437 642 q 320 593 381 593 l 312 593 q 273 597 287 593 q 249 611 259 601 q 219 598 239 604 q 199 594 209 595 q 173 593 188 593 q 86 617 111 593 q 59 717 59 644 l 59 817 q 67 836 59 834 q 73 830 71 832 l 80 822 q 92 810 84 818 q 104 798 96 806 l 131 777 q 144 764 141 771 q 140 758 142 760 q 136 746 138 756 l 136 717 q 142 678 136 687 q 173 670 152 670 q 210 712 210 670 l 210 817 q 218 836 210 834 q 224 830 222 832 l 232 822 l 262 794 l 284 775 q 294 764 292 771 q 289 758 292 760 q 287 746 287 756 l 287 699 q 294 675 287 681 q 324 670 301 670 q 342 671 336 670 q 352 678 348 673 q 360 717 360 686 l 360 817 q 368 836 360 834 q 372 834 370 835 q 376 829 374 832 l 382 822 q 394 810 386 818 q 406 798 398 806 l 433 777 q 444 764 442 771 m 299 1020 q 276 1044 299 1044 q 256 1020 256 1044 q 260 1001 256 1009 q 266 993 262 998 q 278 983 269 991 q 288 992 283 987 q 295 1002 292 997 q 299 1020 297 1006 "},"":{"x_min":40,"x_max":969,"ha":1072,"o":"m 262 83 l 559 83 l 559 478 q 492 471 521 478 q 434 449 461 465 q 384 414 409 436 q 337 366 361 396 q 316 337 327 353 q 299 311 308 325 q 276 257 285 286 q 262 127 262 201 l 262 83 m 775 -155 q 811 -139 793 -141 q 848 -153 827 -139 q 863 -191 863 -170 q 859 -209 863 -201 q 846 -225 856 -216 q 811 -242 832 -242 q 792 -238 799 -242 q 775 -227 784 -236 q 761 -191 761 -212 q 764 -171 761 -179 q 775 -155 767 -163 m 886 83 l 886 457 l 888 474 l 894 492 q 918 524 900 506 q 941 542 928 535 q 969 553 950 549 l 969 0 l 123 0 l 123 -339 l 40 -339 l 40 83 l 178 83 l 178 127 q 182 206 178 171 q 194 276 186 240 q 256 402 210 336 q 404 525 319 485 q 599 566 490 566 l 642 566 l 642 83 l 886 83 "},"":{"x_min":-31,"x_max":1135.453125,"ha":1089,"o":"m -30 403 l 49 403 l 29 416 q 2 468 2 438 q 5 490 2 481 q 33 526 11 512 q 80 540 51 540 l 129 540 l 151 540 l 151 504 l 91 504 q 52 497 65 504 q 38 481 40 491 l 34 466 q 65 420 34 443 q 103 403 86 406 l 165 403 q 147 371 165 383 q 131 368 144 368 l 119 368 l -31 368 l -30 403 m 1135 83 l 1135 0 l 932 0 l 932 440 q 912 430 925 439 q 893 419 898 421 q 883 417 888 417 q 873 419 880 417 q 865 419 867 420 q 751 363 788 392 q 697 320 719 341 q 658 270 674 298 q 634 206 642 242 q 626 131 626 170 l 626 -36 q 532 -253 626 -161 q 310 -345 438 -345 q 92 -253 185 -345 q 0 -36 0 -162 l 0 115 q 1 127 0 123 q 5 139 2 131 l 11 152 l 20 166 q 81 210 42 198 l 81 -37 q 150 -199 81 -128 q 227 -248 185 -231 q 316 -265 269 -265 q 477 -197 409 -265 q 527 -123 509 -165 q 545 -37 545 -82 l 545 141 q 590 314 545 238 q 715 449 627 379 q 834 512 757 484 l 892 531 l 953 548 l 998 558 l 1015 561 l 1015 83 l 1135 83 "},"":{"x_min":0,"x_max":973,"ha":958,"o":"m 762 826 q 777 836 768 832 q 797 841 786 841 q 833 823 818 841 q 850 786 850 809 q 846 768 850 774 q 835 751 844 760 q 800 737 818 737 q 762 753 782 737 q 746 791 750 767 q 762 826 746 809 m 973 561 l 973 0 l 0 0 l 0 351 q 25 409 0 379 q 49 432 31 421 q 81 446 60 440 l 81 83 l 889 83 l 889 145 l 743 145 q 601 202 664 145 q 539 341 539 259 q 597 494 539 427 q 743 561 656 561 l 973 561 m 892 237 l 892 476 l 762 476 q 712 467 735 476 q 668 437 689 458 q 629 348 629 400 q 670 269 629 301 q 762 237 711 237 l 892 237 "},"":{"x_min":2,"x_max":1192,"ha":1311,"o":"m 365 -137 q 401 -122 380 -122 q 439 -138 421 -122 q 456 -175 451 -149 q 439 -210 456 -193 q 403 -226 427 -221 q 384 -221 395 -226 q 367 -210 376 -217 q 351 -172 351 -193 q 365 -137 351 -151 m 1109 85 l 1109 1032 q 1116 1067 1109 1051 q 1143 1100 1123 1083 l 1166 1119 q 1192 1130 1174 1125 l 1192 0 l 250 0 q 133 -46 184 0 q 83 -156 83 -92 q 133 -289 83 -230 q 190 -330 159 -316 q 259 -345 221 -345 l 523 -345 l 523 -357 q 493 -417 523 -392 l 485 -421 l 476 -424 l 466 -426 l 456 -426 l 437 -426 l 418 -426 l 254 -426 q 76 -345 151 -426 q 2 -156 2 -265 q 77 10 2 -61 q 254 83 152 83 l 559 83 l 570 83 q 585 87 580 83 l 587 90 l 589 96 l 585 103 l 575 128 l 558 173 l 532 246 q 489 351 508 312 q 431 439 461 405 q 391 459 419 454 q 330 465 364 465 l 313 465 l 313 563 l 328 563 q 351 563 341 563 q 375 563 362 563 q 410 557 392 563 q 428 554 422 555 q 442 548 434 552 q 467 528 454 543 q 504 491 485 512 q 535 452 520 474 l 560 408 l 577 372 l 615 275 q 650 171 649 172 q 708 90 679 95 l 731 85 l 1109 85 "},"":{"x_min":116,"x_max":1270,"ha":1253,"o":"m 717 786 q 753 803 731 803 q 773 799 765 803 q 789 786 780 796 q 801 770 796 781 q 806 750 806 760 q 789 714 806 732 q 754 699 776 699 q 717 714 732 699 q 700 751 703 728 q 717 786 700 769 m 116 83 l 291 83 l 291 1028 q 300 1066 291 1048 l 323 1096 q 372 1126 340 1117 l 372 445 l 1015 445 q 1154 398 1094 445 q 1205 348 1183 377 q 1244 283 1228 318 q 1266 214 1260 248 l 1270 180 l 1270 135 l 1270 83 l 1270 0 l 116 0 l 116 83 m 374 83 l 1187 83 l 1187 138 l 1187 160 l 1187 170 l 1188 183 l 1188 194 q 1188 202 1188 198 q 1187 209 1187 207 l 1187 225 l 1174 264 q 1112 338 1148 314 q 1073 356 1095 349 q 1027 364 1050 364 l 374 364 l 374 83 "},"":{"x_min":83,"x_max":553,"ha":540,"o":"m 103 802 q 138 818 117 814 q 175 800 159 818 q 192 762 192 783 q 176 728 192 741 q 160 717 170 721 q 142 714 155 715 q 120 717 129 714 q 104 729 111 720 q 90 768 90 747 q 92 786 90 779 q 103 802 94 793 m 553 2 l 83 2 q 90 33 83 19 q 110 60 95 45 q 142 77 127 71 q 174 83 157 83 l 468 83 l 468 260 l 468 285 l 468 293 q 465 332 468 322 q 455 366 462 349 q 436 400 449 381 q 291 478 381 478 l 169 478 l 147 478 l 127 486 q 85 561 85 506 l 279 561 q 412 537 355 561 q 510 455 469 513 q 546 368 534 414 q 550 330 548 355 q 553 271 553 304 l 553 2 "},"":{"x_min":-30,"x_max":945,"ha":1010,"o":"m 222 83 l 519 83 l 519 470 q 395 443 449 470 q 296 356 344 414 q 236 250 253 305 q 226 194 231 228 q 222 118 222 159 l 222 83 m 665 -144 q 701 -128 681 -131 q 738 -142 719 -128 q 753 -179 753 -157 q 737 -214 753 -199 q 701 -231 723 -231 q 683 -227 693 -231 q 665 -216 674 -224 q 651 -179 651 -201 q 665 -144 651 -159 m -30 0 l -30 83 l 138 83 l 138 124 q 142 203 138 168 q 154 272 146 238 q 216 399 169 332 q 364 523 280 483 q 454 550 405 540 q 559 561 503 561 l 602 561 l 602 83 l 862 83 l 862 464 q 870 499 862 484 q 894 531 876 514 q 918 550 905 542 q 945 561 926 556 l 945 0 l -30 0 m 821 -139 q 857 -123 837 -126 q 894 -137 875 -123 q 909 -174 909 -152 q 893 -209 909 -194 q 857 -226 879 -226 q 839 -222 849 -226 q 821 -211 830 -219 q 807 -174 807 -196 q 821 -139 807 -154 "},"":{"x_min":-30,"x_max":757,"ha":814,"o":"m -30 83 l 160 83 l 160 235 q 194 307 160 275 q 243 334 218 327 l 243 83 l 417 83 l 417 343 q 425 379 417 361 l 435 396 q 448 410 440 405 l 458 422 l 470 431 l 482 437 l 498 440 l 498 83 l 676 83 l 676 463 q 709 533 676 502 l 720 544 l 725 546 q 757 561 737 553 l 757 0 l -30 0 l -30 83 "},"":{"x_min":-24,"x_max":1128,"ha":1115,"o":"m -24 83 l 150 83 l 150 1030 q 159 1069 150 1050 l 182 1098 q 231 1128 199 1119 l 231 448 l 873 448 q 1012 401 952 448 q 1063 351 1041 380 q 1102 286 1086 321 q 1124 217 1118 251 l 1128 183 l 1128 138 l 1128 86 l 1128 0 l -24 0 l -24 83 m 233 83 l 1045 83 l 1045 142 l 1045 164 l 1045 174 l 1046 187 l 1046 197 q 1046 205 1046 201 q 1045 213 1045 211 l 1045 229 l 1032 268 q 970 341 1006 317 q 931 359 953 352 q 885 367 909 367 l 233 367 l 233 83 "},"":{"x_min":81,"x_max":689,"ha":667,"o":"m 606 83 l 606 465 q 614 500 606 484 q 623 516 618 511 l 639 531 l 648 540 l 661 551 l 674 556 l 689 561 l 689 0 l 345 0 l 345 -339 l 81 -339 q 114 -286 87 -308 l 131 -272 l 148 -263 l 167 -258 l 186 -256 l 260 -256 l 260 348 q 266 378 260 366 q 272 392 267 384 q 282 406 276 400 q 287 413 284 410 q 294 419 291 417 l 309 431 q 345 446 327 442 l 345 83 l 606 83 m 398 791 q 434 807 413 807 q 472 790 454 807 q 489 753 484 779 q 472 718 489 735 q 436 703 460 707 q 417 707 428 703 q 400 718 409 711 q 384 756 384 735 q 398 791 384 777 m 550 802 q 586 818 565 818 q 624 801 606 818 q 641 765 636 790 q 624 729 641 746 q 588 714 612 718 q 569 718 580 714 q 552 729 561 722 q 536 767 536 746 q 550 802 536 788 "},"":{"x_min":58.671875,"x_max":386.234375,"ha":387,"o":"m 386 1096 q 385 1087 386 1090 q 370 1073 384 1085 q 361 1065 364 1068 q 352 1055 356 1060 q 343 1043 348 1050 q 334 1029 338 1035 q 319 1017 328 1017 q 305 1020 315 1017 q 277 1024 296 1024 l 79 1024 q 58 1034 58 1024 q 60 1043 58 1040 l 75 1057 q 83 1065 79 1061 q 93 1076 87 1069 l 110 1101 q 125 1114 117 1114 l 138 1110 q 167 1107 148 1107 l 365 1107 q 386 1096 386 1107 m 386 958 q 384 948 386 950 l 369 935 l 351 917 q 344 907 348 913 q 334 892 340 902 q 319 880 328 880 q 306 883 315 880 l 277 886 l 79 886 q 58 894 59 886 q 60 905 58 903 l 75 918 q 84 926 81 923 q 93 937 87 929 l 110 963 q 125 976 117 976 q 138 972 129 976 q 151 970 143 971 q 167 969 159 969 l 365 969 q 386 958 386 969 "},"":{"x_min":-30,"x_max":871,"ha":987,"o":"m 181 -152 l 198 -141 q 216 -138 204 -139 q 253 -153 238 -138 q 271 -191 268 -168 q 254 -225 271 -209 q 219 -242 238 -239 q 183 -225 199 -242 q 167 -187 167 -209 q 181 -152 167 -169 m -30 0 l -30 83 l 354 83 l 364 83 q 379 87 376 83 q 383 96 383 91 l 381 101 l 371 127 l 354 171 l 327 245 q 284 349 302 312 q 256 397 270 376 q 226 437 241 418 q 187 457 214 451 l 157 460 l 124 463 l 108 463 l 108 561 l 123 561 q 206 554 168 561 q 263 525 236 550 q 329 449 300 492 q 339 433 331 447 q 349 414 344 423 l 372 369 l 409 273 l 445 169 q 505 89 477 92 l 555 83 l 790 83 l 790 464 q 797 499 790 485 l 807 515 l 821 531 l 831 540 l 842 549 q 856 556 847 553 l 871 561 l 871 0 l 554 0 l -30 0 m 574 -134 l 591 -123 q 609 -120 597 -121 q 646 -134 631 -120 q 664 -172 661 -149 q 647 -207 664 -191 q 612 -224 631 -221 q 576 -207 592 -224 q 560 -169 560 -191 q 574 -134 560 -151 m 710 -134 l 727 -123 q 745 -120 733 -121 q 782 -134 767 -120 q 800 -172 797 -149 q 783 -207 800 -191 q 748 -224 767 -221 q 712 -207 728 -224 q 696 -169 696 -191 q 710 -134 696 -151 "},"":{"x_min":59,"x_max":239,"ha":240,"o":"m 239 1020 q 231 988 239 1004 q 206 952 224 974 l 237 928 l 203 908 l 178 925 l 159 908 l 134 888 l 94 863 q 69 853 75 854 q 59 862 59 853 l 59 880 q 74 898 59 893 q 110 921 91 906 q 123 932 117 926 q 144 952 133 941 q 111 983 123 966 q 105 999 108 989 q 102 1020 102 1009 q 121 1071 102 1051 q 170 1091 140 1091 q 219 1071 199 1091 q 239 1020 239 1053 m 193 1023 q 186 1040 193 1034 q 171 1048 181 1048 q 156 1041 163 1048 q 151 1023 152 1035 q 155 1004 151 1012 q 172 987 159 996 q 189 1005 184 998 q 193 1023 191 1010 "},"":{"x_min":81,"x_max":1096,"ha":1179,"o":"m 1096 0 l 1015 0 l 1015 440 l 974 429 q 834 363 876 398 q 778 318 801 342 q 737 263 755 294 q 707 131 707 208 l 707 -36 q 613 -253 707 -161 q 391 -345 519 -345 q 173 -253 266 -345 q 81 -36 81 -162 l 81 115 q 85 137 81 127 l 93 155 l 101 166 q 164 210 124 198 l 164 -37 q 232 -199 164 -129 q 309 -248 267 -231 q 398 -265 351 -265 q 558 -199 490 -265 q 607 -125 589 -166 q 626 -37 626 -83 l 626 141 q 636 232 626 191 q 673 314 647 273 q 722 380 691 346 q 797 449 752 412 q 848 482 819 466 q 915 512 878 498 l 973 531 l 1039 548 q 1096 561 1087 561 l 1096 0 m 270 -363 q 286 -355 277 -358 l 304 -353 q 343 -365 328 -353 q 361 -396 361 -381 l 361 -404 q 357 -411 358 -409 q 344 -423 352 -418 q 328 -431 339 -427 l 310 -436 q 290 -432 300 -436 q 270 -422 279 -429 q 253 -391 253 -408 q 270 -363 253 -376 m 481 -363 q 497 -355 488 -358 l 515 -353 q 553 -365 537 -353 q 562 -380 556 -367 q 570 -396 565 -388 q 554 -423 570 -411 q 519 -436 538 -436 q 500 -431 510 -436 l 481 -422 l 468 -407 q 464 -391 464 -400 q 468 -376 464 -383 q 481 -363 472 -370 "},"":{"x_min":-30,"x_max":1390,"ha":1545,"o":"m 190 83 l 488 83 l 488 448 q 408 439 444 448 q 340 411 373 431 q 281 364 307 391 q 232 297 255 336 q 212 257 220 277 q 203 231 208 246 q 198 215 202 228 q 190 123 190 175 l 190 83 m 571 83 l 868 83 l 868 123 l 868 146 q 868 162 868 154 q 868 176 868 172 q 861 218 868 195 q 825 297 853 251 q 777 361 805 332 q 720 408 753 388 q 650 438 688 428 q 571 448 612 448 l 571 83 m 1071 0 l -30 0 l -30 83 l 109 83 l 107 121 l 109 167 q 110 187 109 178 q 114 208 111 196 q 118 229 115 220 q 125 250 121 238 l 144 296 q 279 472 195 411 q 490 538 370 538 l 490 555 q 497 592 490 577 l 509 607 l 524 622 l 545 635 l 556 638 l 571 642 l 571 536 q 678 520 627 536 q 778 470 730 504 q 854 397 820 440 q 914 295 887 353 l 932 244 l 942 201 l 949 150 l 951 93 l 951 85 l 962 83 l 1307 83 l 1307 1032 q 1310 1056 1307 1045 l 1315 1070 q 1341 1100 1322 1086 l 1355 1112 l 1364 1119 q 1390 1130 1374 1126 l 1390 0 l 1071 0 "},"":{"x_min":-19,"x_max":1135,"ha":1253,"o":"m 582 786 q 618 803 596 803 q 638 799 630 803 q 654 786 645 796 q 666 770 661 781 q 671 750 671 760 q 654 714 671 732 q 619 699 641 699 q 582 714 597 699 q 565 751 568 728 q 582 786 565 769 m -19 83 l 156 83 l 156 1028 q 165 1066 156 1048 l 188 1096 q 237 1126 205 1117 l 237 445 l 880 445 q 1019 398 959 445 q 1070 348 1048 377 q 1109 283 1093 318 q 1131 214 1125 248 l 1135 180 l 1135 135 l 1135 83 l 1135 0 l -19 0 l -19 83 m 239 83 l 1052 83 l 1052 138 l 1052 160 l 1052 170 l 1053 183 l 1053 194 q 1053 202 1053 198 q 1052 209 1052 207 l 1052 225 l 1039 264 q 977 338 1013 314 q 938 356 960 349 q 892 364 915 364 l 239 364 l 239 83 "},"":{"x_min":-30,"x_max":1021,"ha":1112,"o":"m 222 83 l 519 83 l 519 470 q 395 443 449 470 q 296 356 344 414 q 236 250 253 305 q 226 194 231 228 q 222 118 222 159 l 222 83 m 716 746 q 750 762 732 762 q 789 742 771 762 q 806 702 806 725 q 791 668 806 684 q 775 658 784 662 q 755 654 766 654 q 717 670 736 654 q 705 688 710 679 q 701 709 701 698 q 716 746 701 730 m 813 881 q 847 897 829 897 q 885 880 867 897 q 904 842 904 864 q 899 824 904 831 q 888 808 897 815 q 853 793 874 793 q 815 809 834 793 q 803 826 807 817 l 799 847 q 813 881 799 865 m 927 746 q 943 757 935 753 q 962 762 952 762 q 1000 742 981 762 q 1017 704 1017 726 q 1000 668 1017 685 q 966 654 987 654 q 927 670 947 654 q 911 709 913 686 q 927 746 911 728 m -30 0 l -30 83 l 138 83 l 138 124 q 142 203 138 168 q 154 273 146 239 q 216 399 169 332 q 364 524 280 484 q 454 551 405 541 q 559 561 503 561 l 602 561 l 602 83 l 940 83 l 940 465 q 949 503 940 485 l 957 516 q 968 528 962 522 l 983 541 l 995 551 l 1008 556 l 1021 561 l 1021 0 l -30 0 "},"":{"x_min":51,"x_max":625.40625,"ha":599,"o":"m 94 884 l 177 884 l 177 95 l 94 94 l 94 884 m 625 0 l 508 0 l 508 -164 q 448 -290 508 -239 q 307 -341 389 -341 q 160 -293 224 -341 q 94 -164 94 -243 l 94 -91 l 177 -90 l 177 -164 q 185 -201 177 -184 q 214 -232 194 -218 q 296 -256 250 -256 q 341 -250 319 -256 q 381 -232 362 -244 q 422 -164 422 -206 l 422 1130 l 505 1130 l 505 83 l 625 83 l 625 0 m 52 990 l 131 990 l 113 1005 q 84 1055 84 1026 q 88 1077 84 1065 q 98 1098 92 1089 q 115 1114 105 1106 q 162 1128 138 1128 l 212 1128 l 233 1128 l 233 1091 l 172 1091 l 154 1091 q 138 1088 146 1091 l 127 1081 q 120 1074 123 1079 l 118 1056 q 147 1009 118 1030 l 168 996 l 185 990 l 247 990 q 233 959 247 971 l 217 959 l 203 959 l 51 959 l 52 990 "},"":{"x_min":-30,"x_max":945,"ha":1010,"o":"m 222 83 l 519 83 l 519 470 q 395 443 449 470 q 296 356 344 414 q 236 250 253 305 q 226 194 231 228 q 222 118 222 159 l 222 83 m 725 -140 q 761 -124 741 -127 q 798 -138 779 -124 q 813 -175 813 -153 q 797 -210 813 -195 q 761 -227 783 -227 q 743 -223 753 -227 q 725 -212 734 -220 q 711 -175 711 -197 q 725 -140 711 -155 m -30 0 l -30 83 l 138 83 l 138 124 q 142 203 138 168 q 154 272 146 238 q 216 399 169 332 q 364 523 280 483 q 454 550 405 540 q 559 561 503 561 l 602 561 l 602 83 l 862 83 l 862 464 q 870 499 862 484 q 894 531 876 514 q 918 550 905 542 q 945 561 926 556 l 945 0 l -30 0 "},"":{"x_min":40,"x_max":969,"ha":1072,"o":"m 262 83 l 559 83 l 559 478 q 492 471 521 478 q 434 449 461 465 q 384 414 409 436 q 337 366 361 396 q 316 337 327 353 q 299 311 308 325 q 276 257 285 286 q 262 127 262 201 l 262 83 m 761 1053 q 796 1069 776 1065 q 833 1054 815 1069 q 844 1038 840 1047 q 849 1017 849 1029 q 845 999 849 1008 q 833 982 842 990 q 816 970 824 974 q 796 966 808 966 q 761 980 776 966 q 747 1017 747 994 q 750 1037 747 1028 q 761 1053 753 1045 m 886 83 l 886 457 l 888 474 l 894 492 q 918 524 900 506 q 941 542 928 535 q 969 553 950 549 l 969 0 l 123 0 l 123 -339 l 40 -339 l 40 83 l 178 83 l 178 127 q 182 206 178 171 q 194 276 186 240 q 256 402 210 336 q 404 525 319 484 q 599 565 490 565 l 642 565 l 642 83 l 886 83 "},"":{"x_min":2,"x_max":626,"ha":608,"o":"m 626 -35 q 532 -252 626 -159 q 429 -320 485 -297 q 310 -343 373 -343 q 94 -252 186 -343 q 2 -36 2 -162 l 2 74 q 5 101 2 92 l 20 128 q 83 172 42 160 l 83 -35 q 151 -193 83 -125 q 228 -243 186 -226 q 317 -260 270 -260 q 477 -193 410 -260 q 528 -120 511 -159 q 545 -36 545 -81 l 545 146 l 399 146 q 255 204 315 146 q 195 343 195 263 q 253 495 195 431 q 319 545 284 529 q 399 561 354 561 l 626 561 l 626 -35 m 275 816 q 309 830 292 830 q 348 812 330 830 q 366 774 362 798 q 349 737 366 753 q 314 724 338 727 q 276 741 294 724 q 260 781 260 756 q 275 816 260 800 m 485 816 q 520 830 502 830 q 558 812 542 830 q 576 774 576 796 q 559 738 576 755 q 524 724 546 724 q 486 741 504 724 q 470 781 470 760 q 485 816 470 800 m 545 471 l 415 471 q 321 433 361 471 q 282 344 282 396 q 321 266 282 298 q 415 234 361 234 l 545 234 l 545 471 "},"":{"x_min":81,"x_max":345,"ha":448,"o":"m 345 -339 l 81 -339 q 114 -286 87 -308 l 131 -272 l 148 -263 l 167 -258 l 186 -256 l 260 -256 l 260 348 q 266 378 260 366 q 272 392 267 384 q 282 406 276 399 q 287 413 284 410 q 294 419 291 416 l 309 431 q 345 446 327 441 l 345 -339 "},"":{"x_min":-65,"x_max":1087,"ha":1156,"o":"m -65 83 l 109 83 l 109 1030 q 118 1069 109 1050 l 141 1098 q 190 1128 158 1119 l 190 448 l 832 448 q 971 401 911 448 q 1022 351 1000 380 q 1061 286 1045 321 q 1083 217 1077 251 l 1087 183 l 1087 138 l 1087 86 l 1087 0 l -65 0 l -65 83 m 192 83 l 1004 83 l 1004 142 l 1004 164 l 1004 174 l 1005 187 l 1005 197 q 1005 205 1005 201 q 1004 213 1004 211 l 1004 229 l 991 268 q 929 341 965 317 q 890 359 912 352 q 844 367 868 367 l 192 367 l 192 83 "},"":{"x_min":-36,"x_max":1297,"ha":1287,"o":"m 1297 0 l -36 0 l -36 83 l 1217 83 l 1217 165 l 1217 179 l 1217 187 q 1217 195 1217 191 q 1217 203 1217 200 q 1213 226 1217 214 q 1209 247 1212 237 q 1199 268 1206 256 q 1138 340 1178 311 q 1097 359 1120 353 q 1051 366 1075 366 l 109 366 l 95 366 q 82 368 86 366 q 72 374 77 368 l 68 386 q 77 406 68 395 q 92 420 81 413 l 705 864 l 379 530 l 362 515 l 349 502 q 331 471 331 485 q 335 459 331 463 l 348 451 l 357 451 l 370 451 l 387 451 l 1045 451 q 1183 403 1123 451 q 1274 283 1233 365 q 1285 253 1280 271 l 1292 223 l 1297 194 l 1297 158 l 1297 128 l 1297 98 l 1297 88 l 1297 0 "},"":{"x_min":-30,"x_max":1192,"ha":1291,"o":"m 807 83 l 1109 83 l 1109 470 q 985 443 1039 470 q 886 356 934 414 q 827 250 843 305 q 817 194 821 228 q 812 118 812 159 l 807 83 m -30 0 l -30 83 l 354 83 l 364 83 q 378 86 374 83 q 383 97 382 90 l 382 99 l 381 103 l 371 128 l 327 247 q 284 351 303 313 q 226 440 255 409 q 193 459 215 455 l 159 465 l 124 465 l 108 465 l 108 563 l 123 563 q 202 556 168 563 q 262 527 236 550 q 299 490 281 511 q 316 469 310 478 q 329 451 321 461 q 349 416 339 436 q 371 371 359 397 l 408 275 l 444 171 q 504 90 475 95 l 559 81 l 728 81 l 728 124 q 732 204 728 168 q 744 273 736 239 q 806 400 759 333 q 954 525 870 485 q 1044 552 995 542 q 1149 563 1093 563 l 1192 563 l 1192 0 l 559 0 l -30 0 m 128 839 l 145 850 q 163 854 151 852 q 200 838 185 854 q 218 800 215 824 q 201 766 218 782 q 166 750 185 752 q 130 766 146 750 q 114 804 114 782 q 128 839 114 822 "},"":{"x_min":2,"x_max":974,"ha":952,"o":"m 240 510 q 275 525 257 525 q 311 508 298 525 q 328 472 328 492 q 311 437 328 454 q 278 421 299 425 q 240 437 257 421 q 226 475 226 453 q 240 510 226 492 m 891 83 l 891 464 q 899 499 891 483 q 908 516 903 510 l 924 531 l 933 539 l 946 550 l 959 556 l 974 561 l 974 0 l 627 0 l 627 -36 q 533 -253 627 -161 q 310 -345 439 -345 q 94 -253 187 -345 q 2 -36 2 -162 l 2 127 q 5 150 2 141 l 20 178 q 83 222 42 208 l 83 -37 q 151 -197 83 -130 q 229 -248 187 -231 q 317 -265 271 -265 q 478 -197 410 -265 q 529 -123 512 -163 q 546 -36 546 -83 l 546 310 l 546 346 q 550 375 546 362 q 574 420 554 398 l 584 431 l 597 442 l 627 456 l 627 83 l 891 83 m 691 -158 q 726 -144 708 -144 q 762 -160 749 -144 q 779 -196 779 -176 q 762 -231 779 -214 q 729 -248 750 -243 q 691 -231 708 -248 q 677 -193 677 -215 q 691 -158 677 -176 m 838 -158 q 873 -144 855 -144 q 909 -160 896 -144 q 926 -196 926 -176 q 909 -231 926 -214 q 876 -248 897 -243 q 838 -231 855 -248 q 824 -193 824 -215 q 838 -158 824 -176 "},"":{"x_min":70,"x_max":334,"ha":418,"o":"m 240 698 l 256 709 l 266 712 q 275 712 272 712 q 313 697 295 712 q 330 661 327 683 q 314 627 330 643 q 278 608 299 611 q 242 625 258 608 q 226 663 226 639 q 229 682 226 674 q 240 698 233 691 m 334 -339 l 70 -339 q 82 -308 74 -323 q 103 -285 91 -295 q 137 -261 119 -271 l 154 -256 l 175 -256 l 249 -256 l 249 348 l 249 364 q 253 379 249 368 l 260 392 q 270 406 265 402 l 283 419 l 297 429 l 316 439 l 334 446 l 334 -339 "},"":{"x_min":0,"x_max":602,"ha":583,"o":"m 602 561 l 602 0 l 83 0 l 83 -345 l 0 -345 l 0 79 l 138 79 l 138 122 q 142 201 138 167 q 154 271 146 235 q 216 396 170 332 q 365 521 280 481 q 559 561 450 561 l 602 561 m 222 83 l 519 83 l 519 473 q 452 466 481 473 q 424 458 435 463 q 394 443 412 453 q 344 409 369 430 q 297 359 319 388 q 259 306 274 331 q 237 254 245 281 q 226 193 230 227 q 222 121 222 159 l 222 83 "},"":{"x_min":71,"x_max":566,"ha":642,"o":"m 566 197 l 348 197 l 348 -22 l 291 -22 l 291 197 l 71 197 l 71 253 l 291 253 l 291 476 l 348 476 l 348 253 l 566 253 l 566 197 "},"":{"x_min":76,"x_max":532,"ha":642,"o":"m 203 -91 l 203 -161 q 239 -230 203 -204 q 322 -256 276 -256 q 368 -250 350 -256 q 408 -233 388 -246 q 449 -162 449 -205 l 449 1131 l 532 1131 l 532 -161 q 472 -287 532 -236 q 333 -339 412 -339 q 184 -291 244 -339 q 117 -161 117 -238 l 117 -91 l 203 -91 m 117 1131 l 198 1131 l 198 230 l 117 230 l 117 1131 m 78 20 l 155 20 q 126 43 144 25 q 108 84 108 63 l 112 106 q 122 126 116 118 q 139 142 128 135 q 163 153 150 149 q 187 158 175 158 l 235 158 l 259 158 l 259 119 l 195 119 l 178 119 q 161 115 170 119 q 142 98 148 113 l 142 93 l 142 86 q 172 38 142 61 q 198 24 184 30 l 209 20 l 273 20 q 268 2 273 9 q 258 -9 266 -3 q 241 -14 250 -12 l 227 -14 l 76 -14 l 78 20 "},"":{"x_min":59,"x_max":256,"ha":294,"o":"m 182 1130 l 182 0 l 98 0 l 98 1130 l 182 1130 m 61 -206 l 139 -206 l 119 -191 q 90 -139 90 -171 q 94 -119 90 -131 q 122 -83 102 -97 q 170 -70 142 -70 l 218 -70 l 240 -70 l 240 -106 l 178 -106 q 146 -110 160 -106 q 127 -124 131 -115 l 125 -142 q 155 -187 125 -165 q 193 -206 180 -206 l 256 -206 q 239 -237 256 -223 l 222 -240 l 211 -240 l 59 -240 l 61 -206 "},"":{"x_min":90.203125,"x_max":558,"ha":543,"o":"m 558 0 l 90 0 q 96 31 90 17 q 118 59 103 46 l 132 68 l 147 77 l 166 81 l 181 81 l 475 81 l 475 256 q 468 347 475 316 q 464 359 466 354 q 459 370 462 364 q 453 382 456 376 q 443 397 450 388 q 298 477 388 477 l 175 477 l 150 477 q 132 483 144 478 q 103 513 114 494 q 90 558 90 534 l 286 558 q 420 532 360 558 q 517 452 475 510 q 551 366 541 411 q 558 268 558 331 l 558 0 "},"":{"x_min":-9,"x_max":308,"ha":240,"o":"m 64 -158 q 99 -142 80 -144 q 136 -156 118 -142 q 147 -173 143 -164 q 152 -194 152 -181 q 135 -228 152 -213 q 99 -245 120 -245 q 80 -241 88 -245 q 64 -230 72 -239 q 50 -194 50 -216 q 52 -174 50 -182 q 64 -158 54 -166 m -9 0 l -9 83 l 225 83 l 225 464 q 233 499 225 484 q 257 531 241 516 l 267 540 l 281 550 l 289 554 l 308 561 l 308 0 l -9 0 "},"":{"x_min":-30,"x_max":871,"ha":987,"o":"m 513 839 l 530 850 q 548 854 536 852 q 585 838 570 854 q 603 800 600 824 q 586 766 603 782 q 551 750 570 752 q 515 766 531 750 q 499 804 499 782 q 513 839 499 822 m -30 0 l -30 83 l 354 83 l 365 83 q 379 88 374 83 q 384 98 384 93 l 381 103 l 371 127 l 354 171 l 327 245 q 284 349 303 312 q 256 397 270 376 q 226 437 242 418 q 187 457 214 451 l 157 460 l 124 463 l 108 463 l 108 561 l 123 561 q 206 554 168 561 q 263 525 236 550 q 329 449 300 492 q 339 433 331 447 q 349 414 344 423 l 372 369 l 409 273 l 445 169 q 505 89 477 92 l 555 83 l 790 83 l 790 464 q 797 499 790 485 l 807 515 l 821 531 l 831 540 l 842 549 q 856 556 847 553 l 871 561 l 871 0 l 554 0 l -30 0 m 656 839 l 673 850 q 691 854 679 852 q 728 838 713 854 q 746 800 743 824 q 729 766 746 782 q 694 750 713 752 q 658 766 674 750 q 642 804 642 782 q 656 839 642 822 "},"":{"x_min":54,"x_max":519,"ha":513,"o":"m 193 721 l 273 721 q 264 726 268 723 q 254 734 260 729 q 226 783 226 755 q 229 806 226 797 q 256 842 236 827 q 305 857 276 857 l 354 857 l 374 857 l 374 820 l 314 820 q 290 818 297 820 q 276 813 282 817 q 262 799 266 809 l 260 785 q 290 737 260 761 l 312 725 q 327 721 320 721 l 390 721 q 372 687 390 701 l 362 685 l 354 685 l 343 685 l 192 685 l 193 721 m 436 -260 l 436 0 l 54 0 l 54 78 q 64 248 54 198 q 133 397 81 328 q 281 520 195 480 q 478 560 367 560 l 519 560 l 519 -341 l 56 -341 q 66 -312 58 -326 q 90 -287 74 -299 q 123 -266 104 -273 q 160 -260 139 -260 l 436 -260 m 138 83 l 436 83 l 436 473 q 312 444 364 473 q 213 359 259 416 q 176 305 192 331 q 164 282 169 293 q 155 253 159 270 q 142 192 148 227 q 139 158 140 175 q 138 121 138 140 l 138 83 "},"":{"x_min":-30,"x_max":529,"ha":663,"o":"m -30 83 l 446 83 l 446 155 l 300 155 q 158 212 220 155 q 97 350 97 269 q 110 431 97 393 q 156 502 124 468 q 301 568 215 568 l 529 568 l 529 0 l -30 0 l -30 83 m 317 833 l 326 841 l 335 845 l 352 848 q 390 831 372 848 q 407 793 404 815 q 403 776 407 784 q 390 758 400 768 q 355 745 378 745 q 319 759 334 745 q 303 797 303 774 q 317 833 303 818 m 446 482 l 317 482 q 225 444 267 482 q 187 355 187 409 q 227 276 187 308 q 317 244 267 244 l 446 244 l 446 482 "},"":{"x_min":59,"x_max":444,"ha":445,"o":"m 444 1021 q 439 1014 442 1016 q 437 1003 437 1012 l 437 955 q 409 874 437 899 q 320 850 381 850 l 312 850 q 273 854 287 850 q 249 869 259 859 q 219 855 239 861 q 199 851 209 852 q 173 850 188 850 q 86 874 111 850 q 59 974 59 901 l 59 1074 q 67 1093 59 1090 q 73 1087 71 1089 l 80 1079 q 92 1067 84 1075 q 104 1055 96 1063 l 131 1034 q 144 1021 141 1027 q 140 1015 142 1017 q 136 1003 138 1013 l 136 974 q 142 935 136 944 q 173 927 152 927 q 210 969 210 927 l 210 1074 q 218 1093 210 1090 q 224 1087 222 1089 l 232 1079 l 262 1050 l 284 1032 q 294 1021 292 1027 q 289 1015 292 1017 q 287 1003 287 1013 l 287 956 q 294 932 287 938 q 324 927 301 927 q 342 928 336 927 q 352 935 348 930 q 360 974 360 943 l 360 1074 q 368 1093 360 1090 q 372 1090 370 1092 q 376 1086 374 1089 l 382 1079 q 394 1067 386 1075 q 406 1055 398 1063 l 433 1033 q 444 1021 442 1027 "},"":{"x_min":2,"x_max":793,"ha":884,"o":"m 793 560 l 793 0 l 2 0 l 2 354 q 8 385 2 369 l 15 398 l 28 415 q 53 436 38 427 q 71 444 61 440 q 85 449 74 446 l 85 83 l 709 83 l 709 465 q 718 503 709 486 q 740 531 721 512 l 749 540 l 764 549 q 793 560 774 556 m 254 619 q 287 633 268 633 q 326 616 310 633 q 341 578 341 599 q 338 559 341 567 q 324 541 334 551 q 291 528 311 528 q 253 544 270 528 q 242 560 246 551 l 237 582 l 237 592 l 239 601 l 245 611 l 254 619 m 462 619 q 496 633 476 633 q 514 629 506 633 q 533 616 522 625 q 551 576 551 596 q 534 541 551 559 q 503 528 521 528 q 463 545 480 528 q 447 585 447 562 q 450 603 447 596 q 462 619 453 610 "},"":{"x_min":70,"x_max":151,"ha":217,"o":"m 151 865 l 151 0 l 70 0 l 70 865 l 151 865 "},"":{"x_min":2,"x_max":792,"ha":776,"o":"m 792 560 l 792 0 l 2 0 l 2 354 q 8 385 2 369 l 15 398 l 28 415 q 53 436 38 427 q 71 444 61 440 q 85 449 74 446 l 85 83 l 708 83 l 708 465 q 717 503 708 486 q 739 531 720 512 q 792 560 760 554 m 258 596 q 292 610 269 607 q 330 593 315 610 q 349 552 345 576 q 333 517 349 533 q 297 504 318 504 q 278 508 288 504 l 259 520 q 242 559 242 537 q 258 596 242 579 m 355 735 l 372 745 q 390 749 382 749 q 411 745 403 749 q 428 734 420 743 q 440 716 436 725 q 445 695 445 706 q 430 662 445 676 q 395 647 415 647 q 373 650 382 647 q 357 661 365 653 q 341 699 341 675 q 347 721 341 709 l 355 735 m 470 596 q 485 605 476 602 l 504 610 q 525 606 515 610 q 544 592 534 602 q 561 552 561 573 q 557 533 561 540 q 544 517 555 526 q 510 504 531 504 q 471 520 491 504 q 454 559 454 537 q 470 596 454 578 "},"":{"x_min":-29,"x_max":369,"ha":355,"o":"m -29 0 l -29 83 l 288 83 l 288 464 q 297 503 288 485 l 305 515 l 317 528 l 343 550 q 354 555 345 552 q 369 561 363 559 l 369 0 l -29 0 m 64 -97 q 98 -82 78 -82 q 136 -99 120 -82 q 154 -138 154 -115 q 139 -174 154 -157 q 104 -189 125 -185 q 65 -172 82 -189 q 53 -153 57 -163 l 48 -132 q 64 -97 48 -113 m 274 -97 q 308 -82 288 -82 q 348 -99 330 -82 q 364 -138 364 -117 q 349 -172 364 -158 q 312 -189 334 -186 q 274 -172 293 -189 q 262 -155 266 -164 l 258 -132 q 274 -97 258 -113 "},"":{"x_min":59,"x_max":444,"ha":445,"o":"m 352 1026 q 319 958 352 993 l 352 934 l 317 915 l 290 931 q 246 896 269 909 q 212 885 228 887 q 167 908 190 885 q 137 934 148 931 q 117 918 128 934 q 100 901 106 902 q 90 913 90 901 q 93 935 90 925 q 107 957 97 945 q 144 979 123 979 q 186 947 156 979 q 198 934 194 938 q 210 931 203 931 q 227 934 220 931 q 242 946 234 938 q 254 958 247 952 q 225 987 236 970 q 215 1026 215 1004 q 233 1077 215 1057 q 283 1097 252 1097 q 332 1077 312 1097 q 352 1026 352 1057 m 444 772 q 439 766 442 768 q 437 755 437 764 l 437 707 q 409 626 437 651 q 320 602 382 602 l 312 602 q 272 606 287 602 q 259 611 263 609 q 249 620 255 614 q 219 607 237 612 q 173 602 202 602 q 85 627 111 602 q 59 725 59 652 l 59 825 q 67 844 59 843 q 73 839 71 841 l 80 830 l 104 806 l 131 785 q 144 772 141 778 l 140 766 q 136 755 138 765 l 136 725 q 142 686 136 696 q 173 678 151 678 q 210 721 210 678 l 210 825 q 218 844 210 843 q 224 839 222 841 l 232 830 l 263 802 l 284 783 q 294 772 292 778 q 290 766 292 768 q 287 755 287 765 l 287 707 q 294 683 287 689 q 324 678 302 678 q 352 687 345 678 q 360 725 360 695 l 360 825 q 368 844 360 843 q 372 841 370 843 q 376 837 374 839 l 382 830 l 406 806 l 433 785 q 444 772 442 779 m 307 1029 q 283 1053 307 1053 q 263 1029 263 1053 q 267 1010 263 1017 q 287 992 272 1002 q 295 1000 293 997 q 302 1010 298 1004 q 304 1016 303 1012 q 307 1029 305 1020 "},"":{"x_min":-31.203125,"x_max":1333,"ha":1316,"o":"m -31 0 l -31 83 l 1252 83 l 1252 164 l 1252 178 q 1247 226 1252 206 l 1245 240 q 1234 268 1243 253 q 1173 340 1212 311 q 1132 359 1154 353 q 1087 366 1110 366 l 145 366 l 131 366 q 118 368 122 366 q 108 374 113 368 l 104 386 q 112 406 104 394 q 128 420 117 413 l 741 864 l 415 530 l 398 514 l 385 502 q 368 471 368 485 q 371 459 368 462 l 383 451 l 406 451 l 423 451 l 1080 451 q 1219 403 1158 451 q 1244 381 1231 394 q 1267 353 1257 367 q 1310 283 1290 323 l 1321 253 l 1329 217 q 1332 186 1332 200 q 1333 158 1333 171 l 1333 128 l 1333 98 l 1333 88 l 1333 0 l -31 0 "},"":{"x_min":-65,"x_max":1087,"ha":1143,"o":"m -65 83 l 109 83 l 109 464 q 118 503 109 485 l 127 515 l 141 531 l 152 542 l 163 551 l 176 556 l 190 561 l 190 446 l 832 446 q 971 399 911 446 q 1021 350 999 379 q 1061 282 1044 321 q 1083 215 1077 253 l 1087 175 l 1087 138 l 1087 85 l 1087 0 l -65 0 l -65 83 m 192 83 l 1004 83 l 1004 138 l 1004 160 l 1004 170 l 1005 183 l 1005 193 q 1005 201 1005 197 q 1004 209 1004 207 l 1004 225 l 991 264 q 929 337 965 313 q 890 355 912 348 q 844 363 868 363 l 192 363 l 192 83 "},"":{"x_min":2,"x_max":974,"ha":952,"o":"m 240 510 q 275 525 257 525 q 311 508 298 525 q 328 472 328 492 q 311 437 328 454 q 278 421 299 425 q 240 437 257 421 q 226 475 226 453 q 240 510 226 492 m 788 -155 q 823 -139 804 -141 q 860 -153 841 -139 q 875 -191 875 -168 q 871 -209 875 -201 q 858 -225 868 -216 q 823 -242 845 -242 q 804 -238 811 -242 q 788 -227 797 -236 q 773 -191 773 -213 q 776 -172 773 -179 q 788 -155 779 -164 m 891 83 l 891 464 q 899 499 891 483 q 908 516 903 510 l 924 531 l 933 539 l 946 550 l 959 556 l 974 561 l 974 0 l 627 0 l 627 -36 q 533 -253 627 -161 q 310 -345 439 -345 q 94 -253 187 -345 q 2 -36 2 -162 l 2 127 q 5 150 2 141 l 20 178 q 83 222 42 208 l 83 -37 q 151 -197 83 -130 q 229 -248 187 -231 q 317 -265 271 -265 q 478 -197 410 -265 q 529 -123 512 -163 q 546 -36 546 -83 l 546 310 l 546 346 q 550 375 546 362 q 574 420 554 398 l 584 431 l 597 442 l 627 456 l 627 83 l 891 83 "},"":{"x_min":81,"x_max":689,"ha":667,"o":"m 503 -155 q 538 -139 519 -141 q 575 -153 556 -139 q 590 -191 590 -168 q 586 -209 590 -201 q 573 -225 583 -216 q 538 -242 560 -242 q 519 -238 526 -242 q 503 -227 512 -236 q 488 -191 488 -213 q 491 -172 488 -179 q 503 -155 494 -164 m 606 83 l 606 464 q 614 499 606 483 q 623 516 618 510 l 639 531 l 648 539 l 661 550 l 674 556 l 689 561 l 689 0 l 345 0 l 345 -339 l 81 -339 q 114 -286 87 -308 l 131 -272 l 148 -263 l 167 -258 l 186 -256 l 260 -256 l 260 348 q 266 378 260 366 q 272 392 267 384 q 282 406 276 400 q 287 413 284 410 q 294 419 291 417 l 309 431 q 345 446 327 442 l 345 83 l 606 83 "},"":{"x_min":57,"x_max":356.71875,"ha":386,"o":"m 356 494 q 197 281 248 386 q 146 65 146 176 q 196 -145 146 -36 q 255 -251 222 -204 q 354 -371 284 -293 l 348 -380 q 290 -342 312 -356 q 250 -311 265 -324 q 181 -245 221 -288 q 87 -96 118 -174 q 57 68 57 -19 q 84 220 57 152 q 173 361 111 289 q 242 429 206 398 q 284 461 261 445 q 345 503 307 478 l 356 494 "},"":{"x_min":2,"x_max":711.359375,"ha":629,"o":"m 360 701 l 367 708 l 376 713 l 395 716 q 432 699 415 716 q 449 661 449 682 q 444 644 449 651 q 433 627 442 634 l 425 621 l 415 617 l 398 613 q 360 629 380 613 q 344 667 346 644 q 348 683 344 673 q 360 701 352 692 m 250 0 q 133 -46 184 0 q 83 -156 83 -92 q 133 -289 83 -230 q 190 -330 159 -316 q 259 -345 221 -345 l 523 -345 l 523 -357 q 492 -417 523 -392 l 484 -421 l 476 -424 l 466 -426 l 455 -426 l 437 -426 l 418 -426 l 254 -426 q 76 -345 151 -426 q 2 -156 2 -265 q 77 10 2 -61 q 254 83 152 83 l 281 83 l 275 90 l 270 98 l 235 125 q 221 139 224 135 q 206 155 215 144 q 169 263 169 205 l 169 281 l 171 301 l 175 319 l 181 337 q 259 423 201 394 q 315 442 284 435 q 347 446 329 444 q 381 449 364 449 l 482 449 l 512 449 q 537 444 525 449 q 571 424 555 442 l 577 414 l 581 404 q 585 393 583 402 l 587 383 l 408 383 q 295 363 328 383 q 254 316 266 350 q 248 275 248 291 q 337 137 248 202 q 403 95 376 110 q 451 83 431 83 l 711 83 l 711 0 l 250 0 "},"":{"x_min":2,"x_max":792,"ha":895,"o":"m 792 560 l 792 0 l 2 0 l 2 354 q 8 385 2 369 l 15 398 l 28 415 q 53 436 38 427 q 71 444 61 440 q 85 449 74 446 l 85 83 l 708 83 l 708 465 q 717 503 708 486 q 739 531 720 512 q 792 560 760 554 m 258 596 q 292 610 269 607 q 330 593 315 610 q 349 552 345 576 q 333 517 349 533 q 297 504 318 504 q 278 508 288 504 l 259 520 q 242 559 242 537 q 258 596 242 579 m 355 735 l 372 745 q 390 749 382 749 q 411 745 403 749 q 428 734 420 743 q 440 716 436 725 q 445 695 445 706 q 430 662 445 676 q 395 647 415 647 q 373 650 382 647 q 357 661 365 653 q 341 699 341 675 q 347 721 341 709 l 355 735 m 470 596 q 485 605 476 602 l 504 610 q 525 606 515 610 q 544 592 534 602 q 561 552 561 573 q 557 533 561 540 q 544 517 555 526 q 510 504 531 504 q 471 520 491 504 q 454 559 454 537 q 470 596 454 578 "},"":{"x_min":-47,"x_max":740,"ha":865,"o":"m -47 83 l 143 83 l 143 235 q 176 307 143 276 q 226 334 201 328 l 226 83 l 400 83 l 400 343 l 401 360 l 407 379 l 417 396 q 430 410 422 405 l 440 421 l 451 431 q 481 440 463 438 l 481 83 l 659 83 l 659 463 q 692 533 659 503 l 701 540 q 708 545 705 544 l 722 552 l 740 560 l 740 0 l -47 0 l -47 83 m 246 728 q 280 742 259 742 q 301 738 293 742 q 318 725 309 735 q 335 687 335 708 q 330 669 335 675 l 325 660 q 318 653 323 657 q 284 638 307 642 q 246 654 265 638 q 230 694 230 673 q 246 728 230 714 m 343 865 q 378 882 357 879 q 416 865 398 882 q 432 829 432 852 q 428 810 432 818 q 417 793 425 802 q 382 779 402 779 q 343 793 359 779 l 332 811 q 328 830 328 821 q 343 865 328 850 m 457 728 q 491 742 473 742 q 528 725 514 742 q 545 689 545 710 q 541 670 545 676 q 528 653 539 662 q 513 642 522 646 l 495 638 q 456 654 475 638 q 444 673 448 662 q 440 694 440 683 q 444 711 440 701 q 457 728 448 721 "},"":{"x_min":2,"x_max":587.9375,"ha":721,"o":"m 250 0 q 133 -46 183 0 q 83 -156 83 -92 q 133 -289 83 -230 q 190 -330 159 -316 q 259 -345 221 -345 l 523 -345 l 523 -357 q 492 -417 523 -392 l 484 -421 l 476 -424 l 466 -426 l 455 -426 l 437 -426 l 418 -426 l 254 -426 q 76 -345 151 -426 q 2 -156 2 -265 q 77 10 2 -61 q 254 83 152 83 l 281 83 l 275 90 l 270 98 l 235 125 q 221 139 224 136 q 206 155 215 144 q 169 264 169 206 l 169 282 l 171 302 l 175 320 l 181 337 q 259 424 201 395 q 315 443 284 436 q 347 447 329 445 q 381 450 364 450 l 482 450 l 512 450 q 537 445 525 450 q 571 425 555 443 l 577 415 l 581 405 q 585 394 583 403 l 587 384 l 408 384 q 295 364 328 384 q 254 317 266 351 q 248 276 248 291 q 337 137 248 203 q 403 95 375 110 q 451 83 431 83 l 587 83 l 587 0 l 250 0 "},"":{"x_min":2,"x_max":627,"ha":731,"o":"m 627 -36 q 533 -253 627 -161 q 310 -345 439 -345 q 94 -253 187 -345 q 2 -36 2 -162 l 2 127 q 5 150 2 141 l 20 178 q 83 222 42 208 l 83 -37 q 151 -197 83 -130 q 229 -248 187 -231 q 317 -265 271 -265 q 478 -197 410 -265 q 529 -123 512 -163 q 546 -36 546 -83 l 546 310 l 546 346 q 550 375 546 362 q 574 420 554 398 l 584 431 l 597 442 l 627 456 l 627 -36 m 240 510 q 275 525 257 525 q 311 508 298 525 q 328 472 328 492 q 311 437 328 454 q 278 421 299 425 q 240 437 257 421 q 226 475 226 453 q 240 510 226 492 "},"":{"x_min":7,"x_max":1144,"ha":1126,"o":"m 1144 561 l 1144 0 l 629 0 l 629 -33 q 537 -250 629 -157 q 434 -318 490 -295 q 315 -341 378 -341 q 98 -249 189 -341 q 7 -34 7 -158 l 7 117 q 7 128 7 124 q 11 143 8 132 q 25 171 15 153 q 51 197 34 184 q 88 214 66 206 l 88 -35 q 157 -192 88 -124 q 322 -260 227 -260 q 481 -192 415 -260 q 548 -36 548 -124 l 548 236 q 581 308 548 276 l 592 318 l 605 327 q 629 337 614 332 l 629 83 l 802 83 l 802 344 q 810 381 802 361 l 820 396 l 833 410 q 856 431 845 424 q 885 443 867 438 l 885 83 l 1063 83 l 1063 463 l 1065 482 l 1071 500 q 1075 509 1074 507 q 1081 518 1076 511 l 1096 535 l 1112 547 l 1118 551 q 1144 561 1129 557 m 653 734 q 687 749 667 749 q 725 731 706 749 q 742 694 742 713 q 725 656 742 676 q 690 642 708 642 q 651 658 668 642 q 639 675 645 665 l 635 697 q 639 715 635 707 q 653 734 643 724 m 750 871 l 768 883 l 785 886 q 822 870 807 886 q 837 832 837 854 q 822 797 837 815 q 787 782 805 782 q 768 785 777 782 l 750 797 l 739 814 q 735 834 735 824 q 737 852 735 844 q 750 871 739 860 m 863 734 q 899 749 879 749 q 935 732 921 749 q 952 694 952 716 q 937 659 952 674 q 900 642 922 644 q 862 658 881 642 q 850 677 854 667 q 846 697 846 688 q 850 715 846 705 l 854 723 l 863 734 "},"":{"x_min":73.59375,"x_max":539,"ha":525,"o":"m 456 -260 l 456 0 l 73 0 l 73 78 q 84 248 73 198 q 153 398 101 329 q 299 520 214 480 q 496 561 385 561 l 539 561 l 539 -341 l 75 -341 q 110 -287 82 -310 l 125 -275 l 141 -266 q 180 -260 160 -260 l 456 -260 m 157 83 l 456 83 l 456 473 q 390 466 419 473 q 331 443 360 460 q 233 359 280 417 q 197 306 212 331 q 174 252 182 281 q 161 192 165 223 q 157 121 157 162 l 157 83 "},"":{"x_min":58.671875,"x_max":386.234375,"ha":387,"o":"m 386 -322 q 384 -331 386 -328 l 369 -345 l 351 -364 l 334 -389 q 319 -401 327 -401 q 306 -398 315 -401 l 277 -395 l 79 -395 q 58 -384 58 -395 q 60 -375 58 -377 l 75 -360 l 93 -342 q 101 -331 95 -339 q 110 -318 106 -323 q 125 -305 117 -305 q 138 -308 129 -305 q 151 -310 143 -309 q 167 -312 159 -312 l 365 -312 q 386 -322 386 -312 "},"":{"x_min":59,"x_max":239,"ha":240,"o":"m 239 1019 q 231 986 239 1002 q 222 971 226 977 q 206 951 216 962 l 237 927 l 203 907 l 178 924 l 159 907 l 134 887 q 94 862 117 874 l 69 851 q 59 860 59 851 l 59 879 q 74 897 59 892 q 110 920 88 903 q 127 934 118 925 q 144 950 137 942 q 111 982 123 965 q 105 998 108 988 q 102 1019 102 1008 q 121 1069 102 1049 q 170 1090 140 1090 q 219 1070 199 1090 q 239 1019 239 1050 m 193 1022 q 186 1039 193 1032 q 171 1047 181 1047 q 156 1040 163 1047 q 151 1022 152 1034 q 155 1002 151 1011 q 172 986 159 994 q 182 996 176 989 q 190 1006 188 1002 q 193 1022 191 1009 "},"":{"x_min":-29.84375,"x_max":549.3125,"ha":684,"o":"m -29 83 l 199 83 l 187 98 q 149 127 167 112 q 136 139 143 132 q 121 155 129 146 q 83 264 83 208 l 85 300 q 88 317 86 309 q 96 337 91 325 q 174 424 116 396 q 230 443 199 436 q 296 450 261 450 l 397 450 l 427 450 q 452 445 440 450 q 485 425 472 443 l 497 408 q 504 384 504 396 l 323 384 q 229 373 259 384 q 170 317 185 359 q 165 300 168 312 q 162 276 162 288 q 252 137 162 203 q 365 83 327 83 l 549 83 l 549 0 l -29 0 l -29 83 "},"":{"x_min":2,"x_max":731.421875,"ha":864,"o":"m 727 0 l 250 0 q 133 -46 183 0 q 83 -156 83 -92 q 133 -289 83 -230 q 190 -330 159 -316 q 259 -345 221 -345 l 523 -345 l 523 -357 q 492 -417 523 -392 l 484 -421 l 475 -424 l 466 -426 l 455 -426 l 437 -426 l 418 -426 l 254 -426 q 76 -345 151 -426 q 2 -156 2 -265 q 77 10 2 -61 q 254 83 152 83 l 559 83 l 570 83 q 584 87 580 83 l 586 90 l 589 96 l 584 103 l 575 128 l 558 173 l 532 246 q 489 351 508 312 q 431 439 461 405 q 391 459 419 454 q 329 465 363 465 l 313 465 l 313 563 l 328 563 q 351 563 340 563 q 374 563 362 563 q 409 557 392 563 q 427 554 422 555 q 441 548 433 552 q 466 529 454 543 q 504 491 485 512 q 534 452 519 474 l 560 408 l 577 372 l 614 276 q 650 172 648 173 q 708 91 679 95 l 731 85 l 727 0 "},"":{"x_min":56.625,"x_max":527.640625,"ha":566,"o":"m 527 -102 l 491 -102 l 261 168 l 491 435 l 523 435 l 357 168 l 527 -102 m 319 -102 l 285 -102 l 56 168 l 287 434 l 319 435 l 153 168 l 319 -102 "},"":{"x_min":81,"x_max":1096,"ha":1179,"o":"m 1096 0 l 1015 -2 l 1015 440 l 974 429 q 834 363 876 398 q 778 318 801 342 q 737 263 755 294 q 707 131 707 208 l 707 -36 q 613 -253 707 -161 q 391 -345 519 -345 q 173 -253 266 -345 q 81 -36 81 -162 l 81 115 q 85 137 81 127 l 93 155 l 101 166 q 164 210 124 198 l 164 -37 q 232 -199 164 -129 q 309 -248 267 -231 q 398 -265 351 -265 q 558 -199 490 -265 q 607 -125 589 -166 q 626 -37 626 -83 l 626 141 q 636 232 626 191 q 673 314 647 273 q 722 380 691 346 q 797 449 752 412 q 848 482 819 466 q 915 512 878 498 l 973 531 l 1039 548 q 1096 561 1087 561 l 1096 0 "},"":{"x_min":-66,"x_max":250,"ha":233,"o":"m 111 730 q 127 741 117 736 q 146 745 133 743 q 167 741 160 745 q 183 728 175 739 q 201 690 201 715 q 197 675 201 685 q 186 656 194 665 q 151 642 169 642 q 113 657 130 642 q 97 696 97 673 q 111 730 97 712 m -66 0 l -66 83 l 167 83 l 167 465 q 175 500 167 484 l 184 516 l 199 531 l 209 540 l 222 551 l 235 556 l 250 561 l 250 0 l -66 0 "},"":{"x_min":61.03125,"x_max":528,"ha":656,"o":"m 528 561 l 528 0 l 61 0 l 61 77 q 73 247 61 188 q 141 396 88 328 q 290 521 206 481 q 484 561 373 561 l 528 561 m 146 83 l 444 83 l 444 473 q 319 443 372 473 q 270 409 291 427 q 221 359 242 385 q 161 252 179 309 q 151 195 156 229 q 146 121 146 160 l 146 83 "},"":{"x_min":133,"x_max":256,"ha":386,"o":"m 253 670 q 253 648 253 659 q 251 621 251 630 q 248 594 251 609 q 242 560 246 580 l 218 422 q 207 281 207 345 l 207 204 l 179 204 l 178 283 q 177 322 178 294 q 175 355 175 350 q 173 390 175 370 q 166 432 170 410 q 145 560 166 445 q 133 669 133 631 q 149 745 133 715 q 193 775 165 775 q 237 747 221 775 q 253 670 253 720 m 256 94 q 237 53 256 70 q 195 36 219 36 q 153 52 171 36 q 135 94 135 68 q 152 138 135 120 q 195 157 170 157 q 237 138 219 157 q 256 94 256 120 "},"":{"x_min":0,"x_max":973,"ha":1060,"o":"m 762 826 q 777 836 768 832 q 797 841 786 841 q 833 823 818 841 q 850 786 850 809 q 846 768 850 774 q 835 751 844 760 q 800 737 818 737 q 762 753 782 737 q 746 791 750 767 q 762 826 746 809 m 973 561 l 973 0 l 0 0 l 0 351 q 25 409 0 379 q 49 432 31 421 q 81 446 60 440 l 81 83 l 889 83 l 889 145 l 743 145 q 601 202 664 145 q 539 341 539 259 q 597 494 539 427 q 743 561 656 561 l 973 561 m 892 237 l 892 476 l 762 476 q 712 467 735 476 q 668 437 689 458 q 629 348 629 400 q 670 269 629 301 q 762 237 711 237 l 892 237 "},"":{"x_min":97,"x_max":415.71875,"ha":397,"o":"m 415 0 l 97 0 l 97 1130 q 124 1119 109 1127 q 147 1098 130 1115 q 183 1026 183 1067 l 183 83 l 415 83 l 415 0 "},"":{"x_min":2,"x_max":1117,"ha":1101,"o":"m 1117 -2 l 626 -2 l 626 -36 q 532 -254 626 -162 q 310 -346 438 -346 q 95 -254 188 -346 q 2 -36 2 -162 l 2 114 q 6 138 2 126 l 12 150 l 21 165 q 85 209 46 198 l 85 -38 q 154 -199 85 -129 q 318 -265 221 -265 q 477 -199 412 -265 q 528 -124 511 -164 q 545 -38 545 -84 l 545 465 q 545 480 545 473 q 551 498 546 488 q 561 515 556 508 q 575 532 566 522 l 585 541 l 599 550 l 612 556 l 626 561 l 626 445 l 863 445 q 1002 398 941 445 q 1052 349 1029 379 q 1095 280 1075 319 q 1106 251 1100 269 q 1114 219 1112 232 l 1117 192 l 1117 151 l 1117 141 l 1117 132 l 1117 122 l 1117 92 l 1117 83 l 1117 -2 m 626 83 l 1032 83 l 1032 139 l 1032 165 l 1032 192 l 1032 202 q 1028 228 1032 219 q 1016 264 1026 244 q 957 337 994 311 q 871 364 920 364 l 627 364 l 626 83 "},"":{"x_min":0,"x_max":1643,"ha":1709,"o":"m 1430 831 q 1448 843 1439 839 l 1466 846 q 1504 829 1484 846 q 1521 791 1516 815 q 1517 775 1521 783 q 1504 756 1513 766 q 1488 746 1496 749 q 1468 743 1480 743 q 1432 757 1448 743 q 1416 795 1416 772 q 1430 831 1416 816 m 1560 474 l 1431 474 q 1339 437 1378 474 q 1301 349 1301 401 q 1339 270 1301 301 q 1431 239 1378 239 l 1560 239 l 1560 474 m 1560 83 l 1560 149 l 1414 149 q 1272 206 1334 149 q 1210 344 1210 263 q 1270 496 1210 432 q 1334 544 1297 527 q 1414 561 1371 561 l 1643 561 l 1643 0 l 932 0 l 932 440 l 899 431 q 864 420 874 425 q 751 363 788 393 q 660 263 693 317 q 626 131 626 203 l 626 -36 q 532 -253 626 -161 q 310 -345 438 -345 q 92 -253 185 -345 q 0 -36 0 -162 l 0 115 q 4 139 0 125 q 20 166 8 153 q 81 210 42 198 l 81 -37 q 150 -199 81 -128 q 227 -248 185 -231 q 316 -265 269 -265 q 477 -197 409 -265 q 527 -123 509 -165 q 545 -36 545 -82 l 545 142 q 590 315 545 239 q 715 450 627 380 q 834 513 757 485 l 892 532 l 958 550 l 999 561 l 1015 561 l 1015 83 l 1560 83 m 176 -363 q 192 -355 183 -358 l 210 -353 q 249 -365 234 -353 q 267 -396 267 -381 l 267 -404 q 263 -411 264 -409 q 250 -423 258 -418 q 234 -431 245 -427 l 216 -436 q 196 -432 206 -436 q 176 -422 185 -429 q 159 -391 159 -408 q 176 -363 159 -376 m 386 -363 q 402 -355 393 -358 l 420 -353 q 458 -365 442 -353 q 467 -380 461 -367 q 475 -396 470 -388 q 459 -423 475 -411 q 424 -436 443 -436 q 405 -431 415 -436 l 386 -422 l 373 -407 q 369 -391 369 -400 q 373 -376 369 -383 q 386 -363 377 -370 "},"":{"x_min":-76.65625,"x_max":110.546875,"ha":31,"o":"m 110 905 l 89 886 l 32 943 l 32 -109 l 1 -109 l 1 942 l -55 886 l -76 906 l -3 978 l -76 1050 l -56 1071 l 16 998 l 89 1071 l 110 1050 l 37 978 l 110 905 "},"":{"x_min":-29,"x_max":369,"ha":463,"o":"m -29 0 l -29 83 l 288 83 l 288 464 q 297 503 288 485 l 305 515 l 317 528 l 343 550 q 354 555 345 552 q 369 561 363 559 l 369 0 l -29 0 m 64 -97 q 98 -82 78 -82 q 136 -99 120 -82 q 154 -138 154 -115 q 139 -174 154 -157 q 104 -189 125 -185 q 65 -172 82 -189 q 53 -153 57 -163 l 48 -132 q 64 -97 48 -113 m 274 -97 q 308 -82 288 -82 q 348 -99 330 -82 q 364 -138 364 -117 q 349 -172 364 -158 q 312 -189 334 -186 q 274 -172 293 -189 q 262 -155 266 -164 l 258 -132 q 274 -97 258 -113 "},"":{"x_min":-66,"x_max":513.15625,"ha":684,"o":"m 241 701 q 275 716 256 716 q 314 701 295 716 q 331 663 328 684 q 314 627 331 646 l 305 620 q 297 617 299 618 l 280 613 q 241 629 259 613 q 224 666 228 641 q 241 701 224 685 m -66 83 l 163 83 l 151 98 q 114 126 130 111 q 86 155 98 140 q 47 263 47 207 l 47 276 q 50 299 47 284 l 52 314 l 60 337 q 139 423 80 394 q 194 442 163 435 q 226 446 208 444 q 261 449 244 449 l 362 449 l 391 449 q 416 444 404 449 q 450 424 433 442 l 461 405 l 465 395 l 468 383 l 288 383 q 232 380 251 383 q 194 372 213 378 q 135 316 151 359 q 127 275 127 295 q 216 137 127 202 q 330 83 292 83 l 513 83 l 513 0 l -66 0 l -66 83 "},"":{"x_min":-66,"x_max":915.984375,"ha":1087,"o":"m -66 0 l -66 83 l 72 83 l 72 121 q 78 209 72 169 q 83 230 82 227 q 89 249 84 233 q 96 269 92 258 q 108 296 101 280 q 167 396 134 353 q 245 471 199 439 q 452 537 333 537 l 452 554 q 462 592 452 573 l 474 607 q 488 620 480 614 l 498 627 l 511 635 l 523 638 l 538 642 l 538 536 q 646 520 594 536 q 742 470 697 504 q 879 295 825 412 q 911 181 903 244 q 914 132 913 162 q 915 61 915 103 l 915 0 l -66 0 m 153 83 l 452 83 l 452 448 q 372 439 407 448 q 303 410 337 431 q 243 363 271 392 q 195 297 218 336 q 186 280 191 290 q 175 256 181 269 l 161 215 q 153 123 153 176 l 153 83 m 536 83 l 830 83 l 830 123 l 830 150 q 830 167 830 158 q 829 180 829 177 q 823 218 829 196 q 787 297 814 253 q 681 409 744 370 q 615 438 652 428 q 536 448 578 448 l 536 83 "},"":{"x_min":-29.84375,"x_max":273,"ha":260,"o":"m -29 0 l -29 83 l 190 83 l 190 1032 q 198 1070 190 1052 l 207 1084 q 223 1100 211 1090 l 237 1112 l 246 1119 q 273 1130 256 1126 l 273 0 l -29 0 "},"":{"x_min":73,"x_max":336,"ha":294,"o":"m 205 865 l 205 0 l 122 0 l 122 865 l 205 865 m 336 963 q 252 921 302 921 q 203 943 230 924 q 154 963 175 963 q 73 931 110 963 l 73 1015 q 111 1037 91 1029 q 154 1046 132 1046 q 203 1026 175 1046 l 230 1011 q 241 1007 234 1009 q 252 1004 247 1005 l 260 1004 q 271 1005 264 1004 q 285 1008 278 1006 q 298 1012 292 1010 q 336 1046 316 1022 l 336 963 "},"":{"x_min":50.546875,"x_max":403,"ha":490,"o":"m 403 0 l 322 0 l 322 782 l 50 782 l 50 865 l 403 865 l 403 0 "},"":{"x_min":-30,"x_max":534,"ha":663,"o":"m 235 870 q 270 884 250 884 q 307 867 290 884 q 325 827 325 852 q 321 810 325 819 q 308 792 318 802 q 273 778 295 778 q 235 794 255 778 q 219 833 219 813 q 235 870 219 852 m 445 870 q 481 884 461 884 q 519 867 502 884 q 534 829 531 855 q 519 794 534 811 q 502 782 513 788 l 484 778 q 446 794 465 778 l 433 812 q 429 833 429 822 q 433 850 429 840 q 445 870 437 859 m -30 83 l 446 83 l 446 155 l 300 155 q 158 212 220 155 q 97 350 97 269 q 110 431 97 393 q 156 502 124 468 q 301 568 215 568 l 529 568 l 529 0 l -30 0 l -30 83 m 446 482 l 317 482 q 225 444 267 482 q 187 355 187 409 q 227 276 187 308 q 317 244 267 244 l 446 244 l 446 482 "},"":{"x_min":-30,"x_max":1192,"ha":1291,"o":"m 807 83 l 1109 83 l 1109 470 q 985 443 1039 470 q 886 356 934 414 q 827 250 843 305 q 817 194 821 228 q 812 118 812 159 l 807 83 m -30 0 l -30 83 l 354 83 l 364 83 q 378 86 374 83 q 383 97 382 90 l 382 99 l 381 103 l 371 128 l 327 247 q 284 351 303 313 q 226 440 255 409 q 193 459 215 455 l 159 465 l 124 465 l 108 465 l 108 563 l 123 563 q 202 556 168 563 q 262 527 236 550 q 299 490 281 511 q 316 469 310 478 q 329 451 321 461 q 349 416 339 436 q 371 371 359 397 l 408 275 l 444 171 q 504 90 475 95 l 559 81 l 728 81 l 728 124 q 732 204 728 168 q 744 273 736 239 q 806 400 759 333 q 954 525 870 485 q 1044 552 995 542 q 1149 563 1093 563 l 1192 563 l 1192 0 l 559 0 l -30 0 "},"":{"x_min":-30,"x_max":380,"ha":463,"o":"m -30 0 l -30 83 l 288 83 l 288 465 q 297 503 288 485 l 305 516 l 317 528 l 343 551 q 354 556 345 552 q 369 561 363 560 l 369 0 l -30 0 m 80 730 q 95 740 86 736 q 114 745 105 745 q 151 728 133 745 q 170 689 170 711 q 153 654 170 670 q 118 640 140 640 q 80 655 97 640 q 68 673 72 663 q 64 694 64 682 q 80 730 64 711 m 290 730 q 305 740 296 736 q 324 745 315 745 q 363 728 343 745 q 380 689 380 712 q 376 669 380 677 q 363 654 373 661 q 328 640 350 640 q 290 655 307 640 q 278 673 282 663 q 274 694 274 682 q 290 730 274 711 "},"":{"x_min":0,"x_max":1478,"ha":1462,"o":"m 1291 -155 q 1327 -139 1309 -141 q 1364 -153 1343 -139 q 1379 -191 1379 -170 q 1375 -209 1379 -201 q 1362 -225 1372 -216 q 1327 -242 1348 -242 q 1308 -238 1315 -242 q 1291 -227 1300 -236 q 1277 -191 1277 -212 q 1280 -171 1277 -179 q 1291 -155 1283 -163 m 1395 83 l 1395 464 l 1397 483 l 1403 499 q 1412 515 1407 510 l 1427 531 l 1437 539 l 1450 550 l 1463 556 l 1478 561 l 1478 0 l 932 0 l 932 440 q 910 435 921 438 q 894 429 899 431 l 865 419 q 751 363 788 392 q 657 265 689 320 q 626 131 626 209 l 626 -36 q 532 -253 626 -161 q 310 -345 438 -345 q 92 -253 185 -345 q 0 -36 0 -162 l 0 115 q 1 127 0 123 q 5 139 2 131 l 11 152 l 20 166 q 81 210 42 198 l 81 -37 q 150 -199 81 -128 q 227 -248 185 -231 q 316 -265 269 -265 q 477 -197 409 -265 q 527 -123 509 -165 q 545 -37 545 -82 l 545 141 q 590 314 545 238 q 715 449 627 379 q 834 512 757 484 l 892 531 l 953 548 l 998 558 l 1015 561 l 1015 83 l 1395 83 m 176 -363 q 192 -355 183 -358 l 210 -353 q 249 -365 234 -353 q 267 -396 267 -381 l 267 -404 q 263 -411 264 -409 q 250 -423 258 -418 q 234 -431 245 -427 l 216 -436 q 196 -432 206 -436 q 176 -422 185 -429 q 159 -391 159 -408 q 176 -363 159 -376 m 386 -363 q 402 -355 393 -358 l 420 -353 q 458 -365 442 -353 q 467 -380 461 -367 q 475 -396 470 -388 q 459 -423 475 -411 q 424 -436 443 -436 q 405 -431 415 -436 l 386 -422 l 373 -407 q 369 -391 369 -400 q 373 -376 369 -383 q 386 -363 377 -370 "},"":{"x_min":59,"x_max":444,"ha":445,"o":"m 352 1025 q 319 956 352 991 l 352 932 l 317 913 l 290 929 q 246 894 269 908 q 227 886 235 888 q 212 884 220 884 q 167 907 189 884 q 137 932 148 930 q 117 916 127 932 q 100 899 107 901 q 90 911 90 899 q 106 955 90 934 q 144 978 122 975 q 186 945 157 978 q 210 929 198 931 q 228 933 220 929 q 254 957 237 938 q 225 985 236 969 q 215 1025 215 1002 q 233 1075 215 1055 q 283 1095 252 1095 q 332 1075 313 1095 q 352 1025 352 1056 m 444 771 q 439 764 442 766 q 437 753 437 762 l 437 705 q 409 624 437 649 q 320 600 381 600 l 312 600 q 273 604 287 600 q 249 618 259 608 q 219 605 239 611 q 199 601 209 602 q 173 600 188 600 q 86 624 111 600 q 59 724 59 651 l 59 824 q 67 843 59 840 q 73 837 71 839 l 80 829 q 92 817 84 825 q 104 805 96 813 l 131 784 q 144 771 141 777 q 140 765 142 767 q 136 753 138 763 l 136 724 q 142 685 136 694 q 173 677 152 677 q 210 719 210 677 l 210 824 q 218 843 210 840 q 224 837 222 839 l 232 829 l 263 800 l 284 782 q 294 771 292 777 q 289 765 292 767 q 287 753 287 763 l 287 706 q 294 682 287 688 q 324 677 301 677 q 342 678 336 677 q 352 685 348 680 q 360 724 360 693 l 360 824 q 368 843 360 840 q 372 840 370 842 q 376 836 374 839 l 382 829 q 394 817 386 825 q 406 805 398 813 l 433 783 q 444 771 442 777 m 307 1027 q 283 1051 307 1051 q 263 1027 263 1051 q 267 1008 263 1016 q 274 1000 269 1005 q 287 990 277 998 q 302 1008 297 999 q 305 1016 303 1011 q 307 1027 306 1021 "},"":{"x_min":2,"x_max":853.5,"ha":806,"o":"m 853 0 l 250 0 q 133 -46 183 0 q 83 -156 83 -92 q 133 -289 83 -230 q 190 -330 159 -316 q 259 -345 221 -345 l 523 -345 l 523 -357 q 492 -417 523 -392 l 484 -421 l 475 -424 l 466 -426 l 455 -426 l 437 -426 l 418 -426 l 254 -426 q 76 -345 151 -426 q 2 -156 2 -265 q 77 10 2 -61 q 254 83 152 83 l 559 83 l 570 83 q 584 87 580 83 l 586 90 l 589 96 l 584 103 l 575 128 l 558 173 l 532 246 q 489 351 508 312 q 431 439 461 405 q 391 459 419 454 q 329 465 363 465 l 313 465 l 313 563 l 328 563 q 351 563 340 563 q 374 563 362 563 q 409 557 392 563 q 427 554 422 555 q 441 548 433 552 q 466 528 454 543 q 504 491 485 512 q 534 452 519 474 l 560 408 l 577 372 l 614 275 q 650 171 648 172 q 708 90 679 95 l 732 83 l 853 83 l 853 0 "},"":{"x_min":57,"x_max":513,"ha":612,"o":"m 185 -91 l 185 -161 q 192 -199 185 -181 q 219 -230 200 -216 q 303 -256 255 -256 q 390 -233 351 -256 q 430 -162 430 -205 l 430 1131 l 513 1131 l 513 -161 q 455 -288 513 -237 q 315 -339 397 -339 q 165 -291 227 -339 q 98 -161 98 -240 l 98 -90 l 185 -91 m 98 912 l 181 912 l 181 95 l 98 94 l 98 912 m 58 990 l 137 990 l 119 1005 q 90 1055 90 1026 q 93 1078 90 1066 q 104 1098 97 1089 q 121 1114 111 1106 q 143 1124 132 1121 q 169 1128 154 1128 l 216 1128 l 240 1128 l 240 1091 l 178 1091 l 159 1091 q 142 1087 151 1091 q 126 1074 133 1084 l 124 1056 q 153 1009 124 1031 l 169 998 q 191 990 179 992 l 255 990 q 237 959 255 972 l 222 959 l 208 959 l 57 959 l 58 990 "},"":{"x_min":56,"x_max":1024,"ha":1078,"o":"m 1024 429 q 1003 386 1024 412 q 970 357 992 374 l 925 326 q 910 222 925 265 q 878 179 896 179 q 827 227 855 203 l 776 271 q 663 315 718 315 q 666 287 663 300 q 677 256 669 273 q 712 203 690 229 q 805 103 764 145 q 742 66 805 88 q 710 57 725 61 q 677 51 695 54 q 641 48 659 49 q 600 46 622 46 q 521 -148 565 -59 q 416 -321 476 -238 q 222 -529 327 -445 q 105 -595 138 -595 q 85 -576 85 -595 q 152 -489 85 -567 q 293 -291 235 -398 q 364 -125 334 -215 q 408 56 391 -44 l 370 62 q 330 74 340 68 q 313 98 313 83 q 362 144 344 125 q 403 193 381 163 q 447 309 447 247 q 338 266 388 309 l 242 169 q 204 219 226 169 q 190 269 196 243 q 187 296 188 282 q 186 324 186 309 q 105 376 129 354 q 89 396 97 385 q 85 419 85 408 q 105 458 85 438 q 180 511 126 479 q 197 627 180 585 q 233 663 211 663 q 324 576 273 617 q 443 529 375 535 q 396 637 443 583 l 302 744 q 321 766 302 756 q 405 786 336 771 q 282 1106 376 940 q 76 1369 188 1271 q 56 1400 56 1389 q 79 1416 56 1416 q 202 1355 115 1416 q 304 1267 254 1318 q 352 1215 330 1241 q 399 1156 374 1190 q 595 800 519 1004 q 678 796 643 800 q 741 784 712 793 q 793 747 791 772 q 703 650 744 706 q 663 535 663 594 q 762 580 711 535 l 867 675 q 898 632 882 675 l 910 583 q 915 551 913 570 q 919 518 917 532 q 996 471 970 496 q 1024 429 1024 449 m 722 739 q 697 749 722 743 l 634 757 l 600 757 l 585 757 l 569 753 q 408 1083 512 932 q 279 1239 350 1170 q 125 1364 208 1309 q 317 1119 231 1266 q 398 944 366 1035 q 447 757 430 854 q 420 757 426 757 l 390 750 q 371 736 372 744 l 399 709 l 432 675 q 463 638 450 657 q 489 595 477 618 q 524 653 508 635 q 554 671 540 671 q 617 595 591 671 q 641 643 629 623 q 670 682 652 663 l 722 739 m 972 429 q 949 453 972 439 q 884 484 927 467 q 873 566 884 529 q 860 604 867 603 l 791 542 q 751 511 771 523 q 710 490 732 498 q 775 452 754 470 q 799 420 799 433 q 711 356 799 390 q 802 307 761 340 l 866 248 q 879 276 873 248 q 882 311 881 290 q 884 359 884 331 l 950 402 q 972 429 972 417 m 677 423 q 640 506 677 470 q 602 532 624 522 q 554 542 580 542 q 468 508 504 542 q 432 423 432 474 q 440 377 432 398 q 467 337 448 356 q 554 301 504 301 q 599 308 578 301 q 640 337 619 316 q 677 423 677 374 m 399 354 q 363 371 376 363 l 332 390 q 308 423 312 407 q 396 487 308 454 q 304 536 345 504 l 242 595 q 228 576 231 595 l 226 538 l 226 497 l 226 483 q 184 460 200 470 q 169 451 173 453 q 157 441 165 448 q 137 413 137 427 q 226 359 137 389 q 226 336 226 347 q 226 314 226 326 q 227 296 226 302 q 232 274 228 289 q 246 238 240 240 q 299 283 254 238 q 322 305 310 294 q 348 325 334 315 q 399 354 374 344 m 732 115 q 707 138 721 125 q 679 168 694 151 q 622 250 645 204 q 582 193 601 212 q 552 172 562 172 q 529 183 542 172 l 489 250 q 441 172 473 208 q 382 109 410 137 q 423 91 382 100 q 454 85 443 89 l 420 -54 q 396 -141 407 -111 q 317 -322 365 -244 q 257 -415 294 -363 q 168 -524 219 -466 q 400 -283 298 -438 q 575 91 502 -128 l 599 91 l 618 91 q 704 95 682 91 q 725 103 718 99 q 732 115 732 107 "},"":{"x_min":-30,"x_max":871,"ha":987,"o":"m -30 0 l -30 83 l 354 83 l 364 83 q 379 87 376 83 q 383 96 383 91 l 381 101 l 371 127 l 354 171 l 327 245 q 284 349 302 312 q 256 397 270 376 q 226 437 241 418 q 187 457 214 451 l 157 460 l 124 463 l 108 463 l 108 561 l 123 561 q 206 554 168 561 q 263 525 236 550 q 329 449 300 492 q 339 433 331 447 q 349 414 344 423 l 372 369 l 409 273 l 445 169 q 505 89 477 92 l 555 83 l 790 83 l 790 464 q 797 499 790 485 l 807 515 l 821 531 l 831 540 l 842 549 q 856 556 847 553 l 871 561 l 871 0 l 554 0 l -30 0 m 542 815 l 559 826 q 577 830 565 828 q 614 814 599 830 q 632 776 629 800 q 615 742 632 758 q 580 726 599 728 q 544 742 560 726 q 528 780 528 758 q 542 815 528 798 "},"":{"x_min":0,"x_max":335.6875,"ha":277,"o":"m 335 0 l 0 0 l 0 154 l 335 154 l 335 0 "},"":{"x_min":14.59375,"x_max":17.3125,"ha":258,"o":"m 17 -102 q 15 -102 16 -102 l 14 -101 l 14 -99 l 17 -99 l 17 -102 "},"":{"x_min":53,"x_max":640.984375,"ha":592,"o":"m 640 83 l 640 0 l 54 0 l 53 76 q 66 258 53 190 q 134 395 79 326 q 202 468 164 435 q 282 520 238 499 q 477 560 366 560 l 520 560 l 520 83 l 640 83 m 175 807 q 190 816 182 813 l 210 821 q 248 804 231 821 q 265 765 265 787 q 262 746 265 752 q 248 730 260 739 q 214 717 237 720 q 176 735 195 717 q 159 773 159 750 q 175 807 159 789 m 385 807 q 400 816 392 813 l 420 821 q 458 803 443 821 q 477 766 477 789 q 460 730 477 749 q 443 721 454 725 l 424 717 q 385 733 407 717 q 369 772 371 751 q 385 807 369 789 m 139 83 l 439 83 l 437 473 q 312 443 365 473 q 262 408 289 431 q 214 359 239 389 q 154 252 173 309 q 143 193 147 227 q 139 121 139 159 l 139 83 "},"":{"x_min":13,"x_max":804,"ha":909,"o":"m 396 -155 q 433 -139 414 -141 q 469 -153 450 -139 q 485 -191 481 -166 q 469 -225 485 -208 q 433 -242 453 -242 q 413 -238 421 -242 q 396 -227 404 -236 q 381 -191 381 -214 q 382 -173 381 -176 q 388 -163 383 -169 l 396 -155 m 804 561 l 804 0 l 13 0 l 13 354 q 14 371 13 366 q 18 385 15 376 l 26 398 l 38 415 q 96 449 59 439 l 96 83 l 721 83 l 721 465 q 729 504 721 484 l 749 532 q 772 549 758 541 q 804 561 786 556 "},"":{"x_min":-29.84375,"x_max":526.265625,"ha":518,"o":"m -29 83 l 354 83 l 364 83 q 378 86 375 83 q 383 97 382 90 l 382 99 l 381 103 l 371 128 l 327 247 q 284 351 303 313 q 226 440 255 409 q 193 459 215 455 l 159 465 l 124 465 l 108 465 l 108 563 l 124 563 q 202 556 168 563 q 263 527 236 550 q 299 490 281 511 q 316 470 310 478 q 329 451 322 461 q 349 416 339 436 q 371 371 359 397 l 408 275 l 444 171 q 504 90 476 95 l 526 85 l 526 0 l -29 0 l -29 83 "},"":{"x_min":136,"x_max":254,"ha":386,"o":"m 254 371 q 237 329 254 347 q 195 312 220 312 q 152 329 170 312 q 136 371 136 347 q 152 414 136 396 q 191 433 168 433 q 236 415 218 433 q 254 371 254 397 m 254 -13 q 237 -55 254 -37 q 195 -73 220 -73 q 152 -56 170 -73 q 136 -13 136 -37 q 152 29 136 11 q 191 48 168 48 q 236 30 218 48 q 254 -13 254 12 "},"":{"x_min":0,"x_max":1135.25,"ha":1091,"o":"m 171 -356 q 186 -348 178 -351 l 205 -346 q 244 -358 226 -346 q 261 -389 261 -371 q 246 -416 261 -404 q 210 -429 231 -429 q 191 -424 201 -429 l 172 -415 q 155 -384 155 -401 q 171 -356 155 -370 m 382 -356 q 398 -348 389 -352 l 417 -346 q 455 -358 437 -346 q 466 -371 463 -365 q 472 -389 469 -378 q 455 -416 472 -404 q 421 -429 442 -429 q 402 -424 412 -429 l 383 -415 q 366 -384 366 -401 q 382 -356 366 -370 m 1135 83 l 1135 0 l 932 0 l 932 440 q 912 430 925 439 q 893 419 898 421 q 883 417 888 417 q 873 419 880 417 q 865 419 867 420 q 751 363 788 392 q 697 320 719 341 q 658 270 674 298 q 634 206 642 242 q 626 131 626 170 l 626 -36 q 532 -253 626 -161 q 310 -345 438 -345 q 92 -253 185 -345 q 0 -36 0 -162 l 0 115 q 1 127 0 123 q 5 139 2 131 l 11 152 l 20 166 q 81 210 42 198 l 81 -37 q 150 -199 81 -128 q 227 -248 185 -231 q 316 -265 269 -265 q 477 -197 409 -265 q 527 -123 509 -165 q 545 -37 545 -82 l 545 141 q 590 314 545 238 q 715 449 627 379 q 834 512 757 484 l 892 531 l 953 548 l 998 558 l 1015 561 l 1015 83 l 1135 83 "},"":{"x_min":7,"x_max":1146,"ha":1253,"o":"m 1146 561 l 1146 0 l 629 0 l 629 -33 q 537 -250 629 -157 q 434 -318 490 -295 q 315 -341 378 -341 q 98 -249 189 -341 q 7 -34 7 -158 l 7 117 q 7 128 7 124 q 11 143 8 132 q 25 171 15 153 q 51 197 34 184 q 88 214 66 206 l 88 -35 q 157 -192 88 -124 q 322 -260 227 -260 q 481 -192 415 -260 q 548 -36 548 -124 l 548 236 q 581 308 548 276 l 592 318 l 605 327 q 629 337 614 332 l 629 83 l 802 83 l 802 344 q 810 381 802 361 l 820 396 l 833 410 q 856 431 845 424 q 885 443 867 438 l 885 83 l 1063 83 l 1063 463 l 1065 483 l 1071 501 q 1075 510 1074 508 q 1082 519 1076 512 l 1097 536 l 1109 545 l 1120 552 q 1146 561 1130 557 "},"":{"x_min":58.671875,"x_max":386.234375,"ha":387,"o":"m 386 -193 q 384 -202 386 -200 l 369 -216 l 351 -235 l 334 -260 q 319 -273 327 -273 q 306 -269 315 -273 l 277 -266 l 79 -266 q 58 -255 58 -266 q 60 -246 58 -248 l 75 -231 l 93 -213 q 101 -202 95 -210 q 110 -188 106 -194 q 125 -176 117 -176 q 138 -179 129 -176 q 151 -181 143 -180 q 167 -183 159 -183 l 365 -183 q 386 -193 386 -183 m 386 -331 q 385 -340 386 -337 q 370 -353 384 -342 q 361 -361 364 -359 q 351 -373 356 -367 l 334 -397 q 319 -410 328 -410 q 305 -407 315 -410 q 277 -404 296 -404 l 79 -404 q 58 -393 58 -404 q 60 -384 58 -387 l 75 -370 q 84 -362 81 -365 q 93 -351 87 -359 q 101 -340 95 -347 q 110 -326 106 -332 q 125 -314 117 -314 l 138 -317 q 167 -321 148 -321 l 365 -321 q 386 -331 386 -321 "},"":{"x_min":-30,"x_max":1467,"ha":1624,"o":"m 222 83 l 519 83 l 519 470 q 395 443 449 470 q 296 356 344 414 q 236 250 253 305 q 226 194 231 228 q 222 118 222 159 l 222 83 m 973 728 q 1007 742 987 742 q 1046 725 1030 742 q 1062 687 1062 708 q 1057 669 1062 676 l 1055 664 q 1046 653 1052 658 q 1031 642 1039 646 l 1012 638 q 973 654 991 638 q 958 694 958 673 q 961 712 958 706 q 973 728 964 719 m 1072 865 q 1108 882 1086 879 q 1143 865 1127 882 q 1160 829 1160 853 q 1156 810 1160 818 q 1145 794 1153 802 q 1129 783 1138 787 q 1110 779 1120 779 q 1072 793 1087 779 q 1056 830 1058 810 q 1072 865 1056 848 m 1185 728 q 1218 742 1200 742 q 1239 738 1231 742 q 1256 725 1248 735 q 1272 689 1272 711 q 1269 670 1272 676 q 1256 653 1267 664 q 1241 642 1249 646 l 1223 638 q 1183 654 1203 638 l 1172 672 q 1168 694 1168 682 q 1171 710 1168 704 l 1175 718 q 1185 728 1178 723 m 870 83 l 870 235 q 904 307 870 276 q 953 334 927 327 l 953 83 l 1128 83 l 1128 343 q 1129 362 1128 355 q 1134 378 1130 369 q 1142 393 1139 387 q 1146 400 1145 398 l 1158 410 l 1168 421 l 1179 431 l 1194 438 l 1209 440 l 1209 83 l 1386 83 l 1386 463 q 1419 533 1386 503 l 1431 543 l 1435 545 q 1467 560 1448 552 l 1467 0 l 601 0 l -30 0 l -30 83 l 138 83 l 138 124 q 142 203 138 168 q 154 273 146 239 q 216 399 169 332 q 364 524 280 484 q 454 551 405 541 q 559 561 503 561 l 602 561 l 602 83 l 870 83 "},"":{"x_min":-30,"x_max":871,"ha":987,"o":"m 181 -153 l 198 -142 q 216 -139 204 -140 q 253 -153 238 -139 q 271 -191 268 -168 q 254 -225 271 -209 q 219 -242 238 -239 q 183 -225 199 -242 q 167 -188 167 -209 q 181 -153 167 -170 m 684 -155 q 721 -139 701 -141 q 757 -153 737 -139 q 767 -170 763 -160 q 772 -191 772 -179 q 768 -209 772 -202 q 755 -225 766 -216 q 721 -242 741 -242 q 699 -238 705 -242 q 684 -227 693 -235 q 670 -191 670 -213 q 673 -171 670 -179 q 684 -155 676 -163 m -30 0 l -30 83 l 354 83 l 364 83 q 379 88 374 83 q 383 98 383 93 l 381 103 l 371 127 l 354 171 l 327 245 q 284 349 302 312 q 256 397 270 376 q 226 437 241 418 q 187 457 214 451 l 157 460 l 124 463 l 108 463 l 108 561 l 123 561 q 206 554 168 561 q 263 525 236 550 q 329 449 300 492 q 339 433 331 447 q 349 414 344 423 l 372 369 l 409 273 l 445 169 q 505 89 477 92 l 555 83 l 790 83 l 790 464 q 797 499 790 485 l 807 515 l 821 531 l 831 540 l 842 549 q 856 556 847 553 l 871 561 l 871 0 l 554 0 l -30 0 "},"":{"x_min":-30,"x_max":1528,"ha":1594,"o":"m 789 83 l 1088 83 l 1088 470 q 963 443 1018 470 q 863 356 914 417 q 803 250 821 305 l 793 190 q 789 118 789 160 l 789 83 m 1169 0 l 537 0 l -30 0 l -30 83 l 354 83 l 364 83 q 378 86 374 83 q 383 97 382 90 l 382 99 l 381 103 l 371 128 l 327 247 q 284 351 303 313 q 226 440 255 409 q 193 459 215 455 l 159 465 l 124 465 l 108 465 l 108 563 l 123 563 q 202 556 168 563 q 262 527 236 550 q 299 490 281 511 q 316 469 310 478 q 329 451 321 461 q 349 416 339 436 q 371 371 359 397 l 408 275 l 444 171 q 504 90 475 95 l 537 83 l 705 83 l 705 124 q 720 273 705 214 q 783 400 736 332 q 931 525 846 485 q 1022 552 972 542 q 1127 563 1071 563 l 1169 563 l 1169 85 l 1445 85 l 1445 1032 q 1453 1070 1445 1052 l 1462 1084 q 1478 1100 1466 1090 l 1492 1112 l 1501 1119 q 1528 1130 1511 1126 l 1528 0 l 1169 0 "},"":{"x_min":43.390625,"x_max":535.765625,"ha":627,"o":"m 127 0 l 43 0 l 290 864 l 535 0 l 451 0 l 290 586 l 127 0 "},"":{"x_min":58.671875,"x_max":386.234375,"ha":387,"o":"m 386 1031 q 384 1021 386 1023 l 369 1008 q 361 1000 365 1004 q 351 989 357 997 q 343 978 348 985 q 334 964 338 970 q 319 952 328 952 q 305 955 315 952 q 277 959 296 959 l 79 959 q 58 968 58 959 q 60 978 58 976 l 75 991 l 93 1010 l 110 1036 q 125 1049 117 1049 l 138 1045 q 167 1042 148 1042 l 365 1042 q 386 1031 384 1042 "},"":{"x_min":-47,"x_max":269,"ha":358,"o":"m -47 0 l -47 83 l 186 83 l 186 465 q 194 500 186 484 q 203 516 198 511 l 219 531 l 228 540 l 241 551 l 254 556 l 269 561 l 269 0 l -47 0 m 72 678 l 155 678 l 134 691 q 106 741 106 711 q 110 765 106 758 q 118 783 112 775 q 137 802 125 790 q 185 816 159 816 l 233 816 l 255 816 l 255 779 l 194 779 q 156 773 167 779 q 141 755 146 767 l 139 744 q 169 697 139 720 q 208 678 194 678 l 269 678 q 265 661 269 669 q 254 648 263 652 q 236 644 245 644 l 224 644 l 72 644 l 72 678 "},"":{"x_min":2,"x_max":1192,"ha":1311,"o":"m 1109 85 l 1109 1032 q 1116 1067 1109 1051 q 1143 1100 1123 1083 l 1166 1119 q 1192 1130 1174 1125 l 1192 0 l 250 0 q 133 -46 184 0 q 83 -156 83 -92 q 133 -289 83 -230 q 190 -330 159 -316 q 259 -345 221 -345 l 523 -345 l 523 -357 q 492 -417 523 -392 l 484 -421 l 476 -424 l 466 -426 l 455 -426 l 437 -426 l 418 -426 l 254 -426 q 76 -345 151 -426 q 2 -156 2 -265 q 77 10 2 -61 q 254 83 152 83 l 559 83 l 570 83 q 585 87 580 83 l 587 90 l 589 96 l 585 103 l 575 128 l 558 173 l 532 246 q 489 351 508 312 q 431 439 461 405 q 391 459 419 454 q 330 465 364 465 l 313 465 l 313 563 l 328 563 q 351 563 341 563 q 375 563 362 563 q 410 557 392 563 q 428 554 422 555 q 442 548 434 552 q 467 528 454 543 q 504 491 485 512 q 535 452 520 474 l 560 408 l 577 372 l 615 275 q 650 171 649 172 q 708 90 679 95 l 731 85 l 1109 85 "},"":{"x_min":-30,"x_max":871,"ha":987,"o":"m 113 839 l 130 850 q 148 854 136 852 q 185 838 170 854 q 203 800 200 824 q 186 766 203 782 q 151 750 170 752 q 115 766 131 750 q 99 804 99 782 q 113 839 99 822 m 513 839 l 530 850 q 548 854 536 852 q 585 838 570 854 q 603 800 600 824 q 586 766 603 782 q 551 750 570 752 q 515 766 531 750 q 499 804 499 782 q 513 839 499 822 m -30 0 l -30 83 l 354 83 l 365 83 q 379 88 374 83 q 384 98 384 93 l 381 103 l 371 127 l 354 171 l 327 245 q 284 349 303 312 q 256 397 270 376 q 226 437 242 418 q 187 457 214 451 l 157 460 l 124 463 l 108 463 l 108 561 l 123 561 q 206 554 168 561 q 263 525 236 550 q 329 449 300 492 q 339 433 331 447 q 349 414 344 423 l 372 369 l 409 273 l 445 169 q 505 89 477 92 l 555 83 l 790 83 l 790 464 q 797 499 790 485 l 807 515 l 821 531 l 831 540 l 842 549 q 856 556 847 553 l 871 561 l 871 0 l 554 0 l -30 0 m 656 839 l 673 850 q 691 854 679 852 q 728 838 713 854 q 746 800 743 824 q 729 766 746 782 q 694 750 713 752 q 658 766 674 750 q 642 804 642 782 q 656 839 642 822 "},"":{"x_min":2,"x_max":731.703125,"ha":864,"o":"m 731 0 l 250 0 q 133 -46 184 0 q 83 -156 83 -92 q 133 -289 83 -230 q 190 -330 159 -316 q 259 -345 221 -345 l 523 -345 l 523 -357 q 493 -417 523 -392 l 485 -421 l 476 -424 l 466 -426 l 456 -426 l 437 -426 l 418 -426 l 254 -426 q 76 -345 151 -426 q 2 -156 2 -265 q 77 10 2 -61 q 254 83 152 83 l 559 83 l 570 83 q 585 87 580 83 l 587 90 l 589 96 l 585 103 l 575 128 l 558 173 l 532 246 q 489 351 508 312 q 431 439 461 405 q 391 459 419 454 q 330 465 364 465 l 313 465 l 313 563 l 328 563 q 351 563 341 563 q 374 563 362 563 q 410 557 392 563 q 428 554 422 555 q 442 548 433 552 q 467 529 454 543 q 504 491 485 512 q 535 452 520 474 l 560 408 l 577 372 l 615 276 q 650 172 648 173 q 708 91 679 95 l 731 85 l 731 0 m 365 -137 q 401 -122 380 -122 q 439 -138 421 -122 q 456 -175 451 -149 q 439 -210 456 -193 q 403 -226 427 -221 q 384 -221 395 -226 q 367 -210 376 -217 q 351 -172 351 -193 q 365 -137 351 -151 "},"":{"x_min":79,"x_max":565,"ha":642,"o":"m 198 585 q 180 542 198 560 q 139 524 162 524 q 96 541 114 524 q 79 585 79 560 q 97 627 79 609 q 139 645 115 645 q 180 627 163 645 q 198 585 198 611 m 514 699 l 169 -198 l 123 -199 l 465 699 l 514 699 m 565 -76 q 548 -117 565 -101 q 506 -134 532 -134 q 463 -117 481 -134 q 445 -76 445 -100 q 463 -35 445 -53 q 508 -17 482 -17 q 548 -33 532 -17 q 565 -76 565 -50 "},"":{"x_min":53,"x_max":1020.75,"ha":1078,"o":"m 1020 -580 q 997 -595 1020 -595 q 948 -580 978 -595 q 874 -533 917 -565 q 773 -445 821 -494 q 677 -335 724 -397 q 569 -169 618 -258 q 481 22 520 -79 q 336 36 387 22 q 284 73 284 50 q 372 168 334 119 q 414 286 414 225 q 313 239 364 286 l 261 194 l 210 146 q 178 186 193 146 q 157 301 166 225 l 111 325 q 78 348 92 336 q 53 390 53 371 q 57 410 53 401 q 74 435 61 420 q 88 449 81 443 q 105 464 95 456 q 152 494 124 478 q 166 597 152 553 q 198 642 180 642 q 246 594 221 617 q 300 549 270 573 q 356 516 330 528 q 385 508 372 511 q 414 506 398 506 q 364 617 408 566 l 272 718 q 335 753 272 731 q 401 768 366 763 q 476 774 436 774 q 555 969 511 877 q 604 1058 578 1016 q 661 1142 629 1100 q 706 1201 681 1170 q 754 1257 731 1232 q 802 1304 777 1281 q 854 1349 826 1327 q 972 1416 937 1416 q 991 1393 991 1416 q 922 1308 991 1385 q 845 1212 882 1262 q 813 1163 828 1188 q 782 1111 798 1139 q 670 765 699 958 q 745 745 728 756 q 765 722 760 737 q 738 698 752 711 q 714 675 728 688 q 673 627 693 654 q 630 512 630 572 q 737 555 685 512 l 785 602 l 834 652 q 870 600 850 652 q 891 495 891 549 q 939 467 922 479 q 971 444 959 455 q 991 400 991 426 q 986 382 991 392 q 972 363 982 373 q 942 338 961 352 q 896 309 925 326 q 881 194 896 231 q 843 158 866 158 l 800 201 q 752 243 778 223 q 634 292 701 283 q 680 182 634 239 l 774 76 q 754 54 774 63 q 670 33 740 49 q 792 -286 698 -122 q 1002 -548 887 -451 q 1020 -580 1020 -569 m 908 1345 q 674 1102 777 1258 q 500 729 571 946 q 371 722 397 729 q 351 716 360 722 q 343 705 345 712 l 370 680 q 382 669 375 676 q 400 650 389 661 q 454 570 429 618 q 494 626 475 608 q 524 648 513 648 q 545 635 534 648 q 586 570 555 624 q 634 649 605 615 l 694 712 q 623 735 694 722 q 680 960 663 908 q 715 1057 696 1012 q 736 1102 725 1081 q 759 1145 746 1123 q 821 1236 785 1188 q 860 1287 841 1263 q 908 1345 883 1316 m 939 406 q 917 431 939 417 q 851 460 895 445 l 849 503 q 846 522 848 512 q 841 542 844 533 q 827 580 835 579 l 758 519 q 677 467 718 483 q 768 396 768 426 q 746 364 768 380 l 721 350 l 680 332 q 729 312 707 324 q 774 284 751 301 l 834 226 q 847 253 843 226 q 851 335 851 287 q 939 406 939 385 m 646 396 q 610 482 646 446 q 522 519 574 519 q 478 510 498 519 q 436 483 457 502 q 400 396 400 447 q 435 312 400 347 q 522 278 471 278 q 569 286 547 278 q 609 311 590 294 q 646 396 646 346 m 367 331 l 329 349 l 301 367 q 278 400 278 386 q 365 464 278 431 q 273 512 314 481 l 209 572 q 196 543 202 572 l 196 519 l 192 461 q 106 391 106 412 q 191 336 106 369 l 196 287 q 197 273 196 280 q 201 251 198 265 q 214 215 207 217 q 266 260 221 215 q 367 331 314 309 m 950 -542 q 759 -299 845 -445 q 630 64 662 -123 q 685 70 666 64 q 705 84 704 76 l 677 109 l 647 141 q 586 227 613 176 q 567 189 575 204 q 552 166 558 173 q 522 149 537 149 q 458 227 487 149 q 406 139 438 177 l 354 82 q 360 78 358 79 q 381 71 368 75 q 396 71 388 71 q 413 68 404 70 l 441 64 l 474 65 l 492 65 l 508 67 q 670 -263 565 -110 q 950 -542 789 -440 "}}}
